<?xml version="1.0" encoding="UTF-8" standalone="no"?>
<!-- Created with Inkscape (http://www.inkscape.org/) -->

<svg
   xmlns:dc="http://purl.org/dc/elements/1.1/"
   xmlns:cc="http://creativecommons.org/ns#"
   xmlns:rdf="http://www.w3.org/1999/02/22-rdf-syntax-ns#"
   xmlns:svg="http://www.w3.org/2000/svg"
   xmlns="http://www.w3.org/2000/svg"
   xmlns:sodipodi="http://sodipodi.sourceforge.net/DTD/sodipodi-0.dtd"
   xmlns:inkscape="http://www.inkscape.org/namespaces/inkscape"
   sodipodi:docname="diag-slide-bkgd4.svg"
   inkscape:version="0.92.3 (2405546, 2018-03-11)"
   id="svg8"
   version="1.1"
   viewBox="0 0 240.24167 180.18125"
   height="681"
   width="908"
   enable-background="new">
  <defs
     id="defs2">
    <clipPath
       clipPathUnits="userSpaceOnUse"
       id="clipPath726">
      <path
         d="m 198,630 h 191.519 v 88.56 H 198 Z"
         id="path724"
         inkscape:connector-curvature="0" />
    </clipPath>
    <clipPath
       clipPathUnits="userSpaceOnUse"
       id="clipPath926">
      <path
         d="m 198.017,635.908 h 191.502 v 76.747 H 198.017 Z"
         id="path924"
         inkscape:connector-curvature="0" />
    </clipPath>
    <clipPath
       clipPathUnits="userSpaceOnUse"
       id="clipPath938">
      <path
         d="m 198,630 h 191.519 v 88.56 H 198 Z"
         id="path936"
         inkscape:connector-curvature="0" />
    </clipPath>
    <clipPath
       clipPathUnits="userSpaceOnUse"
       id="clipPath994">
      <path
         d="m 198.017,635.908 h 191.502 v 76.747 H 198.017 Z"
         id="path992"
         inkscape:connector-curvature="0" />
    </clipPath>
    <clipPath
       clipPathUnits="userSpaceOnUse"
       id="clipPath1022">
      <path
         d="m 198,630 h 191.519 v 88.56 H 198 Z"
         id="path1020"
         inkscape:connector-curvature="0" />
    </clipPath>
    <clipPath
       clipPathUnits="userSpaceOnUse"
       id="clipPath1038">
      <path
         d="m 198.017,635.908 h 191.502 v 76.747 H 198.017 Z"
         id="path1036"
         inkscape:connector-curvature="0" />
    </clipPath>
    <clipPath
       clipPathUnits="userSpaceOnUse"
       id="clipPath1054">
      <path
         d="m 198,630 h 191.519 v 88.56 H 198 Z"
         id="path1052"
         inkscape:connector-curvature="0" />
    </clipPath>
    <clipPath
       clipPathUnits="userSpaceOnUse"
       id="clipPath1414">
      <path
         d="M 0,792 H 612 V 0 H 0 Z"
         id="path1412"
         inkscape:connector-curvature="0" />
    </clipPath>
    <clipPath
       clipPathUnits="userSpaceOnUse"
       id="clipPath7878">
      <g
         id="use7880"
         inkscape:label="Clip">
        <rect
           style="opacity:1;fill:#003a70;fill-opacity:1;stroke:#000000;stroke-width:0.16955528;stroke-linecap:round;stroke-linejoin:bevel;stroke-miterlimit:4;stroke-dasharray:none;stroke-dashoffset:0;stroke-opacity:1"
           id="rect7882"
           width="125.67709"
           height="185.15831"
           x="119.0625"
           y="111.79151" />
      </g>
    </clipPath>
  </defs>
  <sodipodi:namedview
     inkscape:lockguides="false"
     showguides="true"
     inkscape:window-maximized="1"
     inkscape:window-y="0"
     inkscape:window-x="1920"
     inkscape:window-height="1051"
     inkscape:window-width="1920"
     fit-margin-bottom="0"
     fit-margin-right="0"
     fit-margin-left="0"
     fit-margin-top="0"
     inkscape:pagecheckerboard="false"
     units="px"
     showgrid="true"
     inkscape:current-layer="svg8"
     inkscape:document-units="mm"
     inkscape:cy="542.5"
     inkscape:cx="644.1"
     inkscape:zoom="3.157"
     inkscape:pageshadow="2"
     inkscape:pageopacity="0.0"
     borderopacity="1.0"
     bordercolor="#666666"
     pagecolor="#ffffff"
     id="base"
     inkscape:guide-bbox="true">
    <inkscape:grid
       type="xygrid"
       id="grid10"
       units="px"
       spacingx="1.3229167"
       spacingy="1.3229167" />
    <sodipodi:guide
       position="0,0"
       orientation="0,908"
       id="guide7896"
       inkscape:locked="false" />
    <sodipodi:guide
       position="240.24167,0"
       orientation="-681,0"
       id="guide7898"
       inkscape:locked="false" />
    <sodipodi:guide
       position="240.24167,180.18125"
       orientation="0,-908"
       id="guide7900"
       inkscape:locked="false" />
    <sodipodi:guide
       position="0,180.18125"
       orientation="681,0"
       id="guide7902"
       inkscape:locked="false" />
    <sodipodi:guide
       position="119.7288,306.31605"
       orientation="1,0"
       id="guide12115"
       inkscape:locked="false" />
  </sodipodi:namedview>
  <metadata
     id="metadata5">
    <rdf:RDF>
      <cc:Work
         rdf:about="">
        <dc:format>image/svg+xml</dc:format>
        <dc:type
           rdf:resource="http://purl.org/dc/dcmitype/StillImage" />
        <dc:title />
      </cc:Work>
    </rdf:RDF>
  </metadata>
  <path
     d="M 180.7,171.7 V 171.7 H 189.2 V 180.2 H 180.7 Z"
     style="opacity:0.2;fill:#8a8a8d;fill-opacity:1;fill-rule:nonzero;stroke:none;stroke-width:0.29;stroke-miterlimit:4;stroke-dasharray:none"
     id="path6393"
     inkscape:connector-curvature="0" />
  <rect
     style="opacity:1;fill:#8a8a8d;fill-opacity:1;stroke:none;stroke-width:0.29;stroke-linecap:round;stroke-linejoin:bevel;stroke-miterlimit:4;stroke-dasharray:none;stroke-dashoffset:0;stroke-opacity:1"
     id="rect12117"
     width="240.4"
     height="6.524"
     x="-0.07916"
     y="0" />
  <path
     inkscape:connector-curvature="0"
     id="path1812"
     style="fill:#8a8a8d;fill-opacity:1;fill-rule:nonzero;stroke:none;stroke-width:0.29;stroke-miterlimit:4;stroke-dasharray:none"
     d="M 220.1,11.5 C 220,11.5 219.9,11.5 219.9,11.4 C 219.8,11.4 219.8,11.3 219.7,11.2 C 219.7,11.1 219.7,11 219.8,11 C 219.8,10.8 219.9,10.6 219.9,10.4 C 220,10.2 220,10.1 220,10 C 220.1,9.9 220.1,9.8 220.1,9.7 V 9.7 C 220.2,9.5 220.2,9.4 220.3,9.3 C 220.3,9.2 220.3,9.2 220.3,9.2 C 220.3,9.2 220.3,9.1 220.3,9.1 C 220.3,9.1 220.4,9.1 220.4,9.1 C 220.4,9.1 220.4,9.1 220.4,9.1 C 220.5,9.1 220.5,9.2 220.5,9.2 C 220.5,9.2 220.5,9.2 220.5,9.2 C 220.5,9.3 220.4,9.4 220.4,9.5 C 220.4,9.6 220.4,9.7 220.3,9.8 C 220.3,9.9 220.2,10.1 220.2,10.3 C 220.1,10.4 220.1,10.6 220.1,10.7 C 220,10.9 220,11 220,11.1 C 220,11.2 220,11.2 220,11.2 C 220,11.3 220,11.3 220.1,11.3 C 220.1,11.4 220.2,11.4 220.2,11.4 C 220.3,11.4 220.3,11.3 220.4,11.3 C 220.6,11.3 220.8,11.3 221,11.2 C 221.1,11.2 221.3,11.2 221.4,11.2 C 221.6,11.2 221.7,11.2 221.8,11.2 C 221.8,11.2 221.8,11.2 221.8,11.2 C 221.8,11.3 221.8,11.3 221.7,11.3 C 221.7,11.3 221.6,11.3 221.6,11.3 C 221.4,11.3 221.2,11.4 221,11.4 C 221,11.4 221,11.4 220.9,11.4 C 220.9,11.4 220.8,11.5 220.8,11.5 C 220.7,11.5 220.6,11.5 220.5,11.5 C 220.4,11.6 220.3,11.6 220.2,11.6 C 220.2,11.6 220.1,11.6 220.1,11.5" />
  <path
     inkscape:connector-curvature="0"
     id="path1816"
     style="fill:#8a8a8d;fill-opacity:1;fill-rule:nonzero;stroke:none;stroke-width:0.29;stroke-miterlimit:4;stroke-dasharray:none"
     d="M 222.8,12.2 C 222.8,12.2 222.7,12.1 222.7,12.1 C 222.7,12 222.7,12 222.7,11.9 C 222.6,11.8 222.6,11.7 222.6,11.6 C 222.6,11.5 222.6,11.4 222.6,11.3 C 222.6,11.3 222.6,11.2 222.6,11.1 C 222.6,11 222.6,10.8 222.7,10.7 V 10.3 C 222.7,10.3 222.7,10.3 222.7,10.2 C 222.7,10.2 222.7,10.2 222.7,10.1 C 222.6,10.1 222.6,10.1 222.6,10 C 222.5,10 222.5,10 222.5,9.9 C 222.5,9.9 222.5,9.8 222.5,9.8 C 222.5,9.8 222.5,9.8 222.6,9.8 L 222.7,9.7 C 222.7,9.7 222.7,9.7 222.8,9.7 C 222.8,9.7 222.8,9.7 222.8,9.7 C 222.8,9.6 222.8,9.6 222.8,9.6 C 222.8,9.5 222.8,9.4 222.8,9.3 C 222.8,9.1 222.9,9 222.9,8.9 C 222.8,8.9 222.8,8.9 222.8,8.9 C 222.8,8.9 222.7,8.9 222.6,9 C 222.6,9 222.6,9 222.5,9 C 222.5,9 222.5,9 222.4,9 C 222.4,9 222.4,9.1 222.4,9.1 C 222.4,9.1 222.3,9.1 222.3,9.1 C 222.3,9.1 222.3,9.1 222.3,9.1 L 222.2,9 C 222.2,9 222.2,9 222.2,8.9 C 222.3,8.9 222.4,8.8 222.5,8.8 C 222.6,8.8 222.7,8.7 222.8,8.7 C 222.8,8.7 222.8,8.7 222.9,8.7 C 222.9,8.7 222.9,8.7 222.9,8.7 C 223,8.7 223,8.7 223,8.7 C 223.1,8.8 223.2,8.8 223.3,8.8 C 223.5,8.8 223.6,8.9 223.8,8.9 C 223.9,9 223.9,9 224,9.1 C 224.1,9.1 224.1,9.3 224,9.3 C 223.9,9.4 223.9,9.5 223.8,9.5 C 223.7,9.6 223.5,9.6 223.4,9.7 C 223.3,9.7 223.2,9.8 223.1,9.8 C 223.1,9.8 223.1,9.8 223,9.8 C 223,9.8 223,9.9 223,9.9 V 10 C 223,10 223,10 223,10.1 C 223,10.1 223,10.1 223,10.2 C 223,10.2 223.1,10.2 223.1,10.2 C 223.2,10.3 223.3,10.4 223.4,10.5 C 223.6,10.6 223.7,10.8 223.9,10.9 L 224.2,11.1 L 224.6,11.6 C 224.7,11.6 224.7,11.6 224.8,11.7 C 224.8,11.7 224.8,11.7 224.8,11.8 C 224.9,11.8 224.9,11.9 225,12 C 225,12 225,12 225.1,12.1 C 225.1,12.1 225.1,12.1 225.1,12.1 C 225,12 225,12 224.9,12 C 224.8,11.9 224.7,11.8 224.5,11.7 C 224.5,11.6 224.4,11.6 224.4,11.5 C 224.3,11.5 224.3,11.5 224.3,11.5 C 224.2,11.4 224.1,11.3 224.1,11.3 L 223.6,10.9 C 223.5,10.9 223.5,10.8 223.4,10.7 C 223.3,10.7 223.3,10.6 223.2,10.6 L 223,10.4 C 223,10.4 223,10.4 222.9,10.4 C 222.9,10.4 222.9,10.4 222.9,10.4 C 222.9,10.6 222.9,10.7 222.9,10.9 C 222.9,11 222.8,11.1 222.8,11.3 C 222.8,11.4 222.8,11.6 222.8,11.7 C 222.8,11.8 222.8,11.8 222.8,11.9 C 222.8,11.9 222.8,12 222.8,12 C 222.9,12 222.9,12 222.8,12.1 C 222.8,12.1 222.8,12.2 222.8,12.2 C 222.8,12.2 222.8,12.2 222.8,12.2 M 223.1,9.6 L 223.2,9.5 C 223.4,9.5 223.6,9.4 223.7,9.2 C 223.8,9.2 223.8,9.2 223.8,9.1 C 223.8,9.1 223.8,9.1 223.8,9.1 C 223.6,9 223.4,9 223.2,8.9 C 223.2,8.9 223.2,8.9 223.1,8.9 C 223.1,8.9 223.1,8.9 223.1,9 V 9 C 223.1,9 223.1,9.1 223.1,9.1 C 223.1,9.2 223.1,9.3 223.1,9.4 L 223,9.6 C 223,9.6 223,9.6 223,9.6 C 223.1,9.6 223.1,9.6 223.1,9.6" />
  <path
     inkscape:connector-curvature="0"
     id="path1820"
     style="fill:#8a8a8d;fill-opacity:1;fill-rule:nonzero;stroke:none;stroke-width:0.29;stroke-miterlimit:4;stroke-dasharray:none"
     d="M 225.1,10.9 V 10.8 C 225.1,10.8 225.1,10.8 225.1,10.8 H 225.2 C 225.2,10.8 225.3,10.7 225.4,10.7 C 225.6,10.7 225.8,10.6 226,10.6 C 226.1,10.6 226.3,10.6 226.4,10.6 C 226.5,10.6 226.6,10.6 226.8,10.6 C 226.8,10.6 226.8,10.6 226.8,10.6 C 226.8,10.6 226.8,10.6 226.8,10.6 C 226.8,10.7 226.8,10.7 226.8,10.7 C 226.8,10.7 226.7,10.7 226.7,10.7 C 226.6,10.7 226.6,10.7 226.5,10.7 C 226.5,10.7 226.4,10.7 226.4,10.7 C 226.3,10.8 226.2,10.8 226,10.8 C 225.9,10.8 225.8,10.9 225.6,10.9 C 225.5,10.9 225.4,11 225.3,11 C 225.3,11 225.3,11 225.2,11 C 225.2,11 225.2,11 225.1,10.9 M 225.3,10.4 C 225.3,10.4 225.3,10.4 225.3,10.4 C 225.2,10.4 225.2,10.4 225.2,10.3 C 225.2,10.3 225.2,10.3 225.2,10.3 H 225.3 C 225.4,10.2 225.5,10.2 225.6,10.2 C 225.8,10.2 226,10.1 226.2,10.1 C 226.3,10.1 226.3,10.1 226.4,10.1 C 226.5,10.1 226.5,10.1 226.6,10.1 C 226.6,10.1 226.6,10.1 226.6,10.2 C 226.6,10.2 226.7,10.2 226.7,10.2 C 226.7,10.2 226.7,10.2 226.7,10.3 C 226.6,10.3 226.6,10.3 226.6,10.3 C 226.6,10.3 226.5,10.3 226.5,10.3 C 226.3,10.3 226.2,10.3 226,10.3 C 225.9,10.4 225.9,10.4 225.8,10.4 C 225.7,10.4 225.7,10.4 225.6,10.4 H 225.4 C 225.4,10.4 225.3,10.4 225.3,10.4" />
  <path
     inkscape:connector-curvature="0"
     id="path1824"
     style="fill:#8a8a8d;fill-opacity:1;fill-rule:nonzero;stroke:none;stroke-width:0.29;stroke-miterlimit:4;stroke-dasharray:none"
     d="M 227.5,11.7 C 227.4,11.7 227.4,11.6 227.4,11.6 C 227.4,11.5 227.4,11.4 227.4,11.3 C 227.4,11.2 227.4,11.1 227.4,11 L 227.3,10.6 C 227.3,10.5 227.3,10.4 227.3,10.3 C 227.3,10.2 227.3,10 227.3,9.9 C 227.3,9.8 227.2,9.7 227.2,9.7 C 227.2,9.6 227.2,9.5 227.2,9.4 C 227.2,9.4 227.2,9.3 227.2,9.2 C 227.2,9.2 227.2,9.1 227.2,9.1 C 227.3,9 227.4,9 227.4,9 C 227.6,8.9 227.7,8.9 227.8,8.9 C 228,8.9 228.1,9 228.2,9 C 228.2,9.1 228.2,9.1 228.3,9.1 C 228.3,9.2 228.3,9.3 228.3,9.4 C 228.3,9.5 228.2,9.7 228.2,9.8 C 228.1,10 228.1,10.1 228,10.2 C 227.9,10.3 227.8,10.4 227.6,10.4 C 227.6,10.4 227.6,10.4 227.6,10.4 C 227.6,10.4 227.6,10.4 227.6,10.5 C 227.6,10.5 227.6,10.6 227.6,10.7 C 227.6,10.8 227.6,10.9 227.6,11 C 227.6,11.1 227.6,11.1 227.6,11.1 C 227.6,11.2 227.6,11.2 227.6,11.3 C 227.6,11.3 227.6,11.4 227.6,11.5 C 227.6,11.5 227.7,11.6 227.7,11.6 C 227.7,11.7 227.7,11.7 227.6,11.7 C 227.6,11.7 227.6,11.8 227.6,11.8 C 227.5,11.8 227.5,11.8 227.5,11.7 M 227.6,10.2 C 227.6,10.2 227.7,10.2 227.7,10.1 C 227.7,10.1 227.8,10 227.8,10 C 227.8,10 227.8,10 227.8,10 C 227.8,9.9 227.9,9.8 227.9,9.7 C 228,9.6 228,9.5 228,9.4 C 228,9.3 228,9.2 228,9.2 C 228,9.1 228,9.1 227.9,9.1 C 227.8,9 227.7,9 227.6,9.1 C 227.6,9.1 227.5,9.1 227.5,9.2 C 227.5,9.2 227.4,9.2 227.4,9.3 C 227.4,9.3 227.4,9.3 227.4,9.3 C 227.4,9.4 227.5,9.4 227.5,9.5 C 227.5,9.6 227.5,9.6 227.5,9.7 V 10 C 227.5,10.1 227.5,10.2 227.6,10.2 Z" />
  <path
     inkscape:connector-curvature="0"
     id="path1828"
     style="fill:#8a8a8d;fill-opacity:1;fill-rule:nonzero;stroke:none;stroke-width:0.29;stroke-miterlimit:4;stroke-dasharray:none"
     d="M 228.8,11.4 C 228.8,11.4 228.8,11.4 228.8,11.3 C 228.8,11.3 228.8,11.3 228.8,11.2 C 228.8,11.1 228.8,11 228.8,10.9 C 228.8,10.8 228.7,10.7 228.7,10.6 V 10.3 C 228.7,10.3 228.7,10.2 228.7,10.2 C 228.7,10.2 228.7,10.1 228.7,10.1 C 228.7,10 228.8,10 228.8,10 C 228.8,10 228.9,10.1 228.9,10.1 C 228.9,10.1 228.9,10.1 228.9,10.2 C 228.9,10.2 228.9,10.3 228.9,10.3 C 228.9,10.4 228.9,10.4 229,10.4 C 229,10.4 229,10.4 229,10.4 C 229,10.3 229,10.3 229,10.3 C 229.1,10.2 229.2,10.1 229.2,10 C 229.3,9.9 229.3,9.9 229.4,9.9 C 229.4,9.9 229.4,9.9 229.4,9.9 C 229.4,9.9 229.4,9.9 229.5,9.9 C 229.5,9.9 229.5,10 229.5,10 C 229.4,10.1 229.4,10.2 229.3,10.2 C 229.3,10.3 229.3,10.3 229.2,10.3 C 229.1,10.5 229.1,10.7 229,10.9 C 229,11.1 229,11.2 229,11.3 C 229,11.4 229,11.4 229,11.4 C 229,11.4 228.9,11.4 228.9,11.4 C 228.9,11.4 228.8,11.4 228.8,11.4" />
  <path
     inkscape:connector-curvature="0"
     id="path1832"
     style="fill:#8a8a8d;fill-opacity:1;fill-rule:nonzero;stroke:none;stroke-width:0.29;stroke-miterlimit:4;stroke-dasharray:none"
     d="M 230,12.2 C 229.9,12.1 229.9,12.1 229.8,12 C 229.8,11.9 229.8,11.8 229.7,11.7 C 229.7,11.6 229.7,11.6 229.7,11.6 C 229.7,11.4 229.7,11.3 229.7,11.1 C 229.7,11 229.7,10.9 229.7,10.7 C 229.7,10.6 229.7,10.5 229.8,10.4 V 10.2 C 229.8,10 229.9,9.7 229.9,9.5 C 230,9.4 230,9.2 230.1,9.1 C 230.1,9 230.1,8.9 230.2,8.8 C 230.2,8.8 230.2,8.8 230.2,8.8 C 230.3,8.7 230.4,8.6 230.4,8.6 C 230.5,8.6 230.5,8.6 230.6,8.6 C 230.6,8.6 230.6,8.7 230.6,8.7 C 230.5,8.7 230.5,8.8 230.5,8.8 C 230.4,8.9 230.3,9.1 230.3,9.2 C 230.2,9.4 230.2,9.5 230.1,9.7 C 230.1,9.9 230,10.1 230,10.3 V 10.5 C 230,10.5 230,10.5 230,10.6 C 230,10.6 230,10.6 230,10.6 C 229.9,10.7 229.9,10.8 229.9,10.8 C 229.9,11 229.9,11.1 229.9,11.3 C 229.9,11.4 229.9,11.5 229.9,11.6 C 229.9,11.7 229.9,11.8 230,11.9 C 230,11.9 230,12 230,12 C 230,12 230.1,12 230.1,12.1 C 230.1,12.1 230.1,12.1 230.2,12.1 C 230.2,12.1 230.2,12.1 230.2,12.1 C 230.2,12.1 230.2,12.1 230.2,12.1 C 230.2,12.1 230.2,12.2 230.2,12.2 C 230.1,12.2 230.1,12.2 230,12.2" />
  <path
     inkscape:connector-curvature="0"
     id="path1836"
     style="fill:#8a8a8d;fill-opacity:1;fill-rule:nonzero;stroke:none;stroke-width:0.29;stroke-miterlimit:4;stroke-dasharray:none"
     d="M 231.4,11.8 C 231.3,11.8 231.3,11.8 231.2,11.7 C 231.2,11.7 231.2,11.7 231.2,11.7 C 231.2,11.6 231.2,11.6 231.2,11.5 C 231.2,11.4 231.2,11.3 231.2,11.1 C 231.2,11.1 231.2,11.1 231.2,11 C 231.2,11 231.1,11 231.1,11 C 231.1,11 231,11 231,11 C 231,11 231,10.9 230.9,10.9 C 231,10.9 231,10.9 231,10.8 C 231.1,10.8 231.1,10.8 231.2,10.8 C 231.2,10.8 231.2,10.7 231.2,10.7 C 231.2,10.7 231.2,10.7 231.2,10.7 C 231.2,10.6 231.2,10.5 231.2,10.4 C 231.2,10.3 231.2,10.2 231.2,10.1 C 231.2,10 231.2,9.9 231.2,9.8 C 231.2,9.8 231.3,9.7 231.2,9.7 C 231.2,9.7 231.2,9.7 231.2,9.7 C 231.2,9.7 231.2,9.7 231.2,9.7 C 231.3,9.6 231.3,9.6 231.3,9.5 C 231.3,9.4 231.3,9.4 231.3,9.3 C 231.3,9.2 231.3,9.2 231.3,9.1 C 231.3,9.1 231.3,9 231.3,9 C 231.3,8.9 231.3,8.9 231.4,8.9 C 231.4,8.9 231.4,8.9 231.4,8.9 C 231.4,9 231.5,9 231.5,9 C 231.5,9.1 231.5,9.2 231.5,9.2 C 231.5,9.3 231.5,9.3 231.5,9.4 C 231.5,9.4 231.5,9.3 231.6,9.3 C 231.6,9.3 231.7,9.2 231.7,9.2 C 231.8,9.1 231.9,9 232,9 C 232.2,8.9 232.4,8.8 232.6,8.7 C 232.6,8.7 232.6,8.7 232.6,8.7 C 232.6,8.7 232.6,8.7 232.6,8.7 C 232.6,8.7 232.6,8.8 232.6,8.8 C 232.6,8.8 232.5,8.8 232.5,8.8 C 232.5,8.8 232.5,8.8 232.5,8.8 C 232.5,8.9 232.4,8.9 232.4,8.9 C 232.4,8.9 232.4,8.9 232.4,9 C 232.3,9 232.3,9 232.3,9 C 232.2,9 232.2,9.1 232.1,9.2 C 232.1,9.2 232.1,9.2 232,9.2 C 232,9.3 231.9,9.4 231.8,9.4 C 231.7,9.5 231.6,9.6 231.5,9.7 V 9.7 C 231.5,9.8 231.5,9.8 231.5,9.8 C 231.5,10 231.5,10.2 231.4,10.4 C 231.4,10.5 231.4,10.5 231.4,10.5 C 231.4,10.6 231.4,10.6 231.5,10.6 C 231.5,10.6 231.5,10.6 231.5,10.6 C 231.7,10.5 231.8,10.4 232,10.4 C 232.1,10.4 232.2,10.3 232.3,10.3 C 232.3,10.3 232.4,10.3 232.4,10.3 C 232.5,10.2 232.6,10.2 232.7,10.2 C 232.7,10.2 232.7,10.2 232.7,10.2 C 232.7,10.2 232.7,10.3 232.6,10.3 C 232.6,10.3 232.6,10.3 232.6,10.3 C 232.6,10.4 232.5,10.4 232.5,10.4 C 232.4,10.4 232.3,10.5 232.2,10.5 C 232.2,10.5 232.1,10.5 232.1,10.6 C 232,10.6 232,10.6 231.9,10.6 C 231.8,10.7 231.6,10.8 231.5,10.8 V 10.8 C 231.4,10.9 231.4,10.9 231.4,10.9 V 11 C 231.4,11.2 231.4,11.3 231.4,11.5 C 231.5,11.5 231.5,11.6 231.5,11.6 C 231.5,11.6 231.5,11.6 231.5,11.6 C 231.5,11.7 231.5,11.7 231.5,11.7 C 231.5,11.7 231.5,11.7 231.6,11.7 C 231.7,11.7 231.8,11.7 231.8,11.7 L 232,11.6 C 232.1,11.5 232.2,11.5 232.3,11.4 C 232.5,11.4 232.6,11.3 232.8,11.2 C 232.8,11.2 232.9,11.2 232.9,11.1 C 233,11.2 232.9,11.2 232.9,11.2 C 232.9,11.3 232.9,11.3 232.9,11.3 C 232.9,11.3 232.8,11.4 232.8,11.4 C 232.8,11.4 232.7,11.4 232.7,11.4 V 11.5 C 232.6,11.5 232.5,11.6 232.5,11.6 L 232.2,11.8 H 232.1 C 232,11.8 231.9,11.9 231.7,11.9 C 231.6,11.9 231.5,11.9 231.4,11.8" />
  <path
     inkscape:connector-curvature="0"
     id="path1840"
     style="fill:#8a8a8d;fill-opacity:1;fill-rule:nonzero;stroke:none;stroke-width:0.29;stroke-miterlimit:4;stroke-dasharray:none"
     d="M 233.3,11.5 C 233.3,11.5 233.3,11.5 233.3,11.5 C 233.3,11.3 233.3,11.2 233.3,11.1 C 233.2,10.9 233.2,10.7 233.2,10.6 V 10.5 C 233.2,10.2 233.2,10 233.2,9.7 C 233.2,9.6 233.2,9.5 233.2,9.4 L 233.3,9.1 C 233.3,9 233.3,9 233.3,9 C 233.3,8.9 233.3,8.9 233.3,8.9 C 233.3,8.8 233.3,8.8 233.3,8.8 C 233.4,8.8 233.5,8.8 233.5,8.9 C 233.5,8.9 233.5,9 233.5,9 C 233.5,9.1 233.5,9.3 233.5,9.4 C 233.5,9.6 233.5,9.7 233.5,9.9 C 233.4,10 233.4,10.2 233.4,10.3 C 233.4,10.4 233.4,10.6 233.4,10.7 C 233.4,10.8 233.4,10.8 233.4,10.9 C 233.4,11 233.4,11.1 233.4,11.2 C 233.4,11.2 233.4,11.3 233.4,11.3 C 233.4,11.3 233.4,11.3 233.4,11.4 C 233.4,11.4 233.4,11.4 233.4,11.4 C 233.4,11.5 233.4,11.5 233.4,11.5 C 233.3,11.5 233.3,11.5 233.3,11.5" />
  <path
     inkscape:connector-curvature="0"
     id="path1844"
     style="fill:#8a8a8d;fill-opacity:1;fill-rule:nonzero;stroke:none;stroke-width:0.29;stroke-miterlimit:4;stroke-dasharray:none"
     d="M 234.2,12.1 C 234.2,12.1 234.2,12 234.2,12 C 234.2,12 234.2,12 234.2,11.9 C 234.3,12 234.3,11.9 234.4,11.9 C 234.5,11.8 234.5,11.7 234.6,11.6 C 234.6,11.5 234.6,11.5 234.7,11.4 C 234.7,11.3 234.8,11.1 234.9,11 C 234.9,10.8 234.9,10.7 235,10.6 C 235,10.4 235.1,10.2 235.1,10 C 235.1,10 235.1,9.9 235.1,9.8 C 235.1,9.8 235.1,9.8 235,9.8 C 235,9.8 234.9,9.8 234.9,9.9 C 234.8,9.9 234.7,10 234.7,10.1 L 234.4,10.3 C 234.3,10.4 234.3,10.4 234.2,10.5 C 234.2,10.5 234.1,10.5 234,10.5 C 234,10.5 233.9,10.5 233.9,10.5 C 233.9,10.5 233.8,10.4 233.8,10.4 C 233.9,10.4 233.9,10.4 233.9,10.3 C 233.9,10.2 233.9,10 234,9.8 C 234.1,9.6 234.1,9.4 234.2,9.3 C 234.2,9.1 234.3,9 234.3,8.8 C 234.4,8.7 234.5,8.6 234.6,8.5 C 234.6,8.4 234.7,8.4 234.7,8.4 C 234.8,8.4 234.8,8.4 234.8,8.4 C 234.9,8.4 234.9,8.4 235,8.5 C 235,8.5 235,8.6 235,8.6 C 235,8.7 235,8.7 235,8.7 V 8.8 C 235,8.8 235,8.8 235,8.8 C 235,8.9 235,8.9 235,9 V 9 C 234.9,9 234.9,9 234.9,8.9 C 234.9,8.9 234.9,8.9 234.9,8.8 C 234.9,8.8 234.9,8.8 234.9,8.8 C 234.9,8.7 234.9,8.6 234.9,8.5 C 234.8,8.5 234.8,8.5 234.8,8.5 C 234.7,8.6 234.7,8.6 234.7,8.7 C 234.6,8.7 234.6,8.8 234.6,8.8 C 234.5,8.9 234.5,9 234.5,9 C 234.4,9.2 234.4,9.3 234.3,9.4 C 234.3,9.6 234.2,9.8 234.2,10.1 C 234.1,10.1 234.1,10.2 234.1,10.2 C 234.1,10.2 234.1,10.3 234.1,10.3 C 234.1,10.3 234.2,10.2 234.2,10.2 C 234.3,10.2 234.3,10.1 234.4,10 C 234.4,10 234.4,10 234.5,10 C 234.5,9.9 234.6,9.9 234.6,9.8 C 234.7,9.8 234.8,9.7 234.9,9.6 C 235,9.6 235.1,9.6 235.1,9.6 C 235.2,9.6 235.2,9.6 235.3,9.7 C 235.3,9.7 235.3,9.8 235.4,9.8 C 235.4,9.9 235.4,10 235.3,10.1 C 235.3,10.3 235.3,10.4 235.2,10.5 C 235.2,10.7 235.1,10.9 235.1,11.1 C 235,11.1 235,11.2 235,11.2 C 235,11.3 235,11.3 234.9,11.3 V 11.5 C 234.8,11.6 234.8,11.6 234.7,11.7 C 234.7,11.8 234.7,11.8 234.6,11.8 C 234.6,11.9 234.6,11.9 234.5,12 C 234.5,12 234.4,12.1 234.4,12.1 C 234.3,12.1 234.3,12.1 234.2,12.1" />
  <path
     inkscape:connector-curvature="0"
     id="path1848"
     style="fill:#8a8a8d;fill-opacity:1;fill-rule:nonzero;stroke:none;stroke-width:0.29;stroke-miterlimit:4;stroke-dasharray:none"
     d="M 235.8,12.1 C 235.8,12 235.9,11.9 235.9,11.9 C 236.1,11.7 236.2,11.6 236.3,11.4 C 236.4,11.3 236.4,11.2 236.5,11 C 236.6,10.9 236.6,10.9 236.7,10.8 C 236.7,10.6 236.8,10.5 236.9,10.4 L 237,10.2 C 237,10.1 237.1,10 237.1,9.9 C 237.1,9.7 237.2,9.5 237.1,9.3 C 237.1,9.2 237.1,9.1 237,9 C 237,9 236.9,8.9 236.9,8.9 C 236.9,8.8 236.8,8.8 236.8,8.8 V 8.7 C 236.8,8.7 236.7,8.7 236.7,8.7 C 236.7,8.7 236.7,8.7 236.7,8.6 C 236.7,8.6 236.8,8.6 236.8,8.6 C 236.8,8.6 236.9,8.6 236.9,8.7 C 237,8.7 237.1,8.8 237.2,8.9 C 237.2,9 237.2,9.1 237.3,9.1 C 237.3,9.3 237.3,9.4 237.3,9.5 C 237.4,9.6 237.3,9.7 237.3,9.9 C 237.3,10 237.3,10 237.2,10.1 C 237.2,10.2 237.1,10.3 237.1,10.5 C 237,10.7 236.9,10.9 236.7,11.1 C 236.7,11.2 236.6,11.3 236.5,11.4 C 236.4,11.5 236.4,11.6 236.3,11.7 C 236.3,11.7 236.2,11.8 236.1,11.9 C 236.1,11.9 236,12 236,12 C 236,12 236,12 235.9,12.1 C 235.9,12.1 235.9,12.1 235.9,12.1 C 235.8,12.1 235.8,12.1 235.7,12.1 C 235.7,12.1 235.7,12.1 235.8,12.1" />
  <path
     inkscape:connector-curvature="0"
     id="path1852"
     style="fill:#8a8a8d;fill-opacity:1;fill-rule:nonzero;stroke:none;stroke-width:0.29;stroke-miterlimit:4;stroke-dasharray:none"
     d="M 227.6,18.3 C 227.5,18.2 227.5,18.2 227.5,18.2 C 227.5,18 227.5,17.9 227.5,17.8 C 227.5,17.8 227.5,17.7 227.5,17.6 L 227.4,17.1 C 227.4,17.1 227.4,17 227.4,16.9 C 227.4,16.7 227.4,16.6 227.4,16.4 C 227.4,16.4 227.3,16.3 227.3,16.2 C 227.3,16.2 227.3,16.1 227.3,16 C 227.3,15.9 227.3,15.9 227.3,15.8 C 227.3,15.8 227.3,15.7 227.3,15.7 C 227.4,15.6 227.5,15.6 227.5,15.5 C 227.7,15.5 227.8,15.5 227.9,15.5 C 228.1,15.5 228.2,15.5 228.3,15.6 C 228.3,15.6 228.4,15.7 228.4,15.7 C 228.4,15.8 228.4,15.9 228.4,16 C 228.4,16.1 228.3,16.3 228.3,16.4 C 228.2,16.5 228.2,16.6 228.1,16.7 C 228,16.8 227.9,16.9 227.7,17 C 227.7,17 227.7,17 227.7,17 C 227.7,17 227.7,17 227.7,17 C 227.7,17.1 227.7,17.2 227.7,17.3 C 227.7,17.4 227.7,17.5 227.7,17.6 C 227.7,17.6 227.7,17.7 227.7,17.7 C 227.7,17.8 227.7,17.8 227.7,17.8 C 227.7,17.9 227.7,18 227.7,18 C 227.7,18.1 227.8,18.2 227.8,18.2 C 227.8,18.3 227.8,18.3 227.8,18.3 C 227.7,18.3 227.7,18.3 227.7,18.3 C 227.6,18.4 227.6,18.4 227.6,18.3 M 227.7,16.8 C 227.7,16.8 227.8,16.7 227.8,16.7 C 227.8,16.7 227.9,16.6 227.9,16.6 C 227.9,16.6 227.9,16.5 227.9,16.5 C 227.9,16.5 228,16.4 228,16.3 C 228.1,16.2 228.1,16.1 228.1,16 C 228.1,15.9 228.2,15.8 228.1,15.7 C 228.1,15.7 228.1,15.7 228.1,15.7 C 227.9,15.6 227.8,15.6 227.7,15.7 C 227.7,15.7 227.6,15.7 227.6,15.7 C 227.6,15.8 227.5,15.8 227.5,15.8 C 227.5,15.9 227.5,15.9 227.5,15.9 C 227.5,16 227.6,16 227.6,16.1 C 227.6,16.1 227.6,16.2 227.6,16.3 V 16.6 C 227.6,16.7 227.7,16.7 227.7,16.8 Z" />
  <path
     inkscape:connector-curvature="0"
     id="path1856"
     style="fill:#8a8a8d;fill-opacity:1;fill-rule:nonzero;stroke:none;stroke-width:0.29;stroke-miterlimit:4;stroke-dasharray:none"
     d="M 228.9,18 C 228.9,18 228.9,18 228.9,17.9 C 228.9,17.9 228.9,17.9 228.9,17.8 C 228.9,17.7 228.9,17.6 228.9,17.5 C 228.9,17.4 228.9,17.3 228.8,17.2 V 16.9 C 228.8,16.8 228.8,16.8 228.8,16.8 C 228.8,16.7 228.8,16.7 228.8,16.7 C 228.8,16.6 228.9,16.6 228.9,16.6 C 229,16.6 229,16.6 229,16.7 C 229,16.7 229,16.7 229,16.8 C 229,16.8 229,16.9 229,16.9 C 229,16.9 229,17 229.1,17 C 229.1,17 229.1,17 229.1,16.9 C 229.1,16.9 229.1,16.9 229.1,16.9 C 229.2,16.8 229.3,16.7 229.3,16.6 C 229.4,16.5 229.4,16.5 229.5,16.5 C 229.5,16.5 229.5,16.5 229.5,16.5 C 229.5,16.5 229.5,16.5 229.6,16.5 C 229.6,16.5 229.6,16.5 229.6,16.6 C 229.5,16.6 229.5,16.7 229.4,16.8 C 229.4,16.8 229.4,16.9 229.3,16.9 C 229.3,17.1 229.2,17.3 229.1,17.5 C 229.1,17.6 229.1,17.8 229.1,17.9 C 229.1,17.9 229.1,18 229.1,18 C 229.1,18 229.1,18 229,18 C 229,18 229,18 228.9,18" />
  <path
     inkscape:connector-curvature="0"
     id="path1860"
     style="fill:#8a8a8d;fill-opacity:1;fill-rule:nonzero;stroke:none;stroke-width:0.29;stroke-miterlimit:4;stroke-dasharray:none"
     d="M 230.1,18.7 C 230,18.7 230,18.7 230,18.6 C 229.9,18.5 229.9,18.4 229.8,18.3 C 229.8,18.2 229.8,18.2 229.8,18.1 C 229.8,18 229.8,17.8 229.8,17.7 C 229.8,17.6 229.8,17.4 229.8,17.3 C 229.8,17.2 229.8,17.1 229.9,17 V 16.8 C 229.9,16.6 230,16.3 230,16.1 C 230.1,15.9 230.1,15.8 230.2,15.7 C 230.2,15.6 230.3,15.5 230.3,15.4 C 230.3,15.4 230.3,15.4 230.3,15.3 C 230.4,15.3 230.5,15.2 230.5,15.2 C 230.6,15.1 230.6,15.1 230.7,15.1 C 230.7,15.2 230.7,15.2 230.7,15.3 C 230.6,15.3 230.6,15.3 230.6,15.4 C 230.5,15.5 230.4,15.6 230.4,15.8 C 230.3,15.9 230.3,16.1 230.2,16.3 C 230.2,16.5 230.1,16.7 230.1,16.8 V 17.1 C 230.1,17.1 230.1,17.1 230.1,17.2 C 230.1,17.2 230.1,17.2 230.1,17.2 C 230,17.3 230,17.4 230,17.4 C 230,17.6 230,17.7 230,17.8 C 230,18 230,18.1 230,18.2 C 230,18.3 230,18.4 230.1,18.4 C 230.1,18.5 230.1,18.5 230.1,18.6 C 230.1,18.6 230.2,18.6 230.2,18.6 C 230.2,18.7 230.2,18.7 230.3,18.7 C 230.3,18.7 230.3,18.7 230.3,18.7 C 230.3,18.7 230.3,18.7 230.3,18.7 C 230.3,18.7 230.3,18.7 230.3,18.7 C 230.2,18.8 230.2,18.8 230.1,18.7" />
  <path
     inkscape:connector-curvature="0"
     id="path1864"
     style="fill:#8a8a8d;fill-opacity:1;fill-rule:nonzero;stroke:none;stroke-width:0.29;stroke-miterlimit:4;stroke-dasharray:none"
     d="M 231.5,18.4 C 231.4,18.4 231.4,18.4 231.4,18.3 C 231.3,18.3 231.3,18.3 231.3,18.3 C 231.3,18.2 231.3,18.2 231.3,18.1 C 231.3,18 231.3,17.8 231.3,17.7 C 231.3,17.7 231.3,17.6 231.3,17.6 C 231.3,17.6 231.2,17.6 231.2,17.6 C 231.2,17.6 231.1,17.6 231.1,17.6 C 231.1,17.5 231.1,17.5 231,17.5 C 231.1,17.5 231.1,17.4 231.1,17.4 C 231.2,17.4 231.2,17.4 231.3,17.3 C 231.3,17.3 231.3,17.3 231.3,17.3 C 231.3,17.3 231.3,17.3 231.3,17.2 C 231.3,17.1 231.3,17.1 231.3,17 C 231.3,16.9 231.3,16.8 231.3,16.7 C 231.3,16.6 231.3,16.5 231.3,16.4 C 231.4,16.4 231.4,16.3 231.3,16.3 C 231.3,16.3 231.3,16.3 231.3,16.2 C 231.3,16.2 231.3,16.2 231.3,16.2 C 231.4,16.2 231.4,16.2 231.4,16.1 C 231.4,16 231.4,15.9 231.4,15.9 C 231.4,15.8 231.4,15.7 231.4,15.7 C 231.4,15.6 231.4,15.6 231.4,15.6 C 231.4,15.5 231.4,15.5 231.5,15.5 C 231.5,15.5 231.5,15.5 231.5,15.5 C 231.5,15.5 231.6,15.6 231.6,15.6 C 231.6,15.7 231.6,15.7 231.6,15.8 C 231.6,15.8 231.6,15.9 231.6,15.9 C 231.6,15.9 231.6,15.9 231.7,15.9 C 231.7,15.9 231.8,15.8 231.8,15.8 C 231.9,15.7 232,15.6 232.2,15.5 C 232.3,15.4 232.5,15.3 232.7,15.3 C 232.7,15.3 232.7,15.3 232.7,15.3 C 232.7,15.3 232.7,15.3 232.7,15.3 C 232.7,15.3 232.7,15.3 232.7,15.3 C 232.7,15.4 232.6,15.4 232.6,15.4 C 232.6,15.4 232.6,15.4 232.6,15.4 C 232.6,15.4 232.5,15.5 232.5,15.5 C 232.5,15.5 232.5,15.5 232.5,15.5 C 232.5,15.6 232.4,15.6 232.4,15.6 C 232.4,15.6 232.3,15.7 232.2,15.7 C 232.2,15.8 232.2,15.8 232.1,15.8 C 232.1,15.9 232,15.9 231.9,16 C 231.8,16.1 231.7,16.2 231.7,16.3 H 231.6 C 231.6,16.3 231.6,16.4 231.6,16.4 C 231.6,16.6 231.6,16.8 231.5,17 C 231.5,17 231.5,17.1 231.5,17.1 C 231.5,17.1 231.6,17.2 231.6,17.2 C 231.6,17.2 231.6,17.2 231.6,17.2 C 231.8,17.1 231.9,17 232.1,17 C 232.2,17 232.3,16.9 232.4,16.9 C 232.4,16.9 232.5,16.9 232.5,16.8 C 232.6,16.8 232.7,16.8 232.8,16.7 C 232.8,16.7 232.8,16.8 232.8,16.8 C 232.8,16.8 232.8,16.9 232.7,16.9 C 232.7,16.9 232.7,16.9 232.7,16.9 C 232.7,16.9 232.6,17 232.6,17 C 232.5,17 232.4,17.1 232.3,17.1 C 232.3,17.1 232.2,17.1 232.2,17.1 C 232.1,17.2 232.1,17.2 232,17.2 C 231.9,17.3 231.7,17.3 231.6,17.4 V 17.4 C 231.5,17.4 231.5,17.5 231.5,17.5 V 17.6 C 231.5,17.8 231.5,17.9 231.6,18 C 231.6,18.1 231.6,18.1 231.6,18.2 C 231.6,18.2 231.6,18.2 231.6,18.2 C 231.6,18.2 231.6,18.3 231.6,18.3 C 231.6,18.3 231.7,18.3 231.7,18.3 C 231.8,18.3 231.9,18.3 232,18.2 H 232.1 C 232.2,18.1 232.3,18.1 232.4,18 C 232.6,18 232.7,17.9 232.9,17.8 C 232.9,17.8 233,17.7 233,17.7 C 233.1,17.7 233,17.8 233.1,17.8 C 233,17.8 233,17.9 233,17.9 C 233,17.9 232.9,17.9 232.9,18 C 232.9,18 232.8,18 232.8,18 V 18 C 232.7,18.1 232.6,18.1 232.6,18.2 L 232.3,18.3 L 232.2,18.4 C 232.1,18.4 232,18.4 231.9,18.5 C 231.7,18.5 231.6,18.4 231.5,18.4" />
  <path
     inkscape:connector-curvature="0"
     id="path1868"
     style="fill:#8a8a8d;fill-opacity:1;fill-rule:nonzero;stroke:none;stroke-width:0.29;stroke-miterlimit:4;stroke-dasharray:none"
     d="M 233.4,18.1 C 233.4,18.1 233.4,18 233.4,18 C 233.4,17.9 233.4,17.8 233.4,17.7 C 233.3,17.5 233.3,17.3 233.3,17.1 V 17 C 233.3,16.8 233.3,16.5 233.3,16.3 C 233.3,16.2 233.3,16.1 233.3,16 L 233.4,15.7 C 233.4,15.6 233.4,15.6 233.4,15.6 C 233.4,15.5 233.4,15.5 233.4,15.4 C 233.4,15.4 233.4,15.4 233.4,15.4 C 233.5,15.4 233.6,15.4 233.6,15.5 C 233.6,15.5 233.6,15.5 233.6,15.6 C 233.6,15.7 233.6,15.9 233.6,16 C 233.6,16.2 233.6,16.3 233.6,16.5 C 233.5,16.6 233.5,16.8 233.5,16.9 C 233.5,17 233.5,17.1 233.5,17.2 C 233.5,17.3 233.5,17.4 233.5,17.5 C 233.5,17.6 233.5,17.7 233.5,17.8 C 233.5,17.8 233.5,17.8 233.5,17.9 C 233.5,17.9 233.5,17.9 233.5,17.9 C 233.5,18 233.5,18 233.5,18 C 233.5,18 233.5,18.1 233.5,18.1 C 233.4,18.1 233.4,18.1 233.4,18.1" />
  <path
     inkscape:connector-curvature="0"
     id="path1872"
     style="fill:#8a8a8d;fill-opacity:1;fill-rule:nonzero;stroke:none;stroke-width:0.29;stroke-miterlimit:4;stroke-dasharray:none"
     d="M 234.3,18.6 C 234.3,18.6 234.3,18.6 234.3,18.6 C 234.3,18.6 234.3,18.5 234.3,18.5 C 234.4,18.5 234.4,18.5 234.5,18.5 C 234.6,18.4 234.6,18.3 234.7,18.1 C 234.7,18.1 234.7,18 234.8,18 C 234.8,17.8 234.9,17.7 235,17.5 C 235,17.4 235,17.3 235.1,17.2 C 235.1,17 235.2,16.8 235.2,16.6 C 235.2,16.5 235.2,16.5 235.2,16.4 C 235.2,16.4 235.2,16.3 235.2,16.4 C 235.1,16.4 235.1,16.4 235,16.4 C 234.9,16.5 234.9,16.6 234.8,16.6 L 234.5,16.9 C 234.4,16.9 234.4,17 234.3,17 C 234.3,17.1 234.2,17.1 234.1,17.1 C 234.1,17.1 234,17.1 234,17.1 C 234,17 233.9,17 234,17 C 234,17 234,16.9 234,16.9 C 234,16.7 234.1,16.6 234.1,16.4 C 234.2,16.2 234.2,16 234.3,15.9 C 234.3,15.7 234.4,15.5 234.5,15.4 C 234.5,15.3 234.6,15.1 234.7,15.1 C 234.7,15 234.8,15 234.8,14.9 C 234.9,14.9 234.9,14.9 234.9,14.9 C 235,15 235,15 235.1,15.1 C 235.1,15.1 235.1,15.2 235.1,15.2 C 235.1,15.2 235.1,15.3 235.1,15.3 V 15.3 C 235.1,15.4 235.1,15.4 235.1,15.4 C 235.1,15.4 235.1,15.5 235.1,15.5 V 15.6 C 235,15.5 235,15.5 235,15.5 C 235,15.5 235,15.5 235,15.4 C 235,15.4 235,15.4 235,15.3 C 235,15.3 235,15.2 235,15.1 C 234.9,15.1 234.9,15.1 234.9,15.1 C 234.8,15.1 234.8,15.2 234.8,15.2 C 234.7,15.3 234.7,15.4 234.7,15.4 C 234.6,15.5 234.6,15.6 234.6,15.6 C 234.5,15.8 234.5,15.9 234.4,16 C 234.4,16.2 234.3,16.4 234.3,16.6 C 234.2,16.7 234.2,16.7 234.2,16.8 C 234.2,16.8 234.2,16.8 234.2,16.9 C 234.2,16.8 234.3,16.8 234.3,16.8 C 234.4,16.7 234.4,16.7 234.5,16.6 C 234.5,16.6 234.6,16.6 234.6,16.6 C 234.6,16.5 234.7,16.5 234.7,16.4 C 234.8,16.3 234.9,16.3 235,16.2 C 235.1,16.2 235.2,16.2 235.3,16.2 C 235.3,16.2 235.3,16.2 235.4,16.3 C 235.4,16.3 235.5,16.3 235.5,16.4 C 235.5,16.5 235.5,16.6 235.5,16.7 C 235.4,16.8 235.4,17 235.3,17.1 C 235.3,17.3 235.2,17.5 235.2,17.7 C 235.1,17.7 235.1,17.8 235.1,17.8 C 235.1,17.8 235.1,17.9 235,17.9 V 18 C 234.9,18.1 234.9,18.2 234.8,18.3 C 234.8,18.4 234.8,18.4 234.8,18.4 C 234.7,18.5 234.7,18.5 234.6,18.6 C 234.6,18.6 234.5,18.6 234.5,18.7 C 234.4,18.7 234.4,18.7 234.3,18.6" />
  <path
     inkscape:connector-curvature="0"
     id="path1876"
     style="fill:#8a8a8d;fill-opacity:1;fill-rule:nonzero;stroke:none;stroke-width:0.29;stroke-miterlimit:4;stroke-dasharray:none"
     d="M 235.9,18.6 C 235.9,18.6 236,18.5 236.1,18.4 C 236.2,18.3 236.3,18.2 236.4,18 C 236.5,17.9 236.5,17.7 236.6,17.6 C 236.7,17.5 236.7,17.4 236.8,17.3 C 236.8,17.2 236.9,17.1 237,16.9 L 237.1,16.8 C 237.1,16.7 237.2,16.5 237.2,16.4 C 237.2,16.3 237.3,16.1 237.2,15.9 C 237.2,15.8 237.2,15.7 237.1,15.6 C 237.1,15.5 237,15.5 237,15.4 C 237,15.4 236.9,15.4 236.9,15.4 V 15.3 C 236.9,15.3 236.8,15.3 236.8,15.3 C 236.8,15.3 236.8,15.2 236.8,15.2 C 236.8,15.2 236.9,15.2 236.9,15.2 C 236.9,15.2 237,15.2 237,15.2 C 237.1,15.3 237.2,15.4 237.3,15.5 C 237.3,15.6 237.3,15.7 237.4,15.7 C 237.4,15.8 237.4,15.9 237.5,16.1 C 237.5,16.2 237.4,16.3 237.4,16.5 C 237.4,16.5 237.4,16.6 237.3,16.7 C 237.3,16.8 237.2,16.9 237.2,17 C 237.1,17.2 237,17.4 236.8,17.6 C 236.8,17.8 236.7,17.9 236.6,18 C 236.5,18.1 236.5,18.2 236.4,18.2 C 236.4,18.3 236.3,18.4 236.3,18.4 C 236.2,18.5 236.1,18.6 236.1,18.6 C 236.1,18.6 236.1,18.6 236,18.6 C 236,18.6 236,18.7 236,18.7 C 235.9,18.7 235.9,18.7 235.8,18.7 C 235.8,18.7 235.8,18.7 235.9,18.6" />
  <path
     inkscape:connector-curvature="0"
     id="path1880"
     style="fill:#8a8a8d;fill-opacity:1;fill-rule:nonzero;stroke:none;stroke-width:0.29;stroke-miterlimit:4;stroke-dasharray:none"
     d="M 234.3,14.5 C 234.2,14.5 234,14.5 233.9,14.4 C 233.9,14.4 233.9,14.4 233.9,14.4 C 233.9,14.4 233.9,14.4 233.9,14.4 C 233.9,14.4 233.9,14.3 233.9,14.3 C 234,14.3 234,14.3 234.1,14.3 C 234.3,14.3 234.7,14.3 234.8,14.3 C 235.1,14.3 235.4,14.3 235.5,14.3 H 235.8 C 235.9,14.3 235.9,14.3 236,14.3 C 236,14.3 236,14.3 236,14.4 C 236,14.4 236,14.4 236,14.4 C 236,14.4 236,14.4 236,14.4 H 235.9 C 235.8,14.5 235.5,14.5 235.1,14.5 H 234.8 C 234.8,14.5 234.5,14.5 234.3,14.5" />
  <path
     inkscape:connector-curvature="0"
     id="path1884"
     style="fill:#8a8a8d;fill-opacity:1;fill-rule:nonzero;stroke:none;stroke-width:0.29;stroke-miterlimit:4;stroke-dasharray:none"
     d="M 226.7,13.3 H 229.6 L 232.4,13.2 C 233.4,13.2 234.3,13.2 235.3,13.2 C 236.2,13.2 237.2,13.2 238.1,13.3 V 13.3 C 237.2,13.4 236.2,13.4 235.3,13.5 C 234.3,13.5 233.4,13.4 232.4,13.4 H 229.6 Z" />
  <path
     inkscape:connector-curvature="0"
     id="path1888"
     style="fill:#8a8a8d;fill-opacity:1;fill-rule:nonzero;stroke:none;stroke-width:0.29;stroke-miterlimit:4;stroke-dasharray:none"
     d="M 218.5,24.7 C 218.5,24.6 218.5,24.6 218.5,24.6 C 218.5,24.6 218.5,24.5 218.5,24.5 C 218.6,24.5 218.6,24.5 218.7,24.5 C 218.7,24.4 218.8,24.3 218.9,24.2 C 218.9,24.1 218.9,24.1 219,24 C 219,23.9 219.1,23.7 219.1,23.6 C 219.2,23.4 219.2,23.3 219.3,23.2 C 219.3,23 219.4,22.8 219.4,22.6 C 219.4,22.6 219.4,22.5 219.4,22.4 C 219.4,22.4 219.4,22.4 219.3,22.4 C 219.3,22.4 219.2,22.4 219.2,22.5 C 219.1,22.5 219,22.6 219,22.6 L 218.7,22.9 C 218.6,23 218.6,23 218.5,23 C 218.5,23.1 218.4,23.1 218.3,23.1 C 218.3,23.1 218.2,23.1 218.2,23.1 C 218.1,23.1 218.1,23 218.1,23 C 218.1,23 218.2,22.9 218.2,22.9 C 218.2,22.7 218.2,22.6 218.3,22.4 C 218.3,22.2 218.4,22 218.5,21.9 C 218.5,21.7 218.6,21.5 218.6,21.4 C 218.7,21.3 218.8,21.2 218.9,21.1 C 218.9,21 219,21 219,21 C 219,20.9 219.1,20.9 219.1,21 C 219.2,21 219.2,21 219.3,21.1 C 219.3,21.1 219.3,21.2 219.3,21.2 C 219.3,21.3 219.3,21.3 219.3,21.3 V 21.4 C 219.3,21.4 219.3,21.4 219.3,21.4 C 219.3,21.4 219.3,21.5 219.3,21.6 H 219.2 C 219.2,21.6 219.2,21.5 219.2,21.5 C 219.2,21.5 219.2,21.5 219.2,21.4 C 219.2,21.4 219.2,21.4 219.2,21.4 C 219.2,21.3 219.2,21.2 219.2,21.1 C 219.1,21.1 219.1,21.1 219.1,21.1 C 219,21.2 219,21.2 219,21.2 C 218.9,21.3 218.9,21.4 218.9,21.4 C 218.8,21.5 218.8,21.6 218.8,21.6 C 218.7,21.8 218.7,21.9 218.6,22 C 218.6,22.2 218.5,22.4 218.4,22.6 C 218.4,22.7 218.4,22.8 218.4,22.8 C 218.4,22.8 218.4,22.8 218.4,22.9 C 218.4,22.9 218.5,22.8 218.5,22.8 C 218.6,22.7 218.6,22.7 218.7,22.6 C 218.7,22.6 218.7,22.6 218.8,22.6 C 218.8,22.5 218.9,22.5 218.9,22.4 C 219,22.3 219.1,22.3 219.2,22.2 C 219.3,22.2 219.4,22.2 219.4,22.2 C 219.5,22.2 219.5,22.2 219.6,22.3 C 219.6,22.3 219.6,22.4 219.6,22.4 C 219.6,22.5 219.7,22.6 219.6,22.7 C 219.6,22.8 219.6,23 219.5,23.1 C 219.5,23.3 219.4,23.5 219.4,23.7 C 219.3,23.7 219.3,23.8 219.3,23.8 C 219.3,23.9 219.3,23.9 219.2,23.9 V 24 C 219.1,24.1 219.1,24.2 219,24.3 C 219,24.4 219,24.4 218.9,24.4 C 218.9,24.5 218.9,24.5 218.8,24.6 C 218.8,24.6 218.7,24.6 218.7,24.7 C 218.6,24.7 218.6,24.7 218.5,24.7" />
  <path
     inkscape:connector-curvature="0"
     id="path1892"
     style="fill:#8a8a8d;fill-opacity:1;fill-rule:nonzero;stroke:none;stroke-width:0.29;stroke-miterlimit:4;stroke-dasharray:none"
     d="M 220,23.5 V 23.4 C 220,23.4 220,23.4 220,23.4 H 220.1 C 220.1,23.4 220.2,23.3 220.3,23.3 C 220.5,23.3 220.7,23.2 220.9,23.2 C 221,23.2 221.2,23.1 221.3,23.1 C 221.4,23.1 221.5,23.2 221.7,23.2 C 221.7,23.2 221.7,23.2 221.7,23.2 C 221.7,23.2 221.7,23.2 221.7,23.2 C 221.7,23.2 221.7,23.3 221.7,23.3 C 221.7,23.3 221.6,23.3 221.6,23.3 C 221.5,23.3 221.5,23.3 221.4,23.3 C 221.4,23.3 221.3,23.3 221.3,23.3 C 221.2,23.3 221.1,23.4 220.9,23.4 C 220.8,23.4 220.7,23.5 220.5,23.5 C 220.4,23.5 220.3,23.6 220.2,23.6 C 220.2,23.6 220.2,23.6 220.1,23.6 C 220.1,23.6 220.1,23.6 220,23.5 M 220.2,23 C 220.2,23 220.2,23 220.2,23 C 220.1,23 220.1,22.9 220.1,22.9 C 220.1,22.9 220.1,22.9 220.1,22.9 H 220.2 C 220.3,22.8 220.4,22.8 220.5,22.8 C 220.7,22.8 220.9,22.7 221.1,22.7 C 221.2,22.7 221.2,22.7 221.3,22.7 C 221.4,22.7 221.4,22.7 221.5,22.7 C 221.5,22.7 221.5,22.7 221.5,22.7 C 221.5,22.8 221.6,22.8 221.6,22.8 C 221.6,22.8 221.6,22.8 221.6,22.8 C 221.5,22.8 221.5,22.9 221.5,22.9 C 221.5,22.9 221.4,22.9 221.4,22.9 C 221.2,22.9 221.1,22.9 220.9,22.9 C 220.8,22.9 220.8,23 220.7,23 C 220.6,23 220.6,23 220.5,23 H 220.3 C 220.2,23 220.2,23 220.2,23" />
  <path
     inkscape:connector-curvature="0"
     id="path1896"
     style="fill:#8a8a8d;fill-opacity:1;fill-rule:nonzero;stroke:none;stroke-width:0.29;stroke-miterlimit:4;stroke-dasharray:none"
     d="M 222,24 C 222,24 222,24 222,24 C 222.1,24 222.2,24 222.3,23.9 C 222.3,23.9 222.3,23.9 222.3,23.9 C 222.4,23.8 222.4,23.8 222.4,23.7 C 222.4,23.7 222.4,23.6 222.4,23.5 C 222.4,23.4 222.3,23.4 222.3,23.3 C 222.3,23.2 222.3,23.2 222.3,23.1 C 222.3,23.1 222.2,23 222.3,22.9 C 222.3,22.8 222.3,22.7 222.4,22.7 C 222.4,22.6 222.4,22.6 222.5,22.6 C 222.5,22.6 222.5,22.6 222.5,22.6 C 222.6,22.6 222.7,22.7 222.7,22.8 C 222.7,22.8 222.7,22.8 222.7,22.8 C 222.7,22.8 222.7,22.8 222.7,22.9 C 222.7,22.9 222.6,22.9 222.6,22.9 C 222.6,22.9 222.6,22.8 222.5,22.7 C 222.5,22.8 222.5,22.8 222.5,22.8 C 222.5,23 222.5,23.2 222.6,23.4 C 222.6,23.4 222.6,23.5 222.6,23.6 C 222.7,23.7 222.6,23.9 222.4,24 C 222.4,24 222.4,24 222.3,24.1 C 222.3,24.1 222.3,24.1 222.3,24.1 C 222.3,24.1 222.2,24.1 222.2,24.1 C 222.1,24.1 222.1,24.1 222,24" />
  <path
     inkscape:connector-curvature="0"
     id="path1900"
     style="fill:#8a8a8d;fill-opacity:1;fill-rule:nonzero;stroke:none;stroke-width:0.29;stroke-miterlimit:4;stroke-dasharray:none"
     d="M 223,23.8 C 223,23.7 223,23.7 223,23.6 C 223,23.5 223.1,23.4 223.1,23.3 C 223.1,23.2 223.1,23.1 223.2,23 C 223.2,22.8 223.2,22.7 223.3,22.6 C 223.3,22.6 223.3,22.5 223.3,22.5 C 223.4,22.4 223.5,22.3 223.6,22.4 C 223.7,22.4 223.7,22.4 223.7,22.5 C 223.8,22.5 223.8,22.5 223.8,22.5 C 223.9,22.5 224,22.6 224,22.6 C 224,22.6 224,22.7 224,22.7 C 224,22.8 224,22.9 224,23 C 224,23 224,23.1 224,23.2 C 224,23.3 224,23.5 224,23.6 C 223.9,23.6 223.9,23.7 223.9,23.7 C 223.9,23.7 223.9,23.7 223.9,23.8 C 223.9,23.8 223.9,23.8 223.9,23.8 C 223.8,23.8 223.8,23.8 223.8,23.8 C 223.8,23.8 223.8,23.8 223.7,23.7 C 223.7,23.7 223.7,23.7 223.7,23.7 C 223.7,23.6 223.7,23.5 223.7,23.4 C 223.7,23.3 223.7,23.2 223.7,23.1 V 23.1 C 223.7,23.1 223.7,23.1 223.7,23.1 C 223.7,23.2 223.7,23.2 223.6,23.3 C 223.6,23.3 223.6,23.4 223.6,23.4 C 223.5,23.5 223.5,23.6 223.5,23.7 C 223.4,23.8 223.4,23.8 223.3,23.9 C 223.3,24 223.2,24 223.1,23.9 C 223,23.9 223,23.8 223,23.7 M 223.3,23.4 C 223.4,23.3 223.4,23.2 223.4,23.1 C 223.5,23 223.5,22.9 223.6,22.8 C 223.6,22.8 223.6,22.6 223.6,22.5 C 223.5,22.6 223.5,22.6 223.5,22.6 C 223.5,22.6 223.5,22.6 223.5,22.6 C 223.5,22.8 223.4,22.9 223.4,23 C 223.4,23.1 223.3,23.3 223.3,23.4 C 223.3,23.4 223.3,23.4 223.3,23.5 C 223.3,23.4 223.3,23.4 223.3,23.4" />
  <path
     inkscape:connector-curvature="0"
     id="path1904"
     style="fill:#8a8a8d;fill-opacity:1;fill-rule:nonzero;stroke:none;stroke-width:0.29;stroke-miterlimit:4;stroke-dasharray:none"
     d="M 225.3,23.6 C 225.3,23.6 225.3,23.5 225.3,23.4 C 225.3,23.4 225.3,23.3 225.3,23.3 C 225.3,23.3 225.3,23.2 225.2,23.2 C 225.2,23.2 225.2,23.2 225.2,23.2 C 225.2,23.3 225.2,23.3 225.2,23.4 C 225.1,23.4 225.1,23.4 225.1,23.4 C 225,23.4 225,23.4 224.9,23.3 C 224.9,23.3 224.9,23.3 224.9,23.2 C 224.9,23.1 224.9,23.1 224.9,23 C 224.9,23 224.9,22.9 224.9,22.9 C 224.9,22.9 224.9,22.8 224.9,22.8 C 224.9,22.8 224.9,22.8 224.9,22.9 C 224.8,23 224.8,23.1 224.7,23.2 V 23.4 C 224.6,23.5 224.6,23.5 224.6,23.5 C 224.6,23.6 224.5,23.6 224.5,23.6 C 224.5,23.6 224.4,23.5 224.4,23.5 C 224.4,23.5 224.4,23.5 224.4,23.5 C 224.4,23.5 224.4,23.4 224.4,23.4 C 224.4,23.3 224.4,23.3 224.4,23.2 C 224.4,23 224.4,22.9 224.4,22.8 C 224.4,22.7 224.4,22.6 224.4,22.5 C 224.4,22.5 224.4,22.4 224.4,22.4 C 224.4,22.4 224.4,22.4 224.4,22.4 C 224.4,22.4 224.4,22.3 224.5,22.3 C 224.5,22.3 224.5,22.3 224.6,22.3 C 224.6,22.3 224.6,22.4 224.6,22.4 C 224.6,22.4 224.6,22.5 224.6,22.5 V 22.7 C 224.6,22.7 224.6,22.7 224.6,22.7 C 224.7,22.7 224.7,22.7 224.7,22.7 C 224.7,22.6 224.8,22.6 224.8,22.6 C 224.9,22.5 225,22.5 225,22.5 C 225.1,22.6 225.1,22.6 225.1,22.6 C 225.1,22.7 225.1,22.7 225.1,22.8 C 225.1,22.8 225.1,22.8 225.2,22.9 C 225.2,22.9 225.2,22.9 225.2,22.8 C 225.2,22.8 225.3,22.8 225.3,22.8 C 225.4,22.8 225.4,22.8 225.4,22.9 C 225.4,22.9 225.5,22.9 225.5,23 C 225.5,23.1 225.5,23.1 225.5,23.2 C 225.5,23.3 225.5,23.4 225.5,23.4 C 225.5,23.4 225.5,23.5 225.5,23.5 C 225.5,23.5 225.5,23.6 225.4,23.6 V 23.7 C 225.4,23.7 225.4,23.6 225.3,23.6" />
  <path
     inkscape:connector-curvature="0"
     id="path1908"
     style="fill:#8a8a8d;fill-opacity:1;fill-rule:nonzero;stroke:none;stroke-width:0.29;stroke-miterlimit:4;stroke-dasharray:none"
     d="M 225.9,23.9 C 225.8,23.8 225.8,23.8 225.8,23.7 C 225.9,23.5 225.9,23.3 226,23.1 V 23.1 C 226,23 226.1,22.8 226.2,22.7 C 226.2,22.6 226.2,22.6 226.3,22.5 C 226.3,22.5 226.4,22.5 226.4,22.4 C 226.5,22.4 226.6,22.4 226.7,22.5 C 226.7,22.6 226.7,22.6 226.7,22.6 C 226.7,22.7 226.7,22.7 226.7,22.8 C 226.6,23 226.5,23.1 226.4,23.3 C 226.3,23.3 226.3,23.3 226.2,23.3 C 226.2,23.3 226.2,23.4 226.1,23.4 C 226.1,23.5 226.1,23.6 226.1,23.7 C 226.1,23.7 226,23.8 226.1,23.8 C 226.1,23.8 226.1,23.8 226.1,23.8 C 226.1,23.8 226.1,23.8 226.1,23.8 C 226.2,23.8 226.2,23.8 226.3,23.8 C 226.4,23.7 226.4,23.7 226.5,23.6 V 23.6 C 226.6,23.6 226.6,23.5 226.6,23.5 C 226.6,23.5 226.6,23.5 226.6,23.5 L 226.7,23.4 C 226.7,23.4 226.7,23.4 226.7,23.4 C 226.7,23.4 226.7,23.4 226.7,23.4 V 23.4 C 226.7,23.4 226.7,23.4 226.7,23.4 C 226.7,23.4 226.7,23.4 226.7,23.4 V 23.5 C 226.7,23.5 226.7,23.5 226.7,23.6 C 226.6,23.7 226.6,23.7 226.5,23.8 C 226.4,23.9 226.3,24 226.2,24 C 226.1,24 225.9,24 225.9,23.9 M 226.5,22.8 C 226.5,22.7 226.5,22.7 226.5,22.7 C 226.5,22.7 226.4,22.7 226.4,22.7 L 226.3,23 C 226.3,23 226.3,23 226.3,23.1 C 226.3,23 226.4,22.9 226.5,22.8" />
  <path
     inkscape:connector-curvature="0"
     id="path1912"
     style="fill:#8a8a8d;fill-opacity:1;fill-rule:nonzero;stroke:none;stroke-width:0.29;stroke-miterlimit:4;stroke-dasharray:none"
     d="M 228.2,24 C 228.2,24 228.2,24 228.2,24 C 228.3,24 228.4,24 228.5,23.9 C 228.5,23.9 228.6,23.9 228.6,23.9 C 228.6,23.8 228.7,23.8 228.7,23.7 C 228.7,23.7 228.7,23.6 228.6,23.5 C 228.6,23.4 228.6,23.4 228.6,23.3 C 228.5,23.2 228.5,23.2 228.5,23.1 C 228.5,23.1 228.5,23 228.5,22.9 C 228.5,22.8 228.6,22.7 228.6,22.7 C 228.6,22.6 228.7,22.6 228.7,22.6 C 228.7,22.6 228.8,22.6 228.8,22.6 C 228.9,22.6 228.9,22.7 229,22.8 C 229,22.8 229,22.8 229,22.8 C 229,22.8 228.9,22.8 228.9,22.9 C 228.9,22.9 228.9,22.9 228.9,22.9 C 228.8,22.9 228.8,22.8 228.8,22.7 C 228.8,22.8 228.7,22.8 228.7,22.8 C 228.7,23 228.7,23.2 228.8,23.4 C 228.9,23.4 228.9,23.5 228.9,23.6 C 229,23.7 228.9,23.9 228.7,24 C 228.7,24 228.6,24 228.6,24.1 C 228.6,24.1 228.6,24.1 228.5,24.1 C 228.5,24.1 228.5,24.1 228.4,24.1 C 228.4,24.1 228.3,24.1 228.2,24" />
  <path
     inkscape:connector-curvature="0"
     id="path1916"
     style="fill:#8a8a8d;fill-opacity:1;fill-rule:nonzero;stroke:none;stroke-width:0.29;stroke-miterlimit:4;stroke-dasharray:none"
     d="M 229.4,24 C 229.4,24 229.3,23.9 229.3,23.9 C 229.3,23.8 229.3,23.7 229.3,23.6 C 229.3,23.5 229.3,23.4 229.3,23.3 C 229.3,23.2 229.3,23.2 229.4,23.1 C 229.4,23 229.4,23 229.4,22.9 C 229.5,22.9 229.5,22.8 229.6,22.8 C 229.7,22.8 229.8,22.7 229.8,22.7 C 229.8,22.6 229.8,22.6 229.9,22.6 C 229.9,22.6 229.9,22.6 229.9,22.6 C 229.9,22.6 230,22.6 230.1,22.6 C 230.1,22.6 230.1,22.6 230.1,22.6 C 230.2,22.7 230.2,22.8 230.2,22.9 C 230.2,22.9 230.2,22.9 230.2,22.9 C 230.2,23.1 230.2,23.2 230.2,23.3 C 230.1,23.4 230.1,23.5 230,23.6 C 230,23.7 229.9,23.8 229.8,23.9 C 229.8,24 229.7,24 229.7,24.1 C 229.6,24.1 229.5,24.1 229.4,24 M 229.6,23.9 C 229.6,23.8 229.7,23.8 229.7,23.7 C 229.8,23.6 229.9,23.4 229.9,23.3 C 230,23.2 230,23.2 230,23.1 C 230,23.1 230,23 230,22.9 C 230,22.9 230,22.9 230,22.8 C 230,22.8 230,22.8 230,22.8 C 229.9,22.8 229.9,22.8 229.9,22.8 C 229.9,22.9 229.9,22.9 229.8,23 C 229.8,23 229.8,23.1 229.7,23.1 C 229.7,23.2 229.7,23.2 229.7,23.2 C 229.7,23.3 229.7,23.3 229.6,23.3 C 229.6,23.4 229.6,23.4 229.6,23.5 C 229.5,23.5 229.5,23.5 229.5,23.6 V 23.8 C 229.5,23.8 229.5,23.8 229.5,23.9 C 229.5,23.9 229.6,23.9 229.6,23.9" />
  <path
     inkscape:connector-curvature="0"
     id="path1920"
     style="fill:#8a8a8d;fill-opacity:1;fill-rule:nonzero;stroke:none;stroke-width:0.29;stroke-miterlimit:4;stroke-dasharray:none"
     d="M 230.7,23.7 C 230.7,23.7 230.7,23.6 230.7,23.5 C 230.6,23.3 230.6,23.2 230.6,23 C 230.6,22.9 230.6,22.8 230.6,22.7 C 230.6,22.7 230.6,22.6 230.6,22.6 C 230.6,22.6 230.6,22.6 230.6,22.6 C 230.7,22.6 230.7,22.6 230.7,22.6 C 230.7,22.7 230.7,22.8 230.8,22.8 C 230.8,22.9 230.8,22.9 230.8,23 C 230.8,23.1 230.8,23.2 230.9,23.3 C 230.9,23.4 230.9,23.5 230.9,23.6 C 230.9,23.6 230.9,23.6 230.9,23.6 C 231,23.6 231,23.5 231,23.5 C 231,23.5 231,23.4 231.1,23.3 V 23.2 C 231.1,23.1 231.2,23.1 231.2,23 C 231.2,22.9 231.2,22.8 231.3,22.7 C 231.3,22.7 231.3,22.6 231.3,22.6 C 231.3,22.6 231.4,22.5 231.4,22.5 V 22.6 C 231.4,22.6 231.4,22.6 231.4,22.6 C 231.4,22.7 231.4,22.7 231.4,22.7 C 231.4,22.8 231.4,22.8 231.4,22.9 C 231.4,22.9 231.4,22.9 231.4,22.9 C 231.4,23 231.4,23.1 231.4,23.1 C 231.3,23.3 231.3,23.4 231.3,23.5 C 231.3,23.5 231.2,23.6 231.2,23.6 C 231.2,23.7 231.1,23.8 231.1,23.8 C 231,23.9 231,23.9 230.9,23.9 C 230.8,23.8 230.8,23.8 230.7,23.7" />
  <path
     inkscape:connector-curvature="0"
     id="path1924"
     style="fill:#8a8a8d;fill-opacity:1;fill-rule:nonzero;stroke:none;stroke-width:0.29;stroke-miterlimit:4;stroke-dasharray:none"
     d="M 231.9,24 C 231.9,24 231.8,24 231.8,23.9 C 231.8,23.9 231.8,23.9 231.8,23.8 C 231.8,23.7 231.8,23.6 231.8,23.5 C 231.8,23.4 231.8,23.3 231.8,23.2 V 22.9 C 231.8,22.8 231.8,22.8 231.8,22.8 C 231.8,22.8 231.8,22.7 231.8,22.7 C 231.8,22.6 231.8,22.6 231.9,22.6 C 231.9,22.6 231.9,22.7 231.9,22.7 C 232,22.7 232,22.7 232,22.8 C 232,22.8 232,22.9 232,22.9 C 232,22.9 232,23 232,23 C 232,23 232.1,23 232.1,23 C 232.1,22.9 232.1,22.9 232.1,22.9 C 232.2,22.8 232.2,22.7 232.3,22.6 C 232.4,22.5 232.4,22.5 232.4,22.5 C 232.4,22.5 232.4,22.5 232.4,22.5 C 232.5,22.5 232.5,22.5 232.5,22.5 C 232.6,22.5 232.6,22.6 232.5,22.6 C 232.5,22.7 232.4,22.7 232.4,22.8 C 232.4,22.9 232.3,22.9 232.3,22.9 C 232.2,23.1 232.2,23.3 232.1,23.5 C 232.1,23.7 232.1,23.8 232.1,23.9 C 232.1,23.9 232.1,24 232.1,24 C 232,24 232,24 232,24 C 232,24 231.9,24 231.9,24" />
  <path
     inkscape:connector-curvature="0"
     id="path1928"
     style="fill:#8a8a8d;fill-opacity:1;fill-rule:nonzero;stroke:none;stroke-width:0.29;stroke-miterlimit:4;stroke-dasharray:none"
     d="M 232.9,23.8 C 232.9,23.8 232.8,23.7 232.8,23.7 C 232.8,23.6 232.8,23.6 232.8,23.5 C 232.8,23.5 232.8,23.5 232.8,23.5 C 232.8,23.4 232.8,23.4 232.8,23.4 C 232.8,23.3 232.8,23.2 232.8,23.2 C 232.9,23.2 232.9,23.2 232.9,23.1 C 232.9,23.1 232.9,23 232.9,22.9 C 232.9,22.9 233,22.8 233,22.8 C 233,22.7 233,22.7 233,22.6 C 233.1,22.5 233.1,22.5 233.2,22.4 C 233.3,22.4 233.4,22.4 233.5,22.4 C 233.5,22.5 233.5,22.5 233.5,22.5 C 233.5,22.5 233.5,22.6 233.4,22.6 C 233.4,22.6 233.4,22.6 233.4,22.6 C 233.3,22.6 233.3,22.7 233.3,22.7 C 233.2,22.9 233.1,23.1 233.1,23.3 C 233.1,23.3 233.1,23.4 233,23.5 C 233,23.5 233,23.6 233,23.6 C 233,23.6 233,23.6 233,23.7 H 233.1 C 233.1,23.7 233.1,23.7 233.1,23.7 C 233.2,23.6 233.2,23.6 233.3,23.6 C 233.4,23.5 233.4,23.4 233.5,23.4 C 233.5,23.4 233.5,23.4 233.5,23.4 C 233.6,23.4 233.5,23.4 233.5,23.4 C 233.5,23.4 233.5,23.5 233.5,23.5 C 233.5,23.6 233.4,23.6 233.4,23.7 C 233.4,23.7 233.4,23.7 233.4,23.7 C 233.4,23.7 233.3,23.8 233.3,23.8 C 233.2,23.8 233.2,23.8 233.2,23.8 C 233.1,23.9 233.1,23.9 233,23.9 C 233,23.8 232.9,23.8 232.9,23.8" />
  <path
     inkscape:connector-curvature="0"
     id="path1932"
     style="fill:#8a8a8d;fill-opacity:1;fill-rule:nonzero;stroke:none;stroke-width:0.29;stroke-miterlimit:4;stroke-dasharray:none"
     d="M 233.9,23.9 C 233.8,23.8 233.8,23.8 233.8,23.7 C 233.9,23.5 233.9,23.3 234,23.1 V 23.1 C 234,23 234.1,22.8 234.2,22.7 C 234.2,22.6 234.2,22.6 234.3,22.5 C 234.3,22.5 234.4,22.5 234.4,22.4 C 234.5,22.4 234.6,22.4 234.7,22.5 C 234.7,22.6 234.7,22.6 234.7,22.6 C 234.7,22.7 234.7,22.7 234.7,22.8 C 234.6,23 234.5,23.1 234.4,23.3 C 234.3,23.3 234.3,23.3 234.2,23.3 C 234.2,23.3 234.2,23.4 234.2,23.4 C 234.1,23.5 234.1,23.6 234.1,23.7 C 234.1,23.7 234.1,23.8 234.1,23.8 C 234.1,23.8 234.1,23.8 234.1,23.8 C 234.1,23.8 234.1,23.8 234.1,23.8 C 234.2,23.8 234.2,23.8 234.3,23.8 C 234.4,23.7 234.4,23.7 234.5,23.6 H 234.6 C 234.6,23.6 234.6,23.5 234.6,23.5 C 234.6,23.5 234.6,23.5 234.6,23.5 L 234.7,23.4 C 234.7,23.4 234.7,23.4 234.7,23.4 C 234.7,23.4 234.7,23.4 234.7,23.4 H 234.8 C 234.8,23.4 234.8,23.4 234.8,23.4 C 234.8,23.4 234.8,23.4 234.8,23.4 L 234.7,23.5 C 234.7,23.5 234.7,23.5 234.7,23.6 C 234.6,23.7 234.6,23.7 234.5,23.8 C 234.4,23.9 234.3,24 234.2,24 C 234.1,24 234,24 233.9,23.9 M 234.5,22.8 C 234.5,22.7 234.5,22.7 234.5,22.7 C 234.5,22.7 234.5,22.7 234.4,22.7 L 234.3,23 C 234.3,23 234.3,23 234.3,23.1 C 234.3,23 234.4,22.9 234.5,22.8" />
  <path
     inkscape:connector-curvature="0"
     id="path2112"
     style="opacity:0.3;fill:#8a8a8d;fill-opacity:1;fill-rule:nonzero;stroke:none;stroke-width:0.29;stroke-miterlimit:4;stroke-dasharray:none"
     d="M 189.2,171.7 V 171.7 H 197.7 V 180.2 H 189.2 Z" />
  <path
     inkscape:connector-curvature="0"
     id="path2108"
     style="opacity:0.7;fill:#8a8a8d;fill-opacity:1;fill-rule:nonzero;stroke:none;stroke-width:0.29;stroke-miterlimit:4;stroke-dasharray:none"
     d="M 197.7,171.7 V 171.7 H 206.2 V 180.2 H 197.7 Z" />
  <path
     d="M 189.2,163.2 H 197.7 V 171.7 H 189.2 Z"
     style="opacity:0.9;fill:#8a8a8d;fill-opacity:1;fill-rule:nonzero;stroke:none;stroke-width:0.29;stroke-miterlimit:4;stroke-dasharray:none"
     id="path2104"
     inkscape:connector-curvature="0" />
  <path
     inkscape:connector-curvature="0"
     id="path2102"
     style="opacity:0.4;fill:#8a8a8d;fill-opacity:1;fill-rule:nonzero;stroke:none;stroke-width:0.29;stroke-miterlimit:4;stroke-dasharray:none"
     d="M 197.7,163.2 V 163.2 H 206.2 V 171.7 H 197.7 Z" />
  <path
     inkscape:connector-curvature="0"
     id="path2098"
     style="opacity:0.2;fill:#8a8a8d;fill-opacity:1;fill-rule:nonzero;stroke:none;stroke-width:0.29;stroke-miterlimit:4;stroke-dasharray:none"
     d="M 206.2,163.2 V 163.2 H 214.7 V 171.7 H 206.2 Z" />
  <path
     d="M 197.7,154.6 H 206.2 V 163.2 H 197.7 Z"
     style="opacity:0.6;fill:#8a8a8d;fill-opacity:1;fill-rule:nonzero;stroke:none;stroke-width:0.29;stroke-miterlimit:4;stroke-dasharray:none"
     id="path2094"
     inkscape:connector-curvature="0" />
  <path
     inkscape:connector-curvature="0"
     id="path2092"
     style="opacity:0.7;fill:#8a8a8d;fill-opacity:1;fill-rule:nonzero;stroke:none;stroke-width:0.29;stroke-miterlimit:4;stroke-dasharray:none"
     d="M 206.2,154.6 V 154.6 H 214.7 V 163.2 H 206.2 Z" />
  <path
     inkscape:connector-curvature="0"
     id="path2088"
     style="opacity:0.3;fill:#8a8a8d;fill-opacity:1;fill-rule:nonzero;stroke:none;stroke-width:0.29;stroke-miterlimit:4;stroke-dasharray:none"
     d="M 214.7,154.6 V 154.6 H 223.2 V 163.2 H 214.7 Z" />
  <path
     d="M 206.2,146.1 H 214.7 V 154.6 H 206.2 Z"
     style="opacity:0.2;fill:#8a8a8d;fill-opacity:1;fill-rule:nonzero;stroke:none;stroke-width:0.29;stroke-miterlimit:4;stroke-dasharray:none"
     id="path2084"
     inkscape:connector-curvature="0" />
  <path
     inkscape:connector-curvature="0"
     id="path2082"
     style="opacity:0.8;fill:#8a8a8d;fill-opacity:1;fill-rule:nonzero;stroke:none;stroke-width:0.29;stroke-miterlimit:4;stroke-dasharray:none"
     d="M 214.7,146.1 V 146.1 H 223.2 V 154.6 H 214.7 Z" />
  <path
     inkscape:connector-curvature="0"
     id="path2078"
     style="opacity:0.5;fill:#8a8a8d;fill-opacity:1;fill-rule:nonzero;stroke:none;stroke-width:0.29;stroke-miterlimit:4;stroke-dasharray:none"
     d="M 223.2,146.1 V 146.1 H 231.7 V 154.6 H 223.2 Z" />
  <path
     d="M 214.7,137.6 H 223.2 V 146.1 H 214.7 Z"
     style="opacity:0.6;fill:#8a8a8d;fill-opacity:1;fill-rule:nonzero;stroke:none;stroke-width:0.29;stroke-miterlimit:4;stroke-dasharray:none"
     id="path2074"
     inkscape:connector-curvature="0" />
  <path
     inkscape:connector-curvature="0"
     id="path2072"
     style="opacity:0.9;fill:#8a8a8d;fill-opacity:1;fill-rule:nonzero;stroke:none;stroke-width:0.29;stroke-miterlimit:4;stroke-dasharray:none"
     d="M 223.2,137.6 V 137.6 H 231.7 V 146.1 H 223.2 Z" />
  <path
     inkscape:connector-curvature="0"
     id="path2068"
     style="opacity:0.3;fill:#8a8a8d;fill-opacity:1;fill-rule:nonzero;stroke:none;stroke-width:0.29;stroke-miterlimit:4;stroke-dasharray:none"
     d="M 231.7,137.6 V 137.6 H 240.2 V 146.1 H 231.7 Z" />
  <path
     d="M 223.2,129.1 H 231.7 V 137.6 H 223.2 Z"
     style="opacity:0.4;fill:#8a8a8d;fill-opacity:1;fill-rule:nonzero;stroke:none;stroke-width:0.29;stroke-miterlimit:4;stroke-dasharray:none"
     id="path2064"
     inkscape:connector-curvature="0" />
  <path
     d="M 231.7,129.1 H 240.2 V 137.6 H 231.7 Z"
     style="opacity:0.5;fill:#8a8a8d;fill-opacity:1;fill-rule:nonzero;stroke:none;stroke-width:0.29;stroke-miterlimit:4;stroke-dasharray:none"
     id="path2062"
     inkscape:connector-curvature="0" />
  <g
     inkscape:label="Layer 1"
     inkscape:groupmode="layer"
     id="layer1"
     transform="translate(0,-116.8)"
     style="display:inline">
    <g
       id="g6076"
       transform="translate(3.309,-35.33)">
      <path
         d="M 14.89,205.1 C 15.48,204.3 16.61,204.1 17.41,204.7 C 18.21,205.3 18.38,206.4 17.79,207.2 C 17.2,208 16.07,208.2 15.28,207.6 C 14.47,207 14.3,205.9 14.89,205.1"
         style="opacity:0.3;fill:#8a8a8d;fill-opacity:1;fill-rule:nonzero;stroke:none;stroke-width:0.9638"
         id="path1418"
         inkscape:connector-curvature="0" />
      <path
         d="M 26.59,207.8 C 26.86,207.5 27.37,207.4 27.74,207.7 C 28.1,207.9 28.18,208.4 27.91,208.8 C 27.64,209.2 27.13,209.2 26.77,209 C 26.4,208.7 26.33,208.2 26.59,207.8"
         style="opacity:0.3;fill:#8a8a8d;fill-opacity:1;fill-rule:nonzero;stroke:none;stroke-width:0.9638"
         id="path1422"
         inkscape:connector-curvature="0" />
      <path
         d="M 9.935,184 C 10.28,183.5 10.95,183.4 11.42,183.8 C 11.89,184.1 11.99,184.8 11.65,185.2 C 11.3,185.7 10.63,185.8 10.16,185.5 C 9.688,185.1 9.587,184.5 9.935,184"
         style="opacity:0.3;fill:#8a8a8d;fill-opacity:1;fill-rule:nonzero;stroke:none;stroke-width:0.9638"
         id="path1426"
         inkscape:connector-curvature="0" />
      <path
         d="M -5.233,183.1 C -4.751,182.4 -3.829,182.3 -3.175,182.8 C -2.521,183.2 -2.381,184.2 -2.863,184.8 C -3.345,185.5 -4.266,185.6 -4.92,185.1 C -5.575,184.6 -5.714,183.7 -5.233,183.1"
         style="opacity:0.3;fill:#8a8a8d;fill-opacity:1;fill-rule:nonzero;stroke:none;stroke-width:0.9638"
         id="path1430"
         inkscape:connector-curvature="0" />
      <path
         d="M -11.66,166.6 C -11.39,166.2 -10.88,166.1 -10.51,166.4 C -10.15,166.6 -10.07,167.2 -10.34,167.5 C -10.61,167.9 -11.12,168 -11.48,167.7 C -11.85,167.4 -11.92,166.9 -11.66,166.6"
         style="opacity:0.3;fill:#8a8a8d;fill-opacity:1;fill-rule:nonzero;stroke:none;stroke-width:0.9638"
         id="path1434"
         inkscape:connector-curvature="0" />
      <path
         d="M -12.31,157.2 C -12.04,156.9 -11.53,156.8 -11.16,157.1 C -10.8,157.3 -10.72,157.8 -10.99,158.2 C -11.26,158.6 -11.77,158.6 -12.14,158.4 C -12.5,158.1 -12.58,157.6 -12.31,157.2"
         style="opacity:0.3;fill:#8a8a8d;fill-opacity:1;fill-rule:nonzero;stroke:none;stroke-width:0.9638"
         id="path1438"
         inkscape:connector-curvature="0" />
      <path
         d="M 16.14,158.6 C 16.54,158 17.31,157.9 17.86,158.3 C 18.4,158.7 18.52,159.5 18.12,160 C 17.72,160.6 16.95,160.7 16.4,160.3 C 15.86,159.9 15.74,159.1 16.14,158.6"
         style="opacity:0.3;fill:#8a8a8d;fill-opacity:1;fill-rule:nonzero;stroke:none;stroke-width:0.9638"
         id="path1442"
         inkscape:connector-curvature="0" />
      <path
         d="M 23.5,160.9 C 23.77,160.5 24.28,160.4 24.65,160.7 C 25.01,161 25.09,161.5 24.82,161.8 C 24.55,162.2 24.04,162.3 23.68,162 C 23.31,161.7 23.24,161.2 23.5,160.9"
         style="opacity:0.3;fill:#8a8a8d;fill-opacity:1;fill-rule:nonzero;stroke:none;stroke-width:0.9638"
         id="path1446"
         inkscape:connector-curvature="0" />
      <path
         d="M -8.896,141.6 C -8.628,141.2 -8.115,141.1 -7.752,141.4 C -7.388,141.7 -7.31,142.2 -7.579,142.5 C -7.846,142.9 -8.358,143 -8.721,142.7 C -9.086,142.4 -9.163,141.9 -8.896,141.6"
         style="opacity:0.3;fill:#8a8a8d;fill-opacity:1;fill-rule:nonzero;stroke:none;stroke-width:0.9638"
         id="path1450"
         inkscape:connector-curvature="0" />
      <path
         d="M 30.79,160.3 C 31.09,159.9 31.65,159.9 32.05,160.2 C 32.45,160.5 32.54,161 32.24,161.4 C 31.95,161.8 31.38,161.9 30.98,161.6 C 30.58,161.3 30.5,160.7 30.79,160.3"
         style="opacity:0.3;fill:#8a8a8d;fill-opacity:1;fill-rule:nonzero;stroke:none;stroke-width:0.9638"
         id="path1454"
         inkscape:connector-curvature="0" />
      <path
         d="M 29.24,150.5 C 29.72,149.8 30.64,149.7 31.29,150.2 C 31.95,150.6 32.09,151.6 31.61,152.2 C 31.12,152.9 30.2,153 29.55,152.5 C 28.89,152 28.75,151.1 29.24,150.5"
         style="opacity:0.3;fill:#8a8a8d;fill-opacity:1;fill-rule:nonzero;stroke:none;stroke-width:0.9638"
         id="path1458"
         inkscape:connector-curvature="0" />
      <path
         d="M 16.9,147.8 C 17.19,147.4 17.76,147.3 18.16,147.6 C 18.56,147.9 18.64,148.4 18.35,148.8 C 18.05,149.2 17.49,149.3 17.09,149 C 16.69,148.7 16.6,148.2 16.9,147.8"
         style="opacity:0.3;fill:#8a8a8d;fill-opacity:1;fill-rule:nonzero;stroke:none;stroke-width:0.9638"
         id="path1462"
         inkscape:connector-curvature="0" />
      <path
         d="M 5.817,137.2 C 6.113,136.8 6.676,136.7 7.076,137 C 7.475,137.3 7.561,137.8 7.265,138.2 C 6.971,138.6 6.408,138.7 6.008,138.4 C 5.608,138.1 5.522,137.6 5.817,137.2"
         style="opacity:0.3;fill:#8a8a8d;fill-opacity:1;fill-rule:nonzero;stroke:none;stroke-width:0.9638"
         id="path1466"
         inkscape:connector-curvature="0" />
      <path
         d="M 16.98,129.1 C 17.25,128.7 17.76,128.6 18.13,128.9 C 18.49,129.1 18.57,129.7 18.3,130 C 18.03,130.4 17.52,130.5 17.16,130.2 C 16.79,129.9 16.71,129.4 16.98,129.1"
         style="opacity:0.3;fill:#8a8a8d;fill-opacity:1;fill-rule:nonzero;stroke:none;stroke-width:0.9638"
         id="path1470"
         inkscape:connector-curvature="0" />
      <path
         d="M 31.36,123.6 C 32,122.7 33.23,122.5 34.1,123.2 C 34.98,123.8 35.16,125 34.52,125.9 C 33.87,126.8 32.65,127 31.78,126.3 C 30.9,125.7 30.72,124.5 31.36,123.6"
         style="opacity:0.3;fill:#8a8a8d;fill-opacity:1;fill-rule:nonzero;stroke:none;stroke-width:0.9638"
         id="path1474"
         inkscape:connector-curvature="0" />
      <path
         d="M 33.77,139.5 C 34.04,139.1 34.55,139 34.91,139.3 C 35.28,139.6 35.35,140.1 35.09,140.5 C 34.82,140.8 34.31,140.9 33.94,140.6 C 33.58,140.4 33.5,139.9 33.77,139.5"
         style="opacity:0.3;fill:#8a8a8d;fill-opacity:1;fill-rule:nonzero;stroke:none;stroke-width:0.9638"
         id="path1478"
         inkscape:connector-curvature="0" />
      <path
         d="M 51.16,140.8 C 51.46,140.4 52.02,140.3 52.42,140.6 C 52.82,140.9 52.91,141.5 52.61,141.9 C 52.32,142.3 51.75,142.4 51.35,142.1 C 50.95,141.8 50.87,141.2 51.16,140.8"
         style="opacity:0.3;fill:#8a8a8d;fill-opacity:1;fill-rule:nonzero;stroke:none;stroke-width:0.9638"
         id="path1482"
         inkscape:connector-curvature="0" />
      <path
         d="M 54.71,148 C 54.98,147.6 55.49,147.6 55.85,147.8 C 56.22,148.1 56.29,148.6 56.03,149 C 55.76,149.3 55.25,149.4 54.88,149.1 C 54.52,148.9 54.44,148.4 54.71,148"
         style="opacity:0.3;fill:#8a8a8d;fill-opacity:1;fill-rule:nonzero;stroke:none;stroke-width:0.9638"
         id="path1486"
         inkscape:connector-curvature="0" />
      <path
         d="M 54.94,156.1 C 55.21,155.7 55.72,155.7 56.09,155.9 C 56.45,156.2 56.53,156.7 56.26,157.1 C 55.99,157.4 55.48,157.5 55.12,157.2 C 54.75,157 54.68,156.5 54.94,156.1"
         style="opacity:0.3;fill:#8a8a8d;fill-opacity:1;fill-rule:nonzero;stroke:none;stroke-width:0.9638"
         id="path1490"
         inkscape:connector-curvature="0" />
      <path
         d="M 62.27,148.5 C 62.75,147.8 63.67,147.7 64.33,148.2 C 64.98,148.7 65.12,149.6 64.64,150.2 C 64.16,150.9 63.24,151 62.58,150.6 C 61.93,150.1 61.79,149.2 62.27,148.5"
         style="opacity:0.3;fill:#8a8a8d;fill-opacity:1;fill-rule:nonzero;stroke:none;stroke-width:0.9638"
         id="path1494"
         inkscape:connector-curvature="0" />
      <path
         d="M 62.01,134.1 C 62.28,133.7 62.8,133.6 63.16,133.9 C 63.52,134.2 63.6,134.7 63.33,135.1 C 63.06,135.4 62.55,135.5 62.19,135.2 C 61.82,135 61.75,134.5 62.01,134.1"
         style="opacity:0.3;fill:#8a8a8d;fill-opacity:1;fill-rule:nonzero;stroke:none;stroke-width:0.9638"
         id="path1498"
         inkscape:connector-curvature="0" />
      <path
         d="M 72.89,156.4 C 73.15,156.1 73.67,156 74.03,156.2 C 74.39,156.5 74.47,157 74.2,157.4 C 73.93,157.8 73.42,157.8 73.06,157.6 C 72.7,157.3 72.62,156.8 72.89,156.4"
         style="opacity:0.3;fill:#8a8a8d;fill-opacity:1;fill-rule:nonzero;stroke:none;stroke-width:0.9638"
         id="path1502"
         inkscape:connector-curvature="0" />
      <path
         d="M 70.7,179.4 C 70.99,179 71.56,178.9 71.96,179.2 C 72.35,179.5 72.44,180 72.15,180.4 C 71.85,180.8 71.29,180.9 70.89,180.6 C 70.49,180.3 70.4,179.8 70.7,179.4"
         style="opacity:0.3;fill:#8a8a8d;fill-opacity:1;fill-rule:nonzero;stroke:none;stroke-width:0.9638"
         id="path1506"
         inkscape:connector-curvature="0" />
      <path
         d="M 50.07,176.4 C 50.65,175.6 51.78,175.4 52.58,176 C 53.38,176.6 53.55,177.7 52.96,178.5 C 52.37,179.3 51.25,179.5 50.45,178.9 C 49.65,178.3 49.48,177.2 50.07,176.4"
         style="opacity:0.3;fill:#8a8a8d;fill-opacity:1;fill-rule:nonzero;stroke:none;stroke-width:0.9638"
         id="path1510"
         inkscape:connector-curvature="0" />
      <path
         d="M 58.59,184.4 C 58.89,184 59.45,183.9 59.85,184.2 C 60.25,184.5 60.33,185 60.04,185.4 C 59.74,185.8 59.18,185.9 58.78,185.6 C 58.38,185.3 58.3,184.8 58.59,184.4"
         style="opacity:0.3;fill:#8a8a8d;fill-opacity:1;fill-rule:nonzero;stroke:none;stroke-width:0.9638"
         id="path1514"
         inkscape:connector-curvature="0" />
      <path
         d="M 54.29,201.9 C 54.78,201.3 55.7,201.1 56.35,201.6 C 57.01,202.1 57.15,203 56.66,203.7 C 56.18,204.3 55.26,204.5 54.61,204 C 53.95,203.5 53.81,202.6 54.29,201.9"
         style="opacity:0.3;fill:#8a8a8d;fill-opacity:1;fill-rule:nonzero;stroke:none;stroke-width:0.9638"
         id="path1518"
         inkscape:connector-curvature="0" />
      <path
         d="M 45.42,202.8 C 45.88,202.2 46.75,202.1 47.36,202.5 C 47.98,203 48.12,203.8 47.66,204.5 C 47.2,205.1 46.33,205.2 45.72,204.7 C 45.1,204.3 44.97,203.4 45.42,202.8"
         style="opacity:0.3;fill:#8a8a8d;fill-opacity:1;fill-rule:nonzero;stroke:none;stroke-width:0.9638"
         id="path1522"
         inkscape:connector-curvature="0" />
      <path
         d="M 29.31,183.3 C 29.6,182.9 30.17,182.8 30.57,183.1 C 30.96,183.4 31.05,184 30.76,184.4 C 30.46,184.8 29.9,184.9 29.5,184.6 C 29.1,184.3 29.01,183.7 29.31,183.3"
         style="opacity:0.3;fill:#8a8a8d;fill-opacity:1;fill-rule:nonzero;stroke:none;stroke-width:0.9638"
         id="path1526"
         inkscape:connector-curvature="0" />
      <path
         d="M 38.98,208.2 C 41.2,209.8 41.67,212.9 40.04,215.1 C 38.41,217.4 35.28,217.8 33.07,216.2 C 30.85,214.6 30.38,211.4 32.01,209.2 C 33.64,207 36.77,206.5 38.98,208.2 M 33.21,216 C 35.32,217.6 38.29,217.1 39.84,215 C 41.4,212.9 40.94,209.9 38.84,208.4 C 36.73,206.8 33.76,207.3 32.21,209.4 C 30.66,211.5 31.11,214.5 33.21,216"
         style="opacity:0.3;fill:#8a8a8d;fill-opacity:1;fill-rule:nonzero;stroke:none;stroke-width:0.9638"
         id="path1530"
         inkscape:connector-curvature="0" />
      <path
         d="M 34.86,190.4 C 36.73,191.8 37.13,194.4 35.75,196.3 C 34.37,198.2 31.73,198.6 29.86,197.2 C 27.99,195.8 27.59,193.2 28.97,191.3 C 30.34,189.4 32.99,189 34.86,190.4 M 30.01,197 C 31.77,198.3 34.26,197.9 35.55,196.1 C 36.85,194.4 36.47,191.9 34.71,190.6 C 32.95,189.3 30.46,189.7 29.17,191.4 C 27.87,193.2 28.25,195.7 30.01,197"
         style="opacity:0.3;fill:#8a8a8d;fill-opacity:1;fill-rule:nonzero;stroke:none;stroke-width:0.9638"
         id="path1534"
         inkscape:connector-curvature="0" />
      <path
         d="M 50.85,190.6 C 52.36,191.7 52.68,193.8 51.57,195.4 C 50.46,196.9 48.33,197.2 46.83,196.1 C 45.32,195 45,192.8 46.11,191.3 C 47.22,189.8 49.35,189.5 50.85,190.6 M 46.97,195.9 C 48.37,196.9 50.34,196.6 51.37,195.2 C 52.4,193.8 52.1,191.8 50.71,190.8 C 49.31,189.8 47.33,190.1 46.3,191.5 C 45.27,192.9 45.57,194.8 46.97,195.9"
         style="opacity:0.3;fill:#8a8a8d;fill-opacity:1;fill-rule:nonzero;stroke:none;stroke-width:0.9638"
         id="path1538"
         inkscape:connector-curvature="0" />
      <path
         d="M 68.12,189.2 C 70.65,191.1 71.19,194.6 69.33,197.2 C 67.47,199.7 63.91,200.2 61.38,198.4 C 58.86,196.5 58.32,192.9 60.18,190.4 C 62.04,187.9 65.6,187.4 68.12,189.2 M 61.53,198.2 C 63.94,199.9 67.36,199.4 69.13,197 C 70.91,194.6 70.39,191.2 67.98,189.4 C 65.57,187.6 62.16,188.2 60.38,190.6 C 58.6,193 59.12,196.4 61.53,198.2"
         style="opacity:0.3;fill:#8a8a8d;fill-opacity:1;fill-rule:nonzero;stroke:none;stroke-width:0.9638"
         id="path1542"
         inkscape:connector-curvature="0" />
      <path
         d="M 37.6,166.8 C 40.74,169.1 41.41,173.6 39.1,176.7 C 36.78,179.9 32.35,180.5 29.21,178.2 C 26.07,175.9 25.39,171.5 27.71,168.3 C 30.02,165.2 34.46,164.5 37.6,166.8 M 29.35,178 C 32.38,180.3 36.67,179.6 38.9,176.6 C 41.13,173.5 40.48,169.3 37.45,167 C 34.42,164.8 30.14,165.4 27.9,168.5 C 25.67,171.5 26.32,175.8 29.35,178"
         style="opacity:0.3;fill:#8a8a8d;fill-opacity:1;fill-rule:nonzero;stroke:none;stroke-width:0.9638"
         id="path1546"
         inkscape:connector-curvature="0" />
      <path
         d="M 17.3,169.1 C 19.1,170.5 19.49,173 18.16,174.8 C 16.84,176.6 14.3,177 12.5,175.7 C 10.71,174.3 10.32,171.8 11.65,170 C 12.97,168.2 15.51,167.8 17.3,169.1 M 12.65,175.5 C 14.34,176.7 16.72,176.3 17.97,174.7 C 19.21,173 18.85,170.6 17.16,169.3 C 15.47,168.1 13.09,168.5 11.84,170.2 C 10.6,171.8 10.96,174.2 12.65,175.5"
         style="opacity:0.3;fill:#8a8a8d;fill-opacity:1;fill-rule:nonzero;stroke:none;stroke-width:0.9638"
         id="path1550"
         inkscape:connector-curvature="0" />
      <path
         d="M 20.42,190.4 C 21.71,191.4 21.98,193.2 21.03,194.5 C 20.08,195.8 18.26,196.1 16.97,195.1 C 15.69,194.2 15.41,192.3 16.36,191 C 17.31,189.8 19.13,189.5 20.42,190.4 M 17.12,194.9 C 18.3,195.8 19.96,195.5 20.83,194.3 C 21.7,193.2 21.45,191.5 20.27,190.6 C 19.09,189.8 17.42,190 16.56,191.2 C 15.69,192.4 15.94,194 17.12,194.9"
         style="opacity:0.3;fill:#8a8a8d;fill-opacity:1;fill-rule:nonzero;stroke:none;stroke-width:0.9638"
         id="path1554"
         inkscape:connector-curvature="0" />
      <path
         d="M 4.02,193 C 6.179,194.6 6.642,197.6 5.052,199.8 C 3.461,201.9 0.4091,202.4 -1.751,200.8 C -3.912,199.2 -4.374,196.2 -2.784,194 C -1.192,191.8 1.86,191.4 4.02,193 M -1.605,200.6 C 0.4458,202.1 3.343,201.7 4.854,199.6 C 6.364,197.6 5.925,194.7 3.874,193.2 C 1.823,191.7 -1.075,192.1 -2.586,194.2 C -4.096,196.2 -3.656,199.1 -1.605,200.6"
         style="opacity:0.3;fill:#8a8a8d;fill-opacity:1;fill-rule:nonzero;stroke:none;stroke-width:0.9638"
         id="path1558"
         inkscape:connector-curvature="0" />
      <path
         d="M 3.029,161.8 C 5.516,163.6 6.049,167.1 4.217,169.6 C 2.386,172.1 -1.127,172.6 -3.614,170.8 C -6.101,169 -6.633,165.5 -4.801,163 C -2.97,160.5 0.5428,159.9 3.029,161.8 M -3.469,170.6 C -1.09,172.4 2.268,171.8 4.019,169.5 C 5.771,167.1 5.262,163.7 2.885,162 C 0.5062,160.2 -2.853,160.7 -4.604,163.1 C -6.354,165.5 -5.846,168.9 -3.469,170.6"
         style="opacity:0.3;fill:#8a8a8d;fill-opacity:1;fill-rule:nonzero;stroke:none;stroke-width:0.9638"
         id="path1562"
         inkscape:connector-curvature="0" />
      <path
         d="M -18.33,170.9 C -16.61,172.2 -16.24,174.6 -17.51,176.4 C -18.78,178.1 -21.21,178.5 -22.94,177.2 C -24.66,175.9 -25.03,173.5 -23.76,171.8 C -22.49,170 -20.05,169.7 -18.33,170.9 M -22.79,177 C -21.18,178.2 -18.89,177.8 -17.7,176.2 C -16.51,174.6 -16.86,172.3 -18.48,171.1 C -20.09,169.9 -22.37,170.3 -23.56,171.9 C -24.75,173.5 -24.41,175.8 -22.79,177"
         style="opacity:0.3;fill:#8a8a8d;fill-opacity:1;fill-rule:nonzero;stroke:none;stroke-width:0.9638"
         id="path1566"
         inkscape:connector-curvature="0" />
      <path
         d="M -16.12,148.5 C -14.65,149.6 -14.33,151.6 -15.42,153.1 C -16.5,154.6 -18.58,154.9 -20.05,153.8 C -21.52,152.7 -21.83,150.7 -20.75,149.2 C -19.67,147.7 -17.59,147.4 -16.12,148.5 M -19.9,153.6 C -18.54,154.6 -16.62,154.3 -15.62,153 C -14.61,151.6 -14.91,149.7 -16.27,148.7 C -17.63,147.7 -19.55,148 -20.55,149.3 C -21.56,150.7 -21.26,152.6 -19.9,153.6"
         style="opacity:0.3;fill:#8a8a8d;fill-opacity:1;fill-rule:nonzero;stroke:none;stroke-width:0.9638"
         id="path1570"
         inkscape:connector-curvature="0" />
      <path
         d="M 3.335,148 C 5.169,149.3 5.562,151.9 4.211,153.8 C 2.861,155.6 0.2714,156 -1.562,154.6 C -3.395,153.3 -3.789,150.7 -2.438,148.9 C -1.088,147 1.502,146.6 3.335,148 M -1.416,154.4 C 0.3071,155.7 2.745,155.3 4.014,153.6 C 5.283,151.9 4.914,149.5 3.19,148.2 C 1.466,146.9 -0.9709,147.3 -2.24,149 C -3.512,150.7 -3.141,153.2 -1.416,154.4"
         style="opacity:0.3;fill:#8a8a8d;fill-opacity:1;fill-rule:nonzero;stroke:none;stroke-width:0.9638"
         id="path1574"
         inkscape:connector-curvature="0" />
      <path
         d="M -0.1331,127.1 C 1.591,128.3 1.96,130.8 0.69,132.5 C -0.5793,134.2 -3.015,134.6 -4.739,133.3 C -6.463,132 -6.833,129.6 -5.563,127.9 C -4.293,126.2 -1.857,125.8 -0.1331,127.1 M -4.595,133.1 C -2.979,134.3 -0.6969,134 0.4934,132.3 C 1.684,130.7 1.337,128.4 -0.2777,127.3 C -1.894,126.1 -4.175,126.4 -5.366,128 C -6.556,129.6 -6.21,131.9 -4.595,133.1"
         style="opacity:0.3;fill:#8a8a8d;fill-opacity:1;fill-rule:nonzero;stroke:none;stroke-width:0.9638"
         id="path1578"
         inkscape:connector-curvature="0" />
      <path
         d="M 26,134.3 C 28.59,136.2 29.15,139.9 27.24,142.5 C 25.33,145.1 21.66,145.6 19.06,143.7 C 16.47,141.8 15.91,138.2 17.82,135.6 C 19.74,133 23.4,132.4 26,134.3 M 19.21,143.5 C 21.69,145.4 25.21,144.8 27.04,142.3 C 28.87,139.9 28.34,136.3 25.85,134.5 C 23.37,132.7 19.85,133.2 18.02,135.7 C 16.19,138.2 16.72,141.7 19.21,143.5"
         style="opacity:0.3;fill:#8a8a8d;fill-opacity:1;fill-rule:nonzero;stroke:none;stroke-width:0.9638"
         id="path1582"
         inkscape:connector-curvature="0" />
      <path
         d="M 21.2,115 C 22.75,116.2 23.08,118.4 21.94,119.9 C 20.8,121.5 18.62,121.8 17.08,120.6 C 15.54,119.5 15.21,117.3 16.34,115.8 C 17.48,114.2 19.66,113.9 21.2,115 M 17.23,120.4 C 18.66,121.5 20.69,121.2 21.74,119.8 C 22.8,118.3 22.49,116.3 21.06,115.2 C 19.62,114.2 17.6,114.5 16.54,115.9 C 15.48,117.4 15.79,119.4 17.23,120.4"
         style="opacity:0.3;fill:#8a8a8d;fill-opacity:1;fill-rule:nonzero;stroke:none;stroke-width:0.9638"
         id="path1586"
         inkscape:connector-curvature="0" />
      <path
         d="M 52.83,124.2 C 54.59,125.5 54.97,128 53.67,129.8 C 52.37,131.5 49.88,131.9 48.12,130.6 C 46.36,129.3 45.99,126.8 47.28,125.1 C 48.58,123.3 51.07,122.9 52.83,124.2 M 48.27,130.4 C 49.92,131.6 52.25,131.3 53.47,129.6 C 54.69,128 54.33,125.6 52.68,124.4 C 51.03,123.2 48.7,123.6 47.48,125.2 C 46.26,126.9 46.62,129.2 48.27,130.4"
         style="opacity:0.3;fill:#8a8a8d;fill-opacity:1;fill-rule:nonzero;stroke:none;stroke-width:0.9638"
         id="path1590"
         inkscape:connector-curvature="0" />
      <path
         d="M 46.96,143 C 49.01,144.5 49.45,147.4 47.94,149.4 C 46.42,151.5 43.53,151.9 41.48,150.4 C 39.43,148.9 38.99,146 40.5,143.9 C 42.01,141.9 44.9,141.4 46.96,143 M 41.62,150.2 C 43.56,151.6 46.31,151.2 47.74,149.3 C 49.17,147.3 48.75,144.6 46.81,143.2 C 44.87,141.7 42.12,142.1 40.69,144.1 C 39.26,146 39.68,148.8 41.62,150.2"
         style="opacity:0.3;fill:#8a8a8d;fill-opacity:1;fill-rule:nonzero;stroke:none;stroke-width:0.9638"
         id="path1594"
         inkscape:connector-curvature="0" />
      <path
         d="M 49.12,158.8 C 50.66,159.9 50.99,162.1 49.86,163.6 C 48.72,165.2 46.54,165.5 45,164.4 C 43.46,163.2 43.12,161 44.26,159.5 C 45.4,158 47.58,157.6 49.12,158.8 M 45.14,164.2 C 46.58,165.2 48.6,164.9 49.66,163.5 C 50.72,162 50.41,160 48.98,159 C 47.54,157.9 45.52,158.2 44.46,159.6 C 43.4,161.1 43.71,163.1 45.14,164.2"
         style="opacity:0.3;fill:#8a8a8d;fill-opacity:1;fill-rule:nonzero;stroke:none;stroke-width:0.9638"
         id="path1598"
         inkscape:connector-curvature="0" />
      <path
         d="M 70.49,164.4 C 72.54,165.9 72.98,168.8 71.47,170.8 C 69.96,172.9 67.07,173.3 65.01,171.8 C 62.96,170.3 62.52,167.4 64.03,165.3 C 65.54,163.3 68.44,162.8 70.49,164.4 M 65.16,171.6 C 67.1,173 69.85,172.6 71.28,170.7 C 72.71,168.7 72.29,166 70.35,164.6 C 68.41,163.1 65.66,163.5 64.23,165.5 C 62.8,167.4 63.22,170.2 65.16,171.6"
         style="opacity:0.3;fill:#8a8a8d;fill-opacity:1;fill-rule:nonzero;stroke:none;stroke-width:0.9638"
         id="path1602"
         inkscape:connector-curvature="0" />
      <path
         d="M 74.85,144.5 C 76.29,145.6 76.59,147.6 75.54,149 C 74.48,150.5 72.46,150.8 71.02,149.7 C 69.59,148.7 69.28,146.6 70.34,145.2 C 71.39,143.8 73.42,143.5 74.85,144.5 M 71.17,149.5 C 72.49,150.5 74.36,150.2 75.34,148.9 C 76.32,147.6 76.03,145.7 74.71,144.7 C 73.38,143.7 71.51,144 70.53,145.3 C 69.56,146.7 69.84,148.5 71.17,149.5"
         style="opacity:0.3;fill:#8a8a8d;fill-opacity:1;fill-rule:nonzero;stroke:none;stroke-width:0.9638"
         id="path1606"
         inkscape:connector-curvature="0" />
      <path
         d="M 31.71,209.9 L 31.62,210.2 L 27.21,208.4 L 27.29,208.2 Z"
         style="opacity:0.3;fill:#8a8a8d;fill-opacity:1;fill-rule:nonzero;stroke:none;stroke-width:0.9638"
         id="path1610"
         inkscape:connector-curvature="0" />
      <path
         d="M 33.31,197.7 L 35.07,207.4 H 34.83 L 33.07,197.8 Z"
         style="opacity:0.3;fill:#8a8a8d;fill-opacity:1;fill-rule:nonzero;stroke:none;stroke-width:0.9638"
         id="path1614"
         inkscape:connector-curvature="0" />
      <path
         d="M 29.15,196.2 L 29.3,196.4 L 17.75,205.4 L 17.6,205.2 Z"
         style="opacity:0.3;fill:#8a8a8d;fill-opacity:1;fill-rule:nonzero;stroke:none;stroke-width:0.9638"
         id="path1618"
         inkscape:connector-curvature="0" />
      <path
         d="M 35.88,195.6 L 45.49,202.7 L 45.35,202.9 L 35.74,195.8 Z"
         style="opacity:0.3;fill:#8a8a8d;fill-opacity:1;fill-rule:nonzero;stroke:none;stroke-width:0.9638"
         id="path1622"
         inkscape:connector-curvature="0" />
      <path
         d="M 36.38,193.2 V 193.4 H 45.67 L 45.66,193.1 Z"
         style="opacity:0.3;fill:#8a8a8d;fill-opacity:1;fill-rule:nonzero;stroke:none;stroke-width:0.9638"
         id="path1626"
         inkscape:connector-curvature="0" />
      <path
         d="M 30.06,184.5 L 30.78,190 H 31.02 L 30.31,184.5 Z"
         style="opacity:0.3;fill:#8a8a8d;fill-opacity:1;fill-rule:nonzero;stroke:none;stroke-width:0.9638"
         id="path1630"
         inkscape:connector-curvature="0" />
      <path
         d="M 31.71,179.2 L 30.29,183.3 L 30.06,183.2 L 31.48,179.1 Z"
         style="opacity:0.3;fill:#8a8a8d;fill-opacity:1;fill-rule:nonzero;stroke:none;stroke-width:0.9638"
         id="path1634"
         inkscape:connector-curvature="0" />
      <path
         d="M 50.01,176.8 L 49.94,177 L 40.24,174.3 L 40.3,174.1 Z"
         style="opacity:0.3;fill:#8a8a8d;fill-opacity:1;fill-rule:nonzero;stroke:none;stroke-width:0.9638"
         id="path1638"
         inkscape:connector-curvature="0" />
      <path
         d="M 53.05,178.4 L 59.28,184.4 L 59.11,184.6 L 52.88,178.6 Z"
         style="opacity:0.3;fill:#8a8a8d;fill-opacity:1;fill-rule:nonzero;stroke:none;stroke-width:0.9638"
         id="path1642"
         inkscape:connector-curvature="0" />
      <path
         d="M 59.74,185 L 62.2,188.9 L 61.99,189.1 L 59.53,185.2 Z"
         style="opacity:0.3;fill:#8a8a8d;fill-opacity:1;fill-rule:nonzero;stroke:none;stroke-width:0.9638"
         id="path1646"
         inkscape:connector-curvature="0" />
      <path
         d="M 60.76,197.6 L 60.93,197.8 L 56.63,201.8 L 56.47,201.7 Z"
         style="opacity:0.3;fill:#8a8a8d;fill-opacity:1;fill-rule:nonzero;stroke:none;stroke-width:0.9638"
         id="path1650"
         inkscape:connector-curvature="0" />
      <path
         d="M 63.8,170.1 L 63.92,170.3 L 52.85,176.4 L 52.74,176.1 Z"
         style="opacity:0.3;fill:#8a8a8d;fill-opacity:1;fill-rule:nonzero;stroke:none;stroke-width:0.9638"
         id="path1654"
         inkscape:connector-curvature="0" />
      <path
         d="M 69.79,172.2 L 71.45,179.3 L 71.22,179.4 L 69.55,172.3 Z"
         style="opacity:0.3;fill:#8a8a8d;fill-opacity:1;fill-rule:nonzero;stroke:none;stroke-width:0.9638"
         id="path1658"
         inkscape:connector-curvature="0" />
      <path
         d="M 73.65,157 L 70.03,163.9 L 69.82,163.8 L 73.44,156.8 Z"
         style="opacity:0.3;fill:#8a8a8d;fill-opacity:1;fill-rule:nonzero;stroke:none;stroke-width:0.9638"
         id="path1662"
         inkscape:connector-curvature="0" />
      <path
         d="M 73.01,150.3 L 73.37,156.2 L 73.61,156.1 L 73.25,150.3 Z"
         style="opacity:0.3;fill:#8a8a8d;fill-opacity:1;fill-rule:nonzero;stroke:none;stroke-width:0.9638"
         id="path1666"
         inkscape:connector-curvature="0" />
      <path
         d="M 63.58,166.8 L 63.5,167 L 50.31,162.6 L 50.39,162.3 Z"
         style="opacity:0.3;fill:#8a8a8d;fill-opacity:1;fill-rule:nonzero;stroke:none;stroke-width:0.9638"
         id="path1670"
         inkscape:connector-curvature="0" />
      <path
         d="M 55.15,149 L 55.34,156.1 H 55.59 L 55.4,149 Z"
         style="opacity:0.3;fill:#8a8a8d;fill-opacity:1;fill-rule:nonzero;stroke:none;stroke-width:0.9638"
         id="path1674"
         inkscape:connector-curvature="0" />
      <path
         d="M 62.41,149.2 L 62.37,149.4 L 56.02,148.4 L 56.06,148.2 Z"
         style="opacity:0.3;fill:#8a8a8d;fill-opacity:1;fill-rule:nonzero;stroke:none;stroke-width:0.9638"
         id="path1678"
         inkscape:connector-curvature="0" />
      <path
         d="M 52.39,141.2 L 55.28,147.9 L 55.05,148 L 52.17,141.3 Z"
         style="opacity:0.3;fill:#8a8a8d;fill-opacity:1;fill-rule:nonzero;stroke:none;stroke-width:0.9638"
         id="path1682"
         inkscape:connector-curvature="0" />
      <path
         d="M 55.01,148.2 L 54.97,148.4 L 48.73,147.4 L 48.77,147.2 Z"
         style="opacity:0.3;fill:#8a8a8d;fill-opacity:1;fill-rule:nonzero;stroke:none;stroke-width:0.9638"
         id="path1686"
         inkscape:connector-curvature="0" />
      <path
         d="M 48.91,131 L 45.24,142.3 L 45.01,142.2 L 48.67,130.9 Z"
         style="opacity:0.3;fill:#8a8a8d;fill-opacity:1;fill-rule:nonzero;stroke:none;stroke-width:0.9638"
         id="path1690"
         inkscape:connector-curvature="0" />
      <path
         d="M 62.46,134.2 L 62.33,134.4 L 53.83,129.2 L 53.96,129 Z"
         style="opacity:0.3;fill:#8a8a8d;fill-opacity:1;fill-rule:nonzero;stroke:none;stroke-width:0.9638"
         id="path1694"
         inkscape:connector-curvature="0" />
      <path
         d="M 40.66,143.9 L 40.53,144.1 L 34.85,140.2 L 34.99,140 Z"
         style="opacity:0.3;fill:#8a8a8d;fill-opacity:1;fill-rule:nonzero;stroke:none;stroke-width:0.9638"
         id="path1698"
         inkscape:connector-curvature="0" />
      <path
         d="M 28.32,139.3 L 33.92,139.9 L 33.95,139.7 L 28.35,139 Z"
         style="opacity:0.3;fill:#8a8a8d;fill-opacity:1;fill-rule:nonzero;stroke:none;stroke-width:0.9638"
         id="path1702"
         inkscape:connector-curvature="0" />
      <path
         d="M 32.05,125.6 L 32.24,125.8 L 25.76,134.3 L 25.56,134.2 Z"
         style="opacity:0.3;fill:#8a8a8d;fill-opacity:1;fill-rule:nonzero;stroke:none;stroke-width:0.9638"
         id="path1706"
         inkscape:connector-curvature="0" />
      <path
         d="M 17.93,129.9 L 20.02,133.8 L 19.8,134 L 17.72,130 Z"
         style="opacity:0.3;fill:#8a8a8d;fill-opacity:1;fill-rule:nonzero;stroke:none;stroke-width:0.9638"
         id="path1710"
         inkscape:connector-curvature="0" />
      <path
         d="M 18.82,121.1 L 17.77,128.8 H 17.53 L 18.57,121.1 Z"
         style="opacity:0.3;fill:#8a8a8d;fill-opacity:1;fill-rule:nonzero;stroke:none;stroke-width:0.9638"
         id="path1714"
         inkscape:connector-curvature="0" />
      <path
         d="M 16.93,138.5 L 16.91,138.8 L 7.281,137.8 L 7.308,137.5 Z"
         style="opacity:0.3;fill:#8a8a8d;fill-opacity:1;fill-rule:nonzero;stroke:none;stroke-width:0.9638"
         id="path1718"
         inkscape:connector-curvature="0" />
      <path
         d="M 19.89,144.1 L 17.97,147.8 L 17.75,147.7 L 19.67,144 Z"
         style="opacity:0.3;fill:#8a8a8d;fill-opacity:1;fill-rule:nonzero;stroke:none;stroke-width:0.9638"
         id="path1722"
         inkscape:connector-curvature="0" />
      <path
         d="M 17.08,158.7 H 17.33 L 17.57,149.1 H 17.33 Z"
         style="opacity:0.3;fill:#8a8a8d;fill-opacity:1;fill-rule:nonzero;stroke:none;stroke-width:0.9638"
         id="path1726"
         inkscape:connector-curvature="0" />
      <path
         d="M 31.81,161.2 L 32.6,165.6 L 32.35,165.7 L 31.56,161.2 Z"
         style="opacity:0.3;fill:#8a8a8d;fill-opacity:1;fill-rule:nonzero;stroke:none;stroke-width:0.9638"
         id="path1730"
         inkscape:connector-curvature="0" />
      <path
         d="M 30.78,152.5 L 31.7,160.1 H 31.45 L 30.54,152.5 Z"
         style="opacity:0.3;fill:#8a8a8d;fill-opacity:1;fill-rule:nonzero;stroke:none;stroke-width:0.9638"
         id="path1734"
         inkscape:connector-curvature="0" />
      <path
         d="M 24.74,161.3 L 24.76,161.5 L 30.82,161 L 30.8,160.7 Z"
         style="opacity:0.3;fill:#8a8a8d;fill-opacity:1;fill-rule:nonzero;stroke:none;stroke-width:0.9638"
         id="path1738"
         inkscape:connector-curvature="0" />
      <path
         d="M 16.2,158.5 L 16.09,158.7 L 4.46,153 L 4.569,152.8 Z"
         style="opacity:0.3;fill:#8a8a8d;fill-opacity:1;fill-rule:nonzero;stroke:none;stroke-width:0.9638"
         id="path1742"
         inkscape:connector-curvature="0" />
      <path
         d="M 16.09,159.6 L 16.18,159.8 L 4.868,164.3 L 4.779,164.1 Z"
         style="opacity:0.3;fill:#8a8a8d;fill-opacity:1;fill-rule:nonzero;stroke:none;stroke-width:0.9638"
         id="path1746"
         inkscape:connector-curvature="0" />
      <path
         d="M -2.037,133.9 L 0.1902,147.4 L -0.0517,147.5 L -2.279,134 Z"
         style="opacity:0.3;fill:#8a8a8d;fill-opacity:1;fill-rule:nonzero;stroke:none;stroke-width:0.9638"
         id="path1750"
         inkscape:connector-curvature="0" />
      <path
         d="M -7.768,142.6 L -1.96,148.5 L -2.136,148.6 L -7.944,142.7 Z"
         style="opacity:0.3;fill:#8a8a8d;fill-opacity:1;fill-rule:nonzero;stroke:none;stroke-width:0.9638"
         id="path1754"
         inkscape:connector-curvature="0" />
      <path
         d="M -14.93,151.3 L -3.09,151.5 L -3.086,151.2 L -14.93,151 Z"
         style="opacity:0.3;fill:#8a8a8d;fill-opacity:1;fill-rule:nonzero;stroke:none;stroke-width:0.9638"
         id="path1758"
         inkscape:connector-curvature="0" />
      <path
         d="M -10.38,166.9 L -10.34,167.1 L -5.704,166.5 L -5.738,166.2 Z"
         style="opacity:0.3;fill:#8a8a8d;fill-opacity:1;fill-rule:nonzero;stroke:none;stroke-width:0.9638"
         id="path1762"
         inkscape:connector-curvature="0" />
      <path
         d="M -11.29,167.4 L -11.15,167.6 L -17.38,172 L -17.52,171.8 Z"
         style="opacity:0.3;fill:#8a8a8d;fill-opacity:1;fill-rule:nonzero;stroke:none;stroke-width:0.9638"
         id="path1766"
         inkscape:connector-curvature="0" />
      <path
         d="M -11.57,158.3 L -11.14,166.5 H -10.9 L -11.33,158.3 Z"
         style="opacity:0.3;fill:#8a8a8d;fill-opacity:1;fill-rule:nonzero;stroke:none;stroke-width:0.9638"
         id="path1770"
         inkscape:connector-curvature="0" />
      <path
         d="M -1.777,171.5 L -3.691,182.8 H -3.933 L -2.019,171.5 Z"
         style="opacity:0.3;fill:#8a8a8d;fill-opacity:1;fill-rule:nonzero;stroke:none;stroke-width:0.9638"
         id="path1774"
         inkscape:connector-curvature="0" />
      <path
         d="M 2.616,170.8 L 10.9,184.5 L 10.69,184.7 L 2.406,171 Z"
         style="opacity:0.3;fill:#8a8a8d;fill-opacity:1;fill-rule:nonzero;stroke:none;stroke-width:0.9638"
         id="path1778"
         inkscape:connector-curvature="0" />
      <path
         d="M 15.48,176.2 L 18.17,190 L 17.93,190.1 L 15.24,176.2 Z"
         style="opacity:0.3;fill:#8a8a8d;fill-opacity:1;fill-rule:nonzero;stroke:none;stroke-width:0.9638"
         id="path1782"
         inkscape:connector-curvature="0" />
      <path
         d="M 15.98,193.5 L 16.04,193.7 L 5.881,196.1 L 5.824,195.9 Z"
         style="opacity:0.3;fill:#8a8a8d;fill-opacity:1;fill-rule:nonzero;stroke:none;stroke-width:0.9638"
         id="path1786"
         inkscape:connector-curvature="0" />
      <path
         d="M 18.87,172.5 L 26.45,172.7 L 26.46,172.5 L 18.88,172.3 Z"
         style="opacity:0.3;fill:#8a8a8d;fill-opacity:1;fill-rule:nonzero;stroke:none;stroke-width:0.9638"
         id="path1790"
         inkscape:connector-curvature="0" />
    </g>
    <g
       id="g953"
       transform="matrix(0.8,0,0,0.8,-3.974,61.24)">
      <g
         transform="matrix(0.3528,0,0,-0.3528,-63.72,518.3)"
         id="g932">
        <g
           clip-path="url(#clipPath938)"
           id="g934">
          <g
             transform="translate(243.6,662.3)"
             id="g940">
            <path
               inkscape:connector-curvature="0"
               id="path942"
               style="fill:#d0202e;fill-opacity:1;fill-rule:nonzero;stroke:none"
               d="M 0,0 C 6.156,10.48 4.684,22.77 -3.287,27.45 C -4.068,27.91 -4.882,28.28 -5.72,28.56 C -3.625,28.43 -1.606,27.85 0.227,26.77 C 8.197,22.09 8.872,9.857 2.716,-0.621 C -2.836,-10.07 -11.9,-14.88 -19.63,-12.28 C -12.62,-12.71 -4.74,-8.068 0,0" />
          </g>
          <g
             transform="translate(240.5,663.9)"
             id="g944">
            <path
               inkscape:connector-curvature="0"
               id="path946"
               style="fill:#27aae1;fill-opacity:1;fill-rule:nonzero;stroke:none"
               d="M 0,0 C 6.214,7.727 6.486,17.82 0.608,22.55 C 0.032,23.01 -0.582,23.41 -1.225,23.73 C 0.451,23.38 2.011,22.67 3.364,21.58 C 9.241,16.86 8.969,6.762 2.755,-0.965 C -2.85,-7.935 -11.38,-10.6 -17.3,-7.579 C -11.7,-8.759 -4.784,-5.95 0,0" />
          </g>
          <g
             transform="translate(221.4,680.6)"
             id="g948">
            <path
               inkscape:connector-curvature="0"
               id="path950"
               style="fill:#d7df23;fill-opacity:1;fill-rule:nonzero;stroke:none"
               d="M 0,0 C -5.509,-8.553 -4.417,-19.64 2.438,-24.77 C 3.109,-25.27 3.81,-25.69 4.534,-26.04 C 2.716,-25.67 0.971,-24.92 -0.605,-23.74 C -7.46,-18.61 -8.551,-7.526 -3.043,1.028 C 1.927,8.744 10.57,11.76 17.25,8.514 C 11.16,9.747 4.241,6.586 0,0" />
          </g>
          <g
             transform="translate(219.3,681.5)"
             id="g952">
            <path
               inkscape:connector-curvature="0"
               id="path954"
               style="fill:#ec008c;fill-opacity:1;fill-rule:nonzero;stroke:none"
               d="M 0,0 C -6.627,-10.29 -5.313,-23.63 2.933,-29.79 C 3.739,-30.39 4.583,-30.9 5.454,-31.33 C 3.267,-30.88 1.168,-29.97 -0.728,-28.55 C -8.973,-22.39 -9.489,-9.109 -2.863,1.18 C 3.115,10.46 14.4,13.41 20.74,10.24 C 13.42,11.72 5.101,7.922 0,0" />
          </g>
          <g
             transform="translate(225.2,678.9)"
             id="g956">
            <path
               inkscape:connector-curvature="0"
               id="path958"
               style="fill:#6ba2b8;fill-opacity:1;fill-rule:nonzero;stroke:none"
               d="M 0,0 C 4.335,6.249 11.54,8.756 16.09,5.599 C 16.53,5.29 16.94,4.938 17.3,4.549 C 16.72,5.677 15.9,6.64 14.85,7.366 C 10.3,10.52 3.101,8.016 -1.233,1.767 C -5.144,-3.87 -5.383,-10.63 -2.052,-14.21 C -4,-10.44 -3.337,-4.812 0,0" />
          </g>
          <g
             transform="translate(237.8,669.4)"
             id="g960">
            <path
               inkscape:connector-curvature="0"
               id="path962"
               style="fill:#55575a;fill-opacity:1;fill-rule:nonzero;stroke:none"
               d="M 0,0 C -4.335,-6.249 -11.54,-8.755 -16.09,-5.6 C -16.53,-5.29 -16.94,-4.938 -17.3,-4.548 C -16.72,-5.676 -15.9,-6.639 -14.85,-7.366 C -10.3,-10.52 -3.101,-8.015 1.234,-1.766 C 5.144,3.871 5.383,10.63 2.051,14.21 C 4,10.44 3.337,4.812 0,0" />
          </g>
          <g
             transform="translate(245.4,691.4)"
             id="g964">
            <path
               inkscape:connector-curvature="0"
               id="path966"
               style="fill:#6ba2b8;fill-opacity:1;fill-rule:nonzero;stroke:none"
               d="M 0,0 C -10.15,7.039 -26.21,1.449 -35.88,-12.49 C -39.52,-17.74 -41.73,-23.42 -42.53,-28.85 C -41.99,-22.9 -39.7,-16.54 -35.66,-10.72 C -26,3.218 -9.935,8.808 0.212,1.769 C 6.535,-2.617 9.069,-10.87 7.744,-19.84 C 8.505,-11.57 5.906,-4.096 0,0" />
          </g>
          <g
             transform="translate(245.9,694.6)"
             id="g968">
            <path
               inkscape:connector-curvature="0"
               id="path970"
               style="fill:#008445;fill-opacity:1;fill-rule:nonzero;stroke:none"
               d="M 0,0 C -10.21,7.084 -26.22,1.802 -36.28,-11.76 C -36.03,-11.37 -35.76,-10.97 -35.49,-10.58 C -25.49,3.839 -8.875,9.622 1.623,2.341 C 12.12,-4.942 12.53,-22.53 2.527,-36.95 C 2.256,-37.34 1.978,-37.73 1.696,-38.11 C 10.87,-23.92 10.21,-7.084 0,0" />
          </g>
          <g
             transform="translate(217.8,651.7)"
             id="g972">
            <path
               inkscape:connector-curvature="0"
               id="path974"
               style="fill:#f4bd47;fill-opacity:1;fill-rule:nonzero;stroke:none"
               d="M 0,0 C -10.21,7.085 -10.87,23.92 -1.695,38.11 C -1.977,37.73 -2.255,37.34 -2.527,36.95 C -12.53,22.53 -12.12,4.942 -1.623,-2.34 C 8.876,-9.622 25.49,-3.839 35.49,10.58 C 35.76,10.97 36.03,11.37 36.29,11.76 C 26.22,-1.802 10.21,-7.083 0,0" />
          </g>
          <g
             transform="translate(235.6,683.6)"
             id="g976">
            <path
               inkscape:connector-curvature="0"
               id="path978"
               style="fill:#1e376c;fill-opacity:1;fill-rule:nonzero;stroke:none"
               d="M 0,0 C 0.086,-0.048 0.165,-0.109 0.237,-0.179 C -0.933,0.095 -2.981,-1.707 -4.518,-4.433 C -6.168,-7.358 -6.606,-10.24 -5.495,-10.86 C -4.46,-11.45 -2.447,-9.866 -0.842,-7.281 C -0.959,-7.508 -1.081,-7.735 -1.209,-7.963 C -3.253,-11.59 -6.023,-13.89 -7.398,-13.12 C -8.773,-12.34 -8.231,-8.777 -6.189,-5.155 C -4.146,-1.533 -1.375,0.775 0,0" />
          </g>
          <g
             transform="translate(227.5,668.5)"
             id="g980">
            <path
               inkscape:connector-curvature="0"
               id="path982"
               style="fill:#2e5697;fill-opacity:1;fill-rule:nonzero;stroke:none"
               d="M 0,0 C 1.868,-1.053 5.163,1.252 7.36,5.149 C 9.407,8.778 9.779,12.51 8.31,13.85 C 8.468,13.8 8.62,13.74 8.764,13.66 C 11.08,12.35 10.75,7.383 8.024,2.558 C 5.303,-2.268 1.223,-5.121 -1.09,-3.818 C -3.402,-2.513 -3.072,2.455 -0.351,7.281 C -0.181,7.583 -0.005,7.876 0.174,8.161 C -1.625,4.53 -1.739,0.982 0,0" />
          </g>
          <g
             transform="translate(225.1,700.3)"
             id="g984">
            <path
               inkscape:connector-curvature="0"
               id="path986"
               style="fill:#005789;fill-opacity:1;fill-rule:nonzero;stroke:none"
               d="M 0,0 C -4.375,-3.096 -8.416,-7.33 -11.66,-12.51 C -21.53,-28.32 -20.21,-46.96 -8.696,-54.16 C -1.681,-58.54 7.497,-57.66 15.83,-52.73 C 6.865,-59.08 -3.506,-60.65 -11.24,-55.81 C -22.75,-48.62 -24.08,-29.97 -14.2,-14.17 C -10.34,-7.99 -5.345,-3.162 0,0" />
          </g>
        </g>
      </g>
      <g
         transform="matrix(0.3528,0,0,-0.3528,-63.72,518.3)"
         id="g988">
        <g
           clip-path="url(#clipPath994)"
           id="g990">
          <g
             transform="translate(249.7,654.9)"
             id="g996">
            <path
               inkscape:connector-curvature="0"
               id="path998"
               style="fill:#ac1f2d;fill-opacity:1;fill-rule:nonzero;stroke:none"
               d="M 0,0 C 11.08,15.97 10.63,35.46 -1.001,43.53 C -3.824,45.49 -7.047,46.59 -10.47,46.91 C -6.123,46.97 -2.009,45.86 1.491,43.43 C 13.12,35.36 13.57,15.87 2.493,-0.099 C -5.897,-12.19 -18.49,-18.8 -29.16,-17.8 C -19.07,-17.66 -7.744,-11.16 0,0" />
          </g>
          <g
             transform="translate(252.5,703.8)"
             id="g1000">
            <path
               inkscape:connector-curvature="0"
               id="path1002"
               style="fill:#ee2a7b;fill-opacity:1;fill-rule:nonzero;stroke:none"
               d="M 0,0 C -12.79,7.991 -32.05,0.234 -43.03,-17.33 C -46.39,-22.71 -48.58,-28.38 -49.64,-33.89 C -48.88,-27.44 -46.54,-20.64 -42.55,-14.26 C -31.58,3.301 -12.26,11.85 0.532,3.864 C 9.404,-1.681 12.77,-14.15 10.37,-26.64 C 11.7,-15.33 8.141,-5.088 0,0" />
          </g>
          <g
             transform="translate(211.7,644.1)"
             id="g1004">
            <path
               inkscape:connector-curvature="0"
               id="path1006"
               style="fill:#8dc63f;fill-opacity:1;fill-rule:nonzero;stroke:none"
               d="M 0,0 C 12.52,-7.821 31.23,-0.558 42.31,16.21 C 42.08,15.83 41.86,15.46 41.62,15.08 C 30.65,-2.481 10.56,-10.58 -2.229,-2.588 C -15.02,5.404 -15.66,26.46 -4.691,44.02 C -4.456,44.4 -4.215,44.77 -3.973,45.13 C -14.19,27.82 -12.52,7.82 0,0" />
          </g>
          <g
             transform="translate(248.4,703.2)"
             id="g1008">
            <path
               inkscape:connector-curvature="0"
               id="path1010"
               style="fill:#f78d2c;fill-opacity:1;fill-rule:nonzero;stroke:none"
               d="M 0,0 C 3.93,-2.456 6.76,-6.513 8.52,-10.91 C 6.746,-7.406 4.194,-4.478 0.879,-2.407 C -11.91,5.584 -31.17,-2.173 -42.15,-19.73 C -49.75,-31.9 -51.38,-45.58 -47.41,-55.49 C -52.48,-45.47 -51.07,-29.14 -42.94,-16.13 C -31.97,1.429 -12.79,7.992 0,0" />
          </g>
          <g
             transform="translate(252.8,656.3)"
             id="g1012">
            <path
               inkscape:connector-curvature="0"
               id="path1014"
               style="fill:#92278f;fill-opacity:1;fill-rule:nonzero;stroke:none"
               d="M 0,0 C 11.51,16.59 11.34,36.74 -0.166,45.7 C 0.152,45.51 0.466,45.31 0.775,45.09 C 13.17,36.5 14.8,16.75 3.492,-0.594 C -8.622,-19.18 -29.57,-25.12 -41.96,-16.52 C -42.27,-16.31 -42.57,-16.09 -42.87,-15.86 C -30.44,-23.49 -11.51,-16.59 0,0" />
          </g>
        </g>
      </g>
    </g>
  </g>
  <path
     inkscape:connector-curvature="0"
     id="path6397"
     style="opacity:0.2;fill:#8a8a8d;fill-opacity:1;fill-rule:nonzero;stroke:none;stroke-width:0.29;stroke-miterlimit:4;stroke-dasharray:none"
     d="M 231.7,120.6 V 120.6 H 240.2 V 129.1 H 231.7 Z" />
</svg>
