<?xml version="1.0" encoding="utf-8"?>
<!-- Generator: Adobe Illustrator 16.0.0, SVG Export Plug-In . SVG Version: 6.00 Build 0)  -->
<!DOCTYPE svg PUBLIC "-//W3C//DTD SVG 1.1//EN" "http://www.w3.org/Graphics/SVG/1.1/DTD/svg11.dtd">
<svg version="1.1" id="Layer_1" xmlns="http://www.w3.org/2000/svg" xmlns:xlink="http://www.w3.org/1999/xlink" x="0px" y="0px"
	 width="635.968px" height="586.471px" viewBox="0 0 635.968 586.471" enable-background="new 0 0 635.968 586.471"
	 xml:space="preserve">
<circle fill="#6D6E71" cx="236.03" cy="46.008" r="11"/>
<circle fill="#6D6E71" cx="174.53" cy="75.008" r="5"/>
<circle fill="#6D6E71" cx="341.53" cy="132.008" r="6.5"/>
<circle fill="#6D6E71" cx="417.03" cy="81.508" r="9"/>
<circle fill="#6D6E71" cx="512.53" cy="139.508" r="5"/>
<circle fill="#6D6E71" cx="549.53" cy="183.008" r="5"/>
<circle fill="#6D6E71" cx="402.03" cy="279.508" r="7.5"/>
<circle fill="#6D6E71" cx="360.03" cy="295.008" r="5"/>
<circle fill="#6D6E71" cx="589.53" cy="272.508" r="5"/>
<circle fill="#6D6E71" cx="325.53" cy="324.008" r="5.5"/>
<circle fill="#6D6E71" cx="365.53" cy="367.008" r="9"/>
<circle fill="#6D6E71" cx="439.53" cy="335.508" r="5.5"/>
<circle fill="#6D6E71" cx="532.53" cy="347.508" r="5.5"/>
<circle fill="#6D6E71" cx="507.53" cy="428.008" r="5"/>
<circle fill="#6D6E71" cx="449.53" cy="507.008" r="12"/>
<circle fill="#6D6E71" cx="387.03" cy="437.508" r="5"/>
<circle fill="#6D6E71" cx="296.03" cy="494.008" r="5.5"/>
<circle fill="#6D6E71" cx="253.03" cy="471.508" r="5"/>
<circle fill="#6D6E71" cx="222.53" cy="432.508" r="5"/>
<circle fill="#6D6E71" cx="210.03" cy="496.508" r="9"/>
<circle fill="#6D6E71" cx="267.53" cy="566.508" r="5"/>
<circle fill="#6D6E71" cx="133.03" cy="496.008" r="5"/>
<circle fill="#6D6E71" cx="60.03" cy="375.008" r="5.5"/>
<circle fill="#6D6E71" cx="167.03" cy="315.008" r="11"/>
<circle fill="#6D6E71" cx="101.53" cy="306.508" r="5.5"/>
<circle fill="#6D6E71" cx="55.53" cy="204.508" r="9"/>
<circle fill="#6D6E71" cx="96.53" cy="168.008" r="8.5"/>
<circle fill="#6D6E71" cx="249.53" cy="205.508" r="5.5"/>
<circle fill="none" stroke="#6D6E71" stroke-width="1.5" stroke-miterlimit="10" cx="117.28" cy="87.758" r="29.75"/>
<circle fill="none" stroke="#6D6E71" stroke-width="1.5" stroke-miterlimit="10" cx="202.03" cy="165.008" r="25"/>
<circle fill="none" stroke="#6D6E71" stroke-width="1.5" stroke-miterlimit="10" cx="122.53" cy="227.008" r="20"/>
<circle fill="none" stroke="#6D6E71" stroke-width="1.5" stroke-miterlimit="10" cx="42.53" cy="282.508" r="34"/>
<circle fill="none" stroke="#6D6E71" stroke-width="1.5" stroke-miterlimit="10" cx="274.03" cy="273.508" r="42.5"/>
<circle fill="none" stroke="#6D6E71" stroke-width="1.5" stroke-miterlimit="10" cx="365.53" cy="207.008" r="24"/>
<circle fill="none" stroke="#6D6E71" stroke-width="1.5" stroke-miterlimit="10" cx="273.03" cy="120.508" r="17"/>
<circle fill="none" stroke="#6D6E71" stroke-width="1.5" stroke-miterlimit="10" cx="344.53" cy="36.508" r="29"/>
<circle fill="none" stroke="#6D6E71" stroke-width="1.5" stroke-miterlimit="10" cx="462.53" cy="182.008" r="33.5"/>
<circle fill="none" stroke="#6D6E71" stroke-width="1.5" stroke-miterlimit="10" cx="534.53" cy="70.008" r="23"/>
<circle fill="none" stroke="#6D6E71" stroke-width="1.5" stroke-miterlimit="10" cx="605.03" cy="192.008" r="19.5"/>
<circle fill="none" stroke="#6D6E71" stroke-width="1.5" stroke-miterlimit="10" cx="511.03" cy="260.008" r="24.5"/>
<circle fill="none" stroke="#6D6E71" stroke-width="1.5" stroke-miterlimit="10" cx="604.03" cy="352.008" r="23"/>
<circle fill="none" stroke="#6D6E71" stroke-width="1.5" stroke-miterlimit="10" cx="449.03" cy="399.008" r="35"/>
<circle fill="none" stroke="#6D6E71" stroke-width="1.5" stroke-miterlimit="10" cx="542.53" cy="491.008" r="20.5"/>
<circle fill="none" stroke="#6D6E71" stroke-width="1.5" stroke-miterlimit="10" cx="353.53" cy="557.508" r="23.5"/>
<circle fill="none" stroke="#6D6E71" stroke-width="1.5" stroke-miterlimit="10" cx="314.53" cy="440.008" r="27.5"/>
<circle fill="none" stroke="#6D6E71" stroke-width="1.5" stroke-miterlimit="10" cx="246.53" cy="377.008" r="20.5"/>
<circle fill="none" stroke="#6D6E71" stroke-width="1.5" stroke-miterlimit="10" cx="121.03" cy="420.008" r="27.5"/>
<circle fill="none" stroke="#6D6E71" stroke-width="1.5" stroke-miterlimit="10" cx="171.53" cy="542.008" r="19"/>
<line fill="none" stroke="#6D6E71" stroke-width="1.5" stroke-miterlimit="10" x1="174.53" y1="75.008" x2="146.53" y2="82.508"/>
<line fill="none" stroke="#6D6E71" stroke-width="1.5" stroke-miterlimit="10" x1="140.03" y1="107.508" x2="183.53" y2="148.508"/>
<line fill="none" stroke="#6D6E71" stroke-width="1.5" stroke-miterlimit="10" x1="208.53" y1="141.508" x2="232.53" y2="55.008"/>
<line fill="none" stroke="#6D6E71" stroke-width="1.5" stroke-miterlimit="10" x1="178.03" y1="168.008" x2="105.03" y2="168.008"/>
<line fill="none" stroke="#6D6E71" stroke-width="1.5" stroke-miterlimit="10" x1="184.03" y1="182.008" x2="138.53" y2="216.008"/>
<line fill="none" stroke="#6D6E71" stroke-width="1.5" stroke-miterlimit="10" x1="223.03" y1="178.508" x2="246.53" y2="203.008"/>
<line fill="none" stroke="#6D6E71" stroke-width="1.5" stroke-miterlimit="10" x1="251.03" y1="209.008" x2="259.03" y2="234.508"/>
<line fill="none" stroke="#6D6E71" stroke-width="1.5" stroke-miterlimit="10" x1="234.03" y1="290.008" x2="176.53" y2="312.008"/>
<line fill="none" stroke="#6D6E71" stroke-width="1.5" stroke-miterlimit="10" x1="156.03" y1="315.008" x2="103.53" y2="308.008"/>
<line fill="none" stroke="#6D6E71" stroke-width="1.5" stroke-miterlimit="10" x1="99.28" y1="306.758" x2="73.03" y2="296.508"/>
<line fill="none" stroke="#6D6E71" stroke-width="1.5" stroke-miterlimit="10" x1="54.03" y1="213.508" x2="47.53" y2="249.008"/>
<line fill="none" stroke="#6D6E71" stroke-width="1.5" stroke-miterlimit="10" x1="165.03" y1="325.508" x2="132.53" y2="395.508"/>
<line fill="none" stroke="#6D6E71" stroke-width="1.5" stroke-miterlimit="10" x1="96.53" y1="406.508" x2="62.53" y2="377.508"/>
<line fill="none" stroke="#6D6E71" stroke-width="1.5" stroke-miterlimit="10" x1="125.53" y1="448.508" x2="133.03" y2="496.008"/>
<line fill="none" stroke="#6D6E71" stroke-width="1.5" stroke-miterlimit="10" x1="136.03" y1="499.508" x2="159.03" y2="527.008"/>
<line fill="none" stroke="#6D6E71" stroke-width="1.5" stroke-miterlimit="10" x1="146.03" y1="410.508" x2="227.03" y2="384.508"/>
<line fill="none" stroke="#6D6E71" stroke-width="1.5" stroke-miterlimit="10" x1="251.53" y1="468.508" x2="225.03" y2="434.508"/>
<line fill="none" stroke="#6D6E71" stroke-width="1.5" stroke-miterlimit="10" x1="250.53" y1="475.008" x2="215.53" y2="493.008"/>
<line fill="none" stroke="#6D6E71" stroke-width="1.5" stroke-miterlimit="10" x1="256.03" y1="473.508" x2="294.53" y2="496.008"/>
<line fill="none" stroke="#6D6E71" stroke-width="1.5" stroke-miterlimit="10" x1="255.53" y1="471.008" x2="290.03" y2="453.508"/>
<line fill="none" stroke="#6D6E71" stroke-width="1.5" stroke-miterlimit="10" x1="326.03" y1="465.008" x2="349.03" y2="534.008"/>
<line fill="none" stroke="#6D6E71" stroke-width="1.5" stroke-miterlimit="10" x1="330.53" y1="561.508" x2="270.03" y2="567.008"/>
<line fill="none" stroke="#6D6E71" stroke-width="1.5" stroke-miterlimit="10" x1="342.03" y1="440.008" x2="384.03" y2="438.508"/>
<line fill="none" stroke="#6D6E71" stroke-width="1.5" stroke-miterlimit="10" x1="390.03" y1="436.508" x2="420.03" y2="419.508"/>
<line fill="none" stroke="#6D6E71" stroke-width="1.5" stroke-miterlimit="10" x1="451.03" y1="434.008" x2="450.03" y2="499.508"/>
<line fill="none" stroke="#6D6E71" stroke-width="1.5" stroke-miterlimit="10" x1="480.53" y1="414.758" x2="505.03" y2="426.508"/>
<line fill="none" stroke="#6D6E71" stroke-width="1.5" stroke-miterlimit="10" x1="510.03" y1="431.508" x2="533.03" y2="473.508"/>
<line fill="none" stroke="#6D6E71" stroke-width="1.5" stroke-miterlimit="10" x1="478.03" y1="380.508" x2="529.03" y2="350.508"/>
<line fill="none" stroke="#6D6E71" stroke-width="1.5" stroke-miterlimit="10" x1="440.28" y1="339.008" x2="444.53" y2="364.508"/>
<line fill="none" stroke="#6D6E71" stroke-width="1.5" stroke-miterlimit="10" x1="437.53" y1="331.008" x2="404.03" y2="283.008"/>
<line fill="none" stroke="#6D6E71" stroke-width="1.5" stroke-miterlimit="10" x1="303.53" y1="304.008" x2="323.53" y2="323.008"/>
<line fill="none" stroke="#6D6E71" stroke-width="1.5" stroke-miterlimit="10" x1="328.03" y1="328.008" x2="360.03" y2="362.008"/>
<line fill="none" stroke="#6D6E71" stroke-width="1.5" stroke-miterlimit="10" x1="329.03" y1="321.508" x2="357.03" y2="297.008"/>
<line fill="none" stroke="#6D6E71" stroke-width="1.5" stroke-miterlimit="10" x1="409.53" y1="279.508" x2="487.53" y2="265.508"/>
<line fill="none" stroke="#6D6E71" stroke-width="1.5" stroke-miterlimit="10" x1="405.53" y1="274.008" x2="445.03" y2="211.008"/>
<line fill="none" stroke="#6D6E71" stroke-width="1.5" stroke-miterlimit="10" x1="529.03" y1="276.008" x2="589.03" y2="334.508"/>
<line fill="none" stroke="#6D6E71" stroke-width="1.5" stroke-miterlimit="10" x1="535.53" y1="263.008" x2="585.53" y2="271.008"/>
<line fill="none" stroke="#6D6E71" stroke-width="1.5" stroke-miterlimit="10" x1="530.53" y1="245.508" x2="589.53" y2="203.508"/>
<line fill="none" stroke="#6D6E71" stroke-width="1.5" stroke-miterlimit="10" x1="489.03" y1="162.008" x2="509.53" y2="142.008"/>
<line fill="none" stroke="#6D6E71" stroke-width="1.5" stroke-miterlimit="10" x1="512.03" y1="136.508" x2="526.53" y2="92.008"/>
<line fill="none" stroke="#6D6E71" stroke-width="1.5" stroke-miterlimit="10" x1="514.53" y1="142.008" x2="546.53" y2="181.008"/>
<line fill="none" stroke="#6D6E71" stroke-width="1.5" stroke-miterlimit="10" x1="451.53" y1="150.508" x2="420.03" y2="88.008"/>
<line fill="none" stroke="#6D6E71" stroke-width="1.5" stroke-miterlimit="10" x1="432.03" y1="169.508" x2="341.53" y2="132.008"/>
<line fill="none" stroke="#6D6E71" stroke-width="1.5" stroke-miterlimit="10" x1="349.53" y1="190.008" x2="286.03" y2="131.508"/>
<line fill="none" stroke="#6D6E71" stroke-width="1.5" stroke-miterlimit="10" x1="283.28" y1="106.758" x2="324.53" y2="58.008"/>
<line fill="none" stroke="#6D6E71" stroke-width="1.5" stroke-miterlimit="10" x1="346.03" y1="221.508" x2="308.03" y2="248.008"/>
</svg>
