<?xml version="1.0" encoding="utf-8"?>
<!-- Generator: Adobe Illustrator 16.0.0, SVG Export Plug-In . SVG Version: 6.00 Build 0)  -->
<!DOCTYPE svg PUBLIC "-//W3C//DTD SVG 1.1//EN" "http://www.w3.org/Graphics/SVG/1.1/DTD/svg11.dtd">
<svg version="1.1" id="Layer_1" xmlns="http://www.w3.org/2000/svg" xmlns:xlink="http://www.w3.org/1999/xlink" x="0px" y="0px"
	 width="254.438px" height="75.597px" viewBox="0 0 254.438 75.597" enable-background="new 0 0 254.438 75.597"
	 xml:space="preserve">
<g>
	<path d="M122.721,26.916h1.428l2.615,3.358h0.015v-3.358h1.428v5.493h-1.428l-2.615-3.366h-0.015v3.366h-1.428V26.916z"/>
	<path d="M133.197,32.409h-1.326v-0.416h-0.015c-0.233,0.372-0.691,0.54-1.129,0.54c-1.107,0-1.888-0.925-1.888-1.997
		c0-1.071,0.766-1.988,1.873-1.988c0.43,0,0.882,0.16,1.158,0.488v-0.364h1.326V32.409z M130.21,30.544
		c0,0.474,0.313,0.837,0.853,0.837s0.853-0.363,0.853-0.837c0-0.459-0.313-0.845-0.853-0.845S130.21,30.085,130.21,30.544z"/>
	<path d="M135.527,32.409h-1.325v-2.645h-0.43v-1.093h0.43v-1.122h1.325v1.122h0.751v1.093h-0.751V32.409z"/>
	<path d="M138.106,27.237c0,0.407-0.335,0.743-0.743,0.743s-0.742-0.335-0.742-0.743c0-0.409,0.334-0.743,0.742-0.743
		S138.106,26.828,138.106,27.237z M138.027,32.409h-1.326v-3.737h1.326V32.409z"/>
	<path d="M143.126,30.544c0,1.267-1.05,1.989-2.251,1.989c-1.194,0-2.252-0.715-2.252-1.989c0-1.275,1.05-1.996,2.252-1.996
		C142.076,28.548,143.126,29.269,143.126,30.544z M140.022,30.544c0,0.474,0.313,0.837,0.853,0.837s0.853-0.363,0.853-0.837
		c0-0.459-0.313-0.845-0.853-0.845S140.022,30.085,140.022,30.544z"/>
	<path d="M145.049,29.152h0.015c0.307-0.452,0.679-0.604,1.195-0.604c1.005,0,1.405,0.634,1.405,1.551v2.31h-1.325v-1.821
		c0-0.357,0.059-0.983-0.597-0.983c-0.54,0-0.693,0.4-0.693,0.867v1.938h-1.325v-3.737h1.325V29.152z"/>
	<path d="M152.625,32.409H151.3v-0.416h-0.015c-0.233,0.372-0.692,0.54-1.13,0.54c-1.106,0-1.886-0.925-1.886-1.997
		c0-1.071,0.765-1.988,1.872-1.988c0.43,0,0.881,0.16,1.158,0.488v-0.364h1.325V32.409z M149.639,30.544
		c0,0.474,0.313,0.837,0.853,0.837s0.853-0.363,0.853-0.837c0-0.459-0.313-0.845-0.853-0.845S149.639,30.085,149.639,30.544z"/>
	<path d="M154.833,32.409h-1.326v-6.046h1.326V32.409z"/>
	<path d="M159.662,32.409h-1.428v-5.493h1.428V32.409z"/>
	<path d="M161.892,29.152h0.015c0.306-0.452,0.677-0.604,1.195-0.604c1.005,0,1.405,0.634,1.405,1.551v2.31h-1.326v-1.821
		c0-0.357,0.059-0.983-0.598-0.983c-0.538,0-0.691,0.4-0.691,0.867v1.938h-1.325v-3.737h1.325V29.152z"/>
	<path d="M167.851,29.634c-0.204-0.11-0.487-0.183-0.714-0.183c-0.153,0-0.415,0.065-0.415,0.255c0,0.255,0.415,0.291,0.598,0.328
		c0.619,0.124,1.085,0.415,1.085,1.106c0,0.983-0.896,1.392-1.763,1.392c-0.531,0-1.057-0.153-1.508-0.43l0.48-0.925
		c0.27,0.189,0.722,0.38,1.049,0.38c0.168,0,0.416-0.081,0.416-0.285c0-0.292-0.416-0.306-0.831-0.416
		c-0.416-0.108-0.831-0.312-0.831-0.983c0-0.917,0.831-1.325,1.646-1.325c0.423,0,0.846,0.065,1.232,0.241L167.851,29.634z"/>
	<path d="M170.568,32.409h-1.326v-2.645h-0.43v-1.093h0.43v-1.122h1.326v1.122h0.75v1.093h-0.75V32.409z"/>
	<path d="M173.146,27.237c0,0.407-0.335,0.743-0.743,0.743c-0.407,0-0.743-0.335-0.743-0.743c0-0.409,0.336-0.743,0.743-0.743
		C172.812,26.494,173.146,26.828,173.146,27.237z M173.066,32.409h-1.326v-3.737h1.326V32.409z"/>
	<path d="M175.39,32.409h-1.325v-2.645h-0.43v-1.093h0.43v-1.122h1.325v1.122h0.751v1.093h-0.751V32.409z"/>
	<path d="M177.866,28.671v1.997c0,0.473,0.117,0.809,0.664,0.809s0.663-0.336,0.663-0.809v-1.997h1.325v2.252
		c0,1.23-0.867,1.609-1.988,1.609c-1.122,0-1.989-0.379-1.989-1.609v-2.252H177.866z"/>
	<path d="M182.813,32.409h-1.326v-2.645h-0.43v-1.093h0.43v-1.122h1.326v1.122h0.751v1.093h-0.751V32.409z"/>
	<path d="M187.825,30.763h-2.789c0,0.539,0.283,0.829,0.83,0.829c0.283,0,0.487-0.094,0.634-0.341h1.274
		c-0.211,0.881-1.049,1.282-1.901,1.282c-1.239,0-2.164-0.699-2.164-1.989c0-1.246,0.853-1.996,2.069-1.996
		c1.297,0,2.047,0.801,2.047,2.076V30.763z M186.594,29.997c-0.065-0.356-0.393-0.589-0.749-0.589c-0.387,0-0.708,0.203-0.788,0.589
		H186.594z"/>
	<path d="M195.154,30.544c0,1.267-1.05,1.989-2.252,1.989c-1.194,0-2.25-0.715-2.25-1.989c0-1.275,1.048-1.996,2.25-1.996
		S195.154,29.269,195.154,30.544z M192.051,30.544c0,0.474,0.313,0.837,0.852,0.837c0.54,0,0.854-0.363,0.854-0.837
		c0-0.459-0.313-0.845-0.854-0.845C192.364,29.699,192.051,30.085,192.051,30.544z"/>
	<path d="M197.208,32.409h-1.325v-2.645h-0.467v-1.093h0.467v-0.474c0-0.517,0.014-0.896,0.379-1.311
		c0.327-0.386,0.801-0.597,1.304-0.597c0.203,0,0.387,0.036,0.568,0.131v1.144c-0.152-0.065-0.291-0.123-0.467-0.123
		c-0.342,0-0.459,0.203-0.459,0.626v0.604h0.926v1.093h-0.926V32.409z"/>
	<path d="M125.737,37.121c-0.263-0.218-0.598-0.363-0.946-0.363c-0.264,0-0.612,0.153-0.612,0.458c0,0.321,0.385,0.444,0.633,0.524
		l0.364,0.109c0.766,0.226,1.355,0.611,1.355,1.5c0,0.546-0.132,1.107-0.568,1.479c-0.43,0.363-1.006,0.516-1.559,0.516
		c-0.692,0-1.37-0.232-1.931-0.626l0.611-1.151c0.357,0.313,0.78,0.568,1.268,0.568c0.336,0,0.692-0.167,0.692-0.554
		c0-0.4-0.561-0.539-0.866-0.626c-0.896-0.255-1.487-0.488-1.487-1.552c0-1.115,0.795-1.842,1.895-1.842
		c0.554,0,1.23,0.174,1.72,0.451L125.737,37.121z"/>
	<path d="M128.629,41.201h-1.325v-2.645h-0.43v-1.092h0.43v-1.123h1.325v1.123h0.751v1.092h-0.751V41.201z"/>
	<path d="M133.889,41.201h-1.325v-0.416h-0.015c-0.234,0.372-0.692,0.539-1.13,0.539c-1.106,0-1.887-0.924-1.887-1.996
		c0-1.071,0.766-1.988,1.872-1.988c0.43,0,0.882,0.159,1.159,0.487v-0.364h1.325V41.201z M130.902,39.336
		c0,0.473,0.312,0.837,0.853,0.837c0.538,0,0.852-0.364,0.852-0.837c0-0.459-0.313-0.845-0.852-0.845
		C131.215,38.491,130.902,38.877,130.902,39.336z"/>
	<path d="M136.096,37.945h0.015c0.307-0.453,0.678-0.604,1.195-0.604c1.005,0,1.406,0.632,1.406,1.55v2.31h-1.327V39.38
		c0-0.357,0.06-0.983-0.597-0.983c-0.539,0-0.692,0.4-0.692,0.867v1.938h-1.325v-3.737h1.325V37.945z"/>
	<path d="M142.397,40.786h-0.015c-0.232,0.372-0.692,0.539-1.128,0.539c-1.108,0-1.888-0.924-1.888-1.996
		c0-1.071,0.765-1.988,1.873-1.988c0.43,0,0.881,0.159,1.157,0.487v-2.674h1.326v6.047h-1.326V40.786z M140.736,39.336
		c0,0.473,0.313,0.837,0.853,0.837s0.853-0.364,0.853-0.837c0-0.459-0.313-0.845-0.853-0.845S140.736,38.877,140.736,39.336z"/>
	<path d="M148.641,41.201h-1.326v-0.416H147.3c-0.232,0.372-0.691,0.539-1.128,0.539c-1.108,0-1.888-0.924-1.888-1.996
		c0-1.071,0.765-1.988,1.873-1.988c0.43,0,0.881,0.159,1.157,0.487v-0.364h1.326V41.201z M145.654,39.336
		c0,0.473,0.313,0.837,0.852,0.837c0.54,0,0.853-0.364,0.853-0.837c0-0.459-0.312-0.845-0.853-0.845
		C145.968,38.491,145.654,38.877,145.654,39.336z"/>
	<path d="M150.849,38.076h0.015c0.254-0.458,0.691-0.662,1.209-0.662h0.255v1.273c-0.183-0.102-0.357-0.124-0.562-0.124
		c-0.735,0-0.917,0.489-0.917,1.13v1.508h-1.326v-3.737h1.326V38.076z"/>
	<path d="M155.634,40.786h-0.015c-0.232,0.372-0.691,0.539-1.128,0.539c-1.108,0-1.888-0.924-1.888-1.996
		c0-1.071,0.765-1.988,1.873-1.988c0.43,0,0.881,0.159,1.157,0.487v-2.674h1.326v6.047h-1.326V40.786z M153.974,39.336
		c0,0.473,0.313,0.837,0.852,0.837c0.54,0,0.853-0.364,0.853-0.837c0-0.459-0.312-0.845-0.853-0.845
		C154.287,38.491,153.974,38.877,153.974,39.336z"/>
	<path d="M160.26,38.426c-0.203-0.11-0.488-0.182-0.714-0.182c-0.152,0-0.415,0.064-0.415,0.255c0,0.255,0.415,0.29,0.597,0.328
		c0.619,0.123,1.087,0.415,1.087,1.106c0,0.983-0.897,1.392-1.764,1.392c-0.532,0-1.056-0.153-1.508-0.43l0.48-0.925
		c0.27,0.188,0.722,0.379,1.049,0.379c0.168,0,0.415-0.081,0.415-0.285c0-0.292-0.415-0.307-0.83-0.416
		c-0.415-0.108-0.83-0.312-0.83-0.983c0-0.918,0.83-1.325,1.646-1.325c0.422,0,0.845,0.064,1.23,0.24L160.26,38.426z"/>
	<path d="M168.113,41.201h-1.326v-0.416h-0.015c-0.232,0.372-0.692,0.539-1.128,0.539c-1.108,0-1.888-0.924-1.888-1.996
		c0-1.071,0.765-1.988,1.873-1.988c0.43,0,0.881,0.159,1.157,0.487v-0.364h1.326V41.201z M165.126,39.336
		c0,0.473,0.313,0.837,0.853,0.837s0.853-0.364,0.853-0.837c0-0.459-0.313-0.845-0.853-0.845S165.126,38.877,165.126,39.336z"/>
	<path d="M170.32,37.945h0.016c0.305-0.453,0.677-0.604,1.193-0.604c1.006,0,1.406,0.632,1.406,1.55v2.31h-1.325V39.38
		c0-0.357,0.058-0.983-0.598-0.983c-0.539,0-0.692,0.4-0.692,0.867v1.938h-1.326v-3.737h1.326V37.945z"/>
	<path d="M176.622,40.786h-0.015c-0.233,0.372-0.692,0.539-1.13,0.539c-1.107,0-1.887-0.924-1.887-1.996
		c0-1.071,0.766-1.988,1.873-1.988c0.43,0,0.881,0.159,1.158,0.487v-2.674h1.326v6.047h-1.326V40.786z M174.961,39.336
		c0,0.473,0.313,0.837,0.852,0.837c0.54,0,0.853-0.364,0.853-0.837c0-0.459-0.312-0.845-0.853-0.845
		C175.274,38.491,174.961,38.877,174.961,39.336z"/>
	<path d="M183.491,41.201h-1.428v-4.285h-1.181v-1.209h3.789v1.209h-1.181V41.201z"/>
	<path d="M188.459,39.554h-2.79c0,0.54,0.284,0.83,0.831,0.83c0.284,0,0.488-0.094,0.634-0.341h1.274
		c-0.211,0.881-1.049,1.282-1.9,1.282c-1.24,0-2.164-0.699-2.164-1.988c0-1.246,0.853-1.996,2.068-1.996
		c1.297,0,2.047,0.801,2.047,2.076V39.554z M187.229,38.789c-0.065-0.356-0.393-0.588-0.75-0.588c-0.387,0-0.707,0.203-0.787,0.588
		H187.229z"/>
	<path d="M191.76,38.681c-0.196-0.146-0.43-0.263-0.685-0.263c-0.51,0-0.911,0.394-0.911,0.911c0,0.54,0.387,0.918,0.934,0.918
		c0.232,0,0.487-0.095,0.662-0.255v1.122c-0.292,0.146-0.611,0.211-0.932,0.211c-1.108,0-2.032-0.823-2.032-1.953
		c0-1.201,0.917-2.031,2.089-2.031c0.307,0,0.612,0.073,0.875,0.218V38.681z"/>
	<path d="M193.908,35.154v2.784h0.015c0.307-0.408,0.678-0.597,1.194-0.597c0.948,0,1.406,0.626,1.406,1.573v2.288h-1.325v-1.916
		c0-0.438-0.066-0.889-0.598-0.889c-0.524,0-0.692,0.451-0.692,0.889v1.916h-1.325v-6.047H193.908z"/>
	<path d="M198.724,37.945h0.015c0.306-0.453,0.678-0.604,1.195-0.604c1.005,0,1.406,0.632,1.406,1.55v2.31h-1.326V39.38
		c0-0.357,0.059-0.983-0.598-0.983c-0.539,0-0.692,0.4-0.692,0.867v1.938h-1.325v-3.737h1.325V37.945z"/>
	<path d="M206.438,39.336c0,1.267-1.049,1.988-2.251,1.988c-1.194,0-2.251-0.715-2.251-1.988c0-1.275,1.049-1.996,2.251-1.996
		S206.438,38.061,206.438,39.336z M203.336,39.336c0,0.473,0.312,0.837,0.852,0.837c0.54,0,0.853-0.364,0.853-0.837
		c0-0.459-0.312-0.845-0.853-0.845C203.648,38.491,203.336,38.877,203.336,39.336z"/>
	<path d="M208.361,41.201h-1.325v-6.047h1.325V41.201z"/>
	<path d="M213.461,39.336c0,1.267-1.048,1.988-2.25,1.988c-1.195,0-2.252-0.715-2.252-1.988c0-1.275,1.05-1.996,2.252-1.996
		S213.461,38.061,213.461,39.336z M210.358,39.336c0,0.473,0.312,0.837,0.853,0.837c0.539,0,0.853-0.364,0.853-0.837
		c0-0.459-0.313-0.845-0.853-0.845C210.671,38.491,210.358,38.877,210.358,39.336z"/>
	<path d="M218.161,40.837c0,1.588-0.788,2.228-2.164,2.228c-0.86,0-2.012-0.443-2.128-1.426h1.486
		c0.037,0.13,0.132,0.226,0.248,0.283c0.116,0.058,0.254,0.088,0.378,0.088c0.715,0,0.853-0.466,0.853-1.072v-0.174
		c-0.343,0.343-0.691,0.51-1.188,0.51c-1.093,0-1.843-0.83-1.843-1.908c0-1.092,0.773-2.024,1.916-2.024
		c0.438,0,0.838,0.145,1.101,0.516h0.014v-0.393h1.327V40.837z M215.173,39.307c0,0.473,0.314,0.838,0.854,0.838
		c0.538,0,0.853-0.365,0.853-0.838c0-0.459-0.314-0.846-0.853-0.846C215.487,38.461,215.173,38.848,215.173,39.307z"/>
	<path d="M218.444,37.464h1.53l0.998,1.916l0.977-1.916h1.507l-2.993,5.601h-1.487l1.276-2.375L218.444,37.464z"/>
	<path d="M123.406,48.023c0,0.408-0.016,0.873,0.24,1.224c0.24,0.334,0.706,0.525,1.106,0.525c0.394,0,0.823-0.182,1.079-0.489
		c0.291-0.349,0.27-0.831,0.27-1.26v-3.272h0.611v3.438c0,0.598-0.043,1.072-0.481,1.523c-0.378,0.409-0.924,0.626-1.479,0.626
		c-0.517,0-1.049-0.196-1.42-0.561c-0.48-0.459-0.539-0.962-0.539-1.589v-3.438h0.612V48.023z"/>
	<path d="M128.774,49.925c0,0.226-0.182,0.414-0.407,0.414s-0.408-0.188-0.408-0.414c0-0.22,0.183-0.401,0.408-0.401
		S128.774,49.705,128.774,49.925z"/>
	<path d="M132.534,45.823c-0.22-0.379-0.481-0.598-0.947-0.598c-0.487,0-0.911,0.35-0.911,0.853c0,0.474,0.489,0.692,0.86,0.86
		l0.363,0.16c0.715,0.313,1.319,0.67,1.319,1.543c0,0.961-0.772,1.698-1.727,1.698c-0.882,0-1.537-0.567-1.712-1.42l0.598-0.168
		c0.079,0.562,0.51,1.021,1.1,1.021s1.129-0.453,1.129-1.072c0-0.64-0.502-0.859-1.012-1.093l-0.336-0.145
		c-0.641-0.292-1.195-0.619-1.195-1.407c0-0.852,0.722-1.398,1.538-1.398c0.612,0,1.13,0.313,1.421,0.852L132.534,45.823z"/>
	<path d="M135.091,49.925c0,0.226-0.183,0.414-0.408,0.414s-0.408-0.188-0.408-0.414c0-0.22,0.183-0.401,0.408-0.401
		S135.091,49.705,135.091,49.925z"/>
	<path d="M138.602,44.751h1.035c0.823,0,1.493,0.11,2.142,0.664c0.627,0.54,0.911,1.274,0.911,2.09c0,0.802-0.292,1.51-0.896,2.047
		c-0.655,0.583-1.311,0.693-2.171,0.693h-1.021V44.751z M139.659,49.676c0.67,0,1.23-0.095,1.733-0.568
		c0.451-0.421,0.685-0.998,0.685-1.61c0-0.627-0.24-1.231-0.714-1.646c-0.503-0.445-1.056-0.532-1.704-0.532h-0.444v4.356H139.659z"
		/>
	<path d="M143.833,48.657c0.007,0.634,0.458,1.144,1.122,1.144c0.495,0,0.815-0.299,1.042-0.707l0.494,0.284
		c-0.327,0.612-0.881,0.962-1.58,0.962c-1.021,0-1.676-0.779-1.676-1.763c0-1.013,0.59-1.851,1.662-1.851
		c1.1,0,1.682,0.911,1.623,1.931H143.833z M145.909,48.161c-0.08-0.496-0.495-0.896-1.006-0.896c-0.502,0-0.968,0.4-1.042,0.896
		H145.909z"/>
	<path d="M147.876,47.309h0.015c0.284-0.379,0.707-0.583,1.181-0.583c1.005,0,1.639,0.867,1.639,1.814
		c0,0.976-0.619,1.799-1.646,1.799c-0.466,0-0.896-0.205-1.173-0.575h-0.015v2.404h-0.583V46.82h0.583V47.309z M147.847,48.496
		c0,0.67,0.394,1.305,1.123,1.305c0.749,0,1.143-0.604,1.143-1.297c0-0.685-0.43-1.238-1.151-1.238
		C148.284,47.265,147.847,47.855,147.847,48.496z"/>
	<path d="M154.65,50.244h-0.582v-0.473h-0.016c-0.298,0.379-0.698,0.567-1.18,0.567c-1.005,0-1.639-0.852-1.639-1.799
		c0-0.977,0.619-1.814,1.646-1.814c0.466,0,0.889,0.219,1.172,0.583h0.016V46.82h0.582V50.244z M151.831,48.496
		c0,0.67,0.394,1.305,1.122,1.305c0.751,0,1.145-0.604,1.145-1.297c0-0.685-0.431-1.238-1.151-1.238
		C152.27,47.265,151.831,47.855,151.831,48.496z"/>
	<path d="M156.282,47.193h0.015c0.204-0.271,0.379-0.467,0.758-0.467c0.197,0,0.357,0.066,0.525,0.161l-0.277,0.532
		c-0.116-0.081-0.197-0.153-0.35-0.153c-0.641,0-0.671,0.822-0.671,1.268v1.711h-0.583V46.82h0.583V47.193z"/>
	<path d="M158.927,50.244h-0.582v-2.885h-0.357v-0.54h0.357v-1.23h0.582v1.23h0.612v0.54h-0.612V50.244z"/>
	<path d="M160.646,47.193h0.015c0.182-0.285,0.473-0.467,0.823-0.467c0.4,0,0.765,0.212,0.947,0.569
		c0.204-0.379,0.61-0.569,1.027-0.569c0.873,0,1.092,0.714,1.092,1.436v2.083h-0.583v-1.989c0-0.445-0.028-0.99-0.626-0.99
		c-0.67,0-0.743,0.648-0.743,1.166v1.813h-0.582V48.3c0-0.423-0.052-1.035-0.613-1.035c-0.685,0-0.757,0.692-0.757,1.209v1.77
		h-0.583V46.82h0.583V47.193z"/>
	<path d="M165.95,48.657c0.007,0.634,0.458,1.144,1.121,1.144c0.496,0,0.815-0.299,1.042-0.707l0.495,0.284
		c-0.328,0.612-0.881,0.962-1.581,0.962c-1.02,0-1.675-0.779-1.675-1.763c0-1.013,0.59-1.851,1.66-1.851
		c1.101,0,1.683,0.911,1.625,1.931H165.95z M168.025,48.161c-0.079-0.496-0.494-0.896-1.005-0.896c-0.502,0-0.97,0.4-1.042,0.896
		H168.025z"/>
	<path d="M170.022,47.235h0.014c0.24-0.328,0.555-0.51,0.977-0.51c0.946,0,1.166,0.685,1.166,1.486v2.033h-0.583v-1.931
		c0-0.553-0.043-1.048-0.722-1.048c-0.802,0-0.852,0.743-0.852,1.354v1.625h-0.583V46.82h0.583V47.235z"/>
	<path d="M173.897,50.244h-0.583v-2.885h-0.357v-0.54h0.357v-1.23h0.583v1.23h0.612v0.54h-0.612V50.244z"/>
	<path d="M176.972,48.54c0-1.006,0.794-1.814,1.8-1.814c1.005,0,1.798,0.809,1.798,1.814s-0.8,1.799-1.798,1.799
		S176.972,49.546,176.972,48.54z M177.555,48.533c0,0.699,0.495,1.268,1.217,1.268c0.721,0,1.216-0.568,1.216-1.268
		c0-0.692-0.495-1.268-1.216-1.268C178.05,47.265,177.555,47.84,177.555,48.533z"/>
	<path d="M182.006,50.244h-0.583v-2.885h-0.32v-0.54h0.32v-1.362c0-0.284,0-0.641,0.152-0.889c0.19-0.305,0.532-0.43,0.883-0.43
		c0.138,0,0.275,0.029,0.414,0.074v0.59c-0.131-0.043-0.247-0.081-0.394-0.081c-0.473,0-0.473,0.335-0.473,0.94v1.158h0.866v0.54
		h-0.866V50.244z"/>
	<path d="M189.8,45.955c-0.437-0.453-1.041-0.729-1.676-0.729c-1.223,0-2.214,1.064-2.214,2.272c0,1.21,0.998,2.274,2.229,2.274
		c0.619,0,1.224-0.292,1.66-0.729V49.8c-0.473,0.342-1.056,0.539-1.639,0.539c-1.551,0-2.863-1.26-2.863-2.818
		c0-1.574,1.289-2.863,2.863-2.863c0.612,0,1.15,0.174,1.639,0.539V45.955z"/>
	<path d="M190.529,48.54c0-1.006,0.794-1.814,1.8-1.814c1.004,0,1.799,0.809,1.799,1.814s-0.801,1.799-1.799,1.799
		C191.33,50.339,190.529,49.546,190.529,48.54z M191.112,48.533c0,0.699,0.495,1.268,1.217,1.268c0.72,0,1.215-0.568,1.215-1.268
		c0-0.692-0.495-1.268-1.215-1.268C191.607,47.265,191.112,47.84,191.112,48.533z"/>
	<path d="M195.512,47.193h0.015c0.182-0.285,0.473-0.467,0.824-0.467c0.399,0,0.764,0.212,0.946,0.569
		c0.204-0.379,0.611-0.569,1.026-0.569c0.875,0,1.093,0.714,1.093,1.436v2.083h-0.582v-1.989c0-0.445-0.03-0.99-0.627-0.99
		c-0.67,0-0.743,0.648-0.743,1.166v1.813h-0.583V48.3c0-0.423-0.052-1.035-0.611-1.035c-0.685,0-0.758,0.692-0.758,1.209v1.77
		h-0.583V46.82h0.583V47.193z"/>
	<path d="M201.106,47.193h0.015c0.183-0.285,0.474-0.467,0.823-0.467c0.4,0,0.765,0.212,0.947,0.569
		c0.204-0.379,0.612-0.569,1.026-0.569c0.875,0,1.094,0.714,1.094,1.436v2.083h-0.583v-1.989c0-0.445-0.029-0.99-0.627-0.99
		c-0.67,0-0.743,0.648-0.743,1.166v1.813h-0.582V48.3c0-0.423-0.052-1.035-0.612-1.035c-0.685,0-0.758,0.692-0.758,1.209v1.77
		h-0.583V46.82h0.583V47.193z"/>
	<path d="M206.41,48.657c0.007,0.634,0.459,1.144,1.121,1.144c0.496,0,0.817-0.299,1.043-0.707l0.495,0.284
		c-0.328,0.612-0.882,0.962-1.581,0.962c-1.021,0-1.676-0.779-1.676-1.763c0-1.013,0.59-1.851,1.661-1.851
		c1.101,0,1.683,0.911,1.624,1.931H206.41z M208.486,48.161c-0.08-0.496-0.495-0.896-1.006-0.896c-0.502,0-0.968,0.4-1.041,0.896
		H208.486z"/>
	<path d="M210.452,47.193h0.016c0.205-0.271,0.379-0.467,0.758-0.467c0.197,0,0.356,0.066,0.524,0.161l-0.276,0.532
		c-0.116-0.081-0.196-0.153-0.35-0.153c-0.641,0-0.672,0.822-0.672,1.268v1.711h-0.582V46.82h0.582V47.193z"/>
	<path d="M214.883,47.84h-0.015c-0.27-0.343-0.604-0.575-1.064-0.575c-0.705,0-1.208,0.583-1.208,1.268
		c0,0.678,0.466,1.268,1.179,1.268c0.489,0,0.832-0.219,1.115-0.59h0.015v0.779c-0.335,0.226-0.678,0.35-1.085,0.35
		c-1.034,0-1.821-0.771-1.821-1.806c0-1.021,0.823-1.807,1.827-1.807c0.372,0,0.752,0.124,1.058,0.343V47.84z"/>
	<path d="M216.099,48.657c0.008,0.634,0.459,1.144,1.123,1.144c0.495,0,0.815-0.299,1.041-0.707l0.495,0.284
		c-0.327,0.612-0.881,0.962-1.581,0.962c-1.019,0-1.675-0.779-1.675-1.763c0-1.013,0.59-1.851,1.662-1.851
		c1.099,0,1.682,0.911,1.623,1.931H216.099z M218.176,48.161c-0.08-0.496-0.495-0.896-1.006-0.896c-0.502,0-0.969,0.4-1.041,0.896
		H218.176z"/>
</g>
<g>
	<g>
		<path d="M33.714,50.455h-4.902V31.526c0,0.021,0-3.571,3.587-4.767c3.234-1.038,5.398,1.053,5.401,1.045L53.961,45.28
			c0.812,0.501,1.141-0.02,1.134-0.5V26.759h4.947v18.793c-0.021,1.6-1.345,3.586-3.221,4.359c-1.924,0.747-4.035,0.741-6.537-1.363
			L35.167,32.117c-0.397-0.427-1.437-0.475-1.453,0.363V50.455L33.714,50.455z"/>
		<path d="M63.221,26.759h4.947v16.979c-0.015,1.807,1.497,1.807,2.995,1.814h21.971c0.918-0.007,1.958-1.088,1.953-2.177
			c0.006-1.132-1.054-2.275-2.044-2.27H78.745c-2.459,0.09-7.563-2.181-7.582-6.992c0.018-5.874,4.84-7.2,7.039-7.354h40.445v4.994
			h-10.125v18.702h-4.902V31.753H78.834c-2.36-0.206-4.061,3.861-0.181,4.449H93.86c2.285-0.021,6.067,1.967,6.082,6.9
			c-0.015,4.995-2.945,7.36-6.082,7.353H71.391c-3.71,0.007-5.042-0.838-6.355-2.088c-1.217-1.202-1.421-1.877-1.814-4.358V26.759
			L63.221,26.759z"/>
	</g>
</g>
</svg>
