<?xml version="1.0" encoding="utf-8"?>
<!-- Generator: Adobe Illustrator 16.0.0, SVG Export Plug-In . SVG Version: 6.00 Build 0)  -->
<!DOCTYPE svg PUBLIC "-//W3C//DTD SVG 1.1//EN" "http://www.w3.org/Graphics/SVG/1.1/DTD/svg11.dtd">
<svg version="1.1" id="Layer_1" xmlns="http://www.w3.org/2000/svg" xmlns:xlink="http://www.w3.org/1999/xlink" x="0px" y="0px"
	 width="792px" height="612px" viewBox="0 0 792 612" enable-background="new 0 0 792 612" xml:space="preserve">
<polygon points="174.88,278.932 183.267,278.932 198.625,298.655 198.712,298.655 198.712,278.932 207.098,278.932 207.098,311.19 
	198.712,311.19 183.353,291.421 183.267,291.421 183.267,311.19 174.88,311.19 "/>
<path d="M236.41,311.19h-7.786v-2.438h-0.087c-1.373,2.181-4.062,3.163-6.635,3.163c-6.499,0-11.081-5.436-11.081-11.723
	c0-6.287,4.496-11.68,10.995-11.68c2.527,0,5.183,0.943,6.809,2.87v-2.146h7.786V311.19z M218.866,300.235
	c0,2.782,1.838,4.919,5.008,4.919c3.165,0,5.002-2.137,5.002-4.919c0-2.693-1.837-4.958-5.002-4.958
	C220.704,295.277,218.866,297.542,218.866,300.235"/>
<polygon points="250.098,311.19 242.312,311.19 242.312,295.659 239.788,295.659 239.788,289.237 242.312,289.237 242.312,282.65 
	250.098,282.65 250.098,289.237 254.508,289.237 254.508,295.659 250.098,295.659 "/>
<path d="M265.242,280.811c0,2.399-1.965,4.364-4.361,4.364c-2.398,0-4.364-1.965-4.364-4.364c0-2.396,1.966-4.361,4.364-4.361
	C263.277,276.45,265.242,278.415,265.242,280.811 M264.777,311.19h-7.787v-21.953h7.787V311.19z"/>
<path d="M294.724,300.235c0,7.447-6.161,11.68-13.221,11.68c-7.014,0-13.221-4.188-13.221-11.68c0-7.481,6.159-11.722,13.221-11.722
	C288.563,288.513,294.724,292.753,294.724,300.235 M276.5,300.235c0,2.782,1.839,4.919,5.002,4.919c3.17,0,5.009-2.137,5.009-4.919
	c0-2.693-1.839-4.958-5.009-4.958C278.34,295.277,276.5,297.542,276.5,300.235"/>
<path d="M306.021,292.063h0.087c1.798-2.652,3.981-3.55,7.02-3.55c5.9,0,8.252,3.723,8.252,9.114v13.564h-7.785v-10.697
	c0-2.095,0.345-5.774-3.505-5.774c-3.17,0-4.068,2.353-4.068,5.089v11.383h-7.787v-21.953h7.787V292.063z"/>
<path d="M350.52,311.19h-7.786v-2.438h-0.086c-1.368,2.181-4.065,3.163-6.634,3.163c-6.502,0-11.077-5.436-11.077-11.723
	c0-6.287,4.488-11.68,10.998-11.68c2.522,0,5.174,0.943,6.799,2.87v-2.146h7.786V311.19z M332.975,300.235
	c0,2.782,1.845,4.919,5.01,4.919c3.164,0,5.007-2.137,5.007-4.919c0-2.693-1.843-4.958-5.007-4.958
	C334.82,295.277,332.975,297.542,332.975,300.235"/>
<rect x="355.695" y="275.675" width="7.794" height="35.515"/>
<rect x="383.463" y="278.932" width="8.391" height="32.258"/>
<path d="M404.944,292.063h0.085c1.799-2.652,3.979-3.55,7.022-3.55c5.901,0,8.251,3.723,8.251,9.114v13.564h-7.785v-10.697
	c0-2.095,0.347-5.774-3.509-5.774c-3.166,0-4.064,2.353-4.064,5.089v11.383h-7.787v-21.953h7.787V292.063z"/>
<path d="M439.945,294.885c-1.198-0.64-2.866-1.063-4.195-1.063c-0.895,0-2.438,0.385-2.438,1.491c0,1.498,2.438,1.718,3.51,1.934
	c3.636,0.724,6.375,2.435,6.375,6.499c0,5.778-5.263,8.171-10.351,8.171c-3.124,0-6.209-0.895-8.86-2.523l2.824-5.436
	c1.583,1.121,4.237,2.227,6.163,2.227c0.986,0,2.436-0.473,2.436-1.668c0-1.711-2.436-1.799-4.873-2.435
	c-2.439-0.647-4.882-1.844-4.882-5.774c0-5.396,4.882-7.792,9.669-7.792c2.485,0,4.965,0.384,7.234,1.417L439.945,294.885z"/>
<polygon points="455.904,311.19 448.119,311.19 448.119,295.659 445.593,295.659 445.593,289.237 448.119,289.237 448.119,282.65 
	455.904,282.65 455.904,289.237 460.315,289.237 460.315,295.659 455.904,295.659 "/>
<path d="M471.048,280.811c0,2.399-1.969,4.364-4.359,4.364c-2.396,0-4.368-1.965-4.368-4.364c0-2.396,1.972-4.361,4.368-4.361
	C469.079,276.45,471.048,278.415,471.048,280.811 M470.581,311.19h-7.787v-21.953h7.787V311.19z"/>
<polygon points="484.225,311.19 476.437,311.19 476.437,295.659 473.915,295.659 473.915,289.237 476.437,289.237 476.437,282.65 
	484.225,282.65 484.225,289.237 488.636,289.237 488.636,295.659 484.225,295.659 "/>
<path d="M498.779,289.237v11.723c0,2.784,0.681,4.749,3.887,4.749c3.214,0,3.897-1.965,3.897-4.749v-11.723h7.787v13.22
	c0,7.234-5.095,9.458-11.685,9.458c-6.583,0-11.678-2.224-11.678-9.458v-13.22H498.779z"/>
<polygon points="527.827,311.19 520.04,311.19 520.04,295.659 517.518,295.659 517.518,289.237 520.04,289.237 520.04,282.65 
	527.827,282.65 527.827,289.237 532.235,289.237 532.235,295.659 527.827,295.659 "/>
<path d="M557.267,301.519H540.88c0,3.166,1.665,4.883,4.875,4.883c1.665,0,2.866-0.558,3.728-2.017h7.483
	c-1.24,5.18-6.162,7.531-11.171,7.531c-7.271,0-12.706-4.106-12.706-11.68c0-7.315,5.009-11.722,12.156-11.722
	c7.61,0,12.021,4.707,12.021,12.195V301.519z M550.036,297.03c-0.384-2.1-2.316-3.471-4.408-3.471c-2.269,0-4.146,1.198-4.621,3.471
	H550.036z"/>
<path d="M600.309,300.235c0,7.447-6.163,11.68-13.22,11.68c-7.018,0-13.227-4.188-13.227-11.68c0-7.481,6.163-11.722,13.227-11.722
	C594.146,288.513,600.309,292.753,600.309,300.235 M582.081,300.235c0,2.782,1.842,4.919,5.008,4.919
	c3.167,0,5.009-2.137,5.009-4.919c0-2.693-1.842-4.958-5.009-4.958C583.923,295.277,582.081,297.542,582.081,300.235"/>
<path d="M612.377,311.19h-7.787v-15.532h-2.743v-6.421h2.743v-2.778c0-3.035,0.083-5.262,2.222-7.7
	c1.929-2.269,4.704-3.51,7.664-3.51c1.194,0,2.262,0.212,3.333,0.769v6.718c-0.901-0.386-1.708-0.727-2.739-0.727
	c-2.009,0-2.692,1.2-2.692,3.677v3.55h5.432v6.421h-5.432V311.19z"/>
<path d="M118.658,338.872c-1.539-1.286-3.511-2.146-5.562-2.146c-1.539,0-3.597,0.901-3.597,2.697c0,1.887,2.272,2.61,3.725,3.085
	l2.138,0.64c4.496,1.324,7.958,3.598,7.958,8.813c0,3.209-0.765,6.506-3.338,8.683c-2.523,2.146-5.901,3.04-9.156,3.04
	c-4.064,0-8.04-1.364-11.337-3.676l3.598-6.764c2.093,1.838,4.575,3.34,7.441,3.34c1.968,0,4.067-0.986,4.067-3.252
	c0-2.354-3.297-3.166-5.095-3.686c-5.263-1.491-8.726-2.859-8.726-9.111c0-6.548,4.665-10.821,11.125-10.821
	c3.25,0,7.232,1.026,10.096,2.651L118.658,338.872z"/>
<polygon points="135.643,362.832 127.857,362.832 127.857,347.297 125.331,347.297 125.331,340.88 127.857,340.88 127.857,334.288 
	135.643,334.288 135.643,340.88 140.051,340.88 140.051,347.297 135.643,347.297 "/>
<path d="M166.533,362.832h-7.785v-2.441h-0.087c-1.364,2.184-4.064,3.167-6.626,3.167c-6.508,0-11.085-5.436-11.085-11.723
	c0-6.29,4.49-11.684,10.998-11.684c2.523,0,5.174,0.947,6.8,2.869v-2.141h7.785V362.832z M148.996,351.878
	c0,2.78,1.837,4.919,5.004,4.919c3.163,0,5.008-2.139,5.008-4.919c0-2.694-1.845-4.962-5.008-4.962
	C150.833,346.916,148.996,349.184,148.996,351.878"/>
<path d="M179.503,343.703h0.087c1.791-2.65,3.978-3.553,7.013-3.553c5.907,0,8.259,3.726,8.259,9.119v13.562h-7.788v-10.697
	c0-2.099,0.34-5.773-3.506-5.773c-3.167,0-4.064,2.35-4.064,5.088v11.383h-7.787v-21.953h7.787V343.703z"/>
<path d="M216.509,360.391h-0.082c-1.371,2.184-4.068,3.167-6.634,3.167c-6.507,0-11.083-5.436-11.083-11.723
	c0-6.29,4.495-11.684,10.997-11.684c2.525,0,5.177,0.947,6.801,2.869v-15.704h7.792v35.516h-7.792V360.391z M206.757,351.878
	c0,2.78,1.84,4.919,5.002,4.919c3.17,0,5.008-2.139,5.008-4.919c0-2.694-1.837-4.962-5.008-4.962
	C208.597,346.916,206.757,349.184,206.757,351.878"/>
<path d="M253.181,362.832h-7.785v-2.441h-0.087c-1.371,2.184-4.069,3.167-6.633,3.167c-6.502,0-11.085-5.436-11.085-11.723
	c0-6.29,4.495-11.684,10.998-11.684c2.524,0,5.176,0.947,6.807,2.869v-2.141h7.785V362.832z M235.637,351.878
	c0,2.78,1.839,4.919,5.007,4.919c3.167,0,5.006-2.139,5.006-4.919c0-2.694-1.84-4.962-5.006-4.962
	C237.477,346.916,235.637,349.184,235.637,351.878"/>
<path d="M266.144,344.473h0.087c1.498-2.695,4.064-3.89,7.1-3.89h1.498v7.488c-1.067-0.601-2.097-0.725-3.289-0.725
	c-4.325,0-5.396,2.861-5.396,6.625v8.86h-7.787v-21.953h7.787V344.473z"/>
<path d="M294.258,360.391h-0.086c-1.371,2.184-4.07,3.167-6.633,3.167c-6.502,0-11.084-5.436-11.084-11.723
	c0-6.29,4.495-11.684,10.997-11.684c2.524,0,5.18,0.947,6.807,2.869v-15.704h7.785v35.516h-7.785V360.391z M284.499,351.878
	c0,2.78,1.84,4.919,5.008,4.919c3.166,0,5.006-2.139,5.006-4.919c0-2.694-1.84-4.962-5.006-4.962
	C286.339,346.916,284.499,349.184,284.499,351.878"/>
<path d="M321.426,346.526c-1.198-0.64-2.87-1.067-4.195-1.067c-0.899,0-2.438,0.386-2.438,1.502c0,1.496,2.438,1.711,3.511,1.923
	c3.636,0.728,6.373,2.438,6.373,6.499c0,5.778-5.262,8.175-10.358,8.175c-3.122,0-6.2-0.898-8.853-2.524l2.826-5.435
	c1.58,1.113,4.235,2.223,6.161,2.223c0.98,0,2.438-0.464,2.438-1.664c0-1.711-2.438-1.8-4.882-2.438
	c-2.439-0.647-4.877-1.841-4.877-5.782c0-5.389,4.877-7.785,9.672-7.785c2.483,0,4.962,0.386,7.231,1.41L321.426,346.526z"/>
<path d="M367.55,362.832h-7.791v-2.441h-0.082c-1.371,2.184-4.069,3.167-6.633,3.167c-6.506,0-11.084-5.436-11.084-11.723
	c0-6.29,4.497-11.684,10.998-11.684c2.522,0,5.175,0.947,6.801,2.869v-2.141h7.791V362.832z M350.008,351.878
	c0,2.78,1.838,4.919,5.001,4.919c3.17,0,5.009-2.139,5.009-4.919c0-2.694-1.839-4.962-5.009-4.962
	C351.847,346.916,350.008,349.184,350.008,351.878"/>
<path d="M380.512,343.703h0.087c1.798-2.65,3.978-3.553,7.015-3.553c5.907,0,8.259,3.726,8.259,9.119v13.562h-7.786v-10.697
	c0-2.099,0.339-5.773-3.511-5.773c-3.165,0-4.064,2.35-4.064,5.088v11.383h-7.787v-21.953h7.787V343.703z"/>
<path d="M417.525,360.391h-0.085c-1.371,2.184-4.063,3.167-6.633,3.167c-6.503,0-11.086-5.436-11.086-11.723
	c0-6.29,4.495-11.684,10.998-11.684c2.522,0,5.181,0.947,6.806,2.869v-15.704h7.785v35.516h-7.785V360.391z M407.769,351.878
	c0,2.78,1.837,4.919,5.007,4.919c3.167,0,5.005-2.139,5.005-4.919c0-2.694-1.838-4.962-5.005-4.962
	C409.605,346.916,407.769,349.184,407.769,351.878"/>
<polygon points="457.869,362.832 449.483,362.832 449.483,337.674 442.557,337.674 442.557,330.574 464.802,330.574 
	464.802,337.674 457.869,337.674 "/>
<path d="M487.055,353.16h-16.39c0,3.17,1.668,4.883,4.878,4.883c1.669,0,2.869-0.557,3.72-2.014h7.495
	c-1.245,5.174-6.167,7.527-11.168,7.527c-7.273,0-12.709-4.106-12.709-11.68c0-7.319,5.008-11.726,12.145-11.726
	c7.621,0,12.029,4.707,12.029,12.199V353.16z M479.823,348.672c-0.391-2.099-2.312-3.471-4.407-3.471
	c-2.266,0-4.153,1.198-4.624,3.471H479.823z"/>
<path d="M506.433,348.024c-1.154-0.851-2.525-1.537-4.017-1.537c-2.996,0-5.349,2.312-5.349,5.348c0,3.163,2.266,5.39,5.472,5.39
	c1.368,0,2.866-0.556,3.894-1.495v6.591c-1.707,0.848-3.593,1.237-5.478,1.237c-6.496,0-11.932-4.835-11.932-11.462
	c0-7.064,5.385-11.944,12.278-11.944c1.791,0,3.593,0.432,5.131,1.286V348.024z"/>
<path d="M519.052,327.315v16.349h0.09c1.8-2.399,3.981-3.514,7.021-3.514c5.555,0,8.262,3.684,8.262,9.245v13.437h-7.795v-11.255
	c0-2.566-0.38-5.217-3.507-5.217c-3.083,0-4.071,2.65-4.071,5.217v11.255h-7.783v-35.517H519.052z"/>
<path d="M547.344,343.703h0.083c1.792-2.65,3.978-3.553,7.017-3.553c5.91,0,8.259,3.726,8.259,9.119v13.562h-7.784v-10.697
	c0-2.099,0.336-5.773-3.514-5.773c-3.163,0-4.061,2.35-4.061,5.088v11.383h-7.788v-21.953h7.788V343.703z"/>
<path d="M592.654,351.878c0,7.445-6.162,11.68-13.22,11.68c-7.02,0-13.227-4.192-13.227-11.68c0-7.492,6.163-11.727,13.227-11.727
	C586.492,340.151,592.654,344.386,592.654,351.878 M574.423,351.878c0,2.78,1.843,4.919,5.012,4.919
	c3.159,0,4.998-2.139,4.998-4.919c0-2.694-1.839-4.962-4.998-4.962C576.266,346.916,574.423,349.184,574.423,351.878"/>
<rect x="596.158" y="327.316" width="7.791" height="35.516"/>
<path d="M633.898,351.878c0,7.445-6.163,11.68-13.224,11.68c-7.013,0-13.219-4.192-13.219-11.68c0-7.492,6.154-11.727,13.219-11.727
	C627.735,340.151,633.898,344.386,633.898,351.878 M615.674,351.878c0,2.78,1.835,4.919,5.001,4.919c3.17,0,5.009-2.139,5.009-4.919
	c0-2.694-1.839-4.962-5.009-4.962C617.509,346.916,615.674,349.184,615.674,351.878"/>
<path d="M661.495,360.69c0,9.327-4.621,13.094-12.706,13.094c-5.049,0-11.809-2.604-12.495-8.39h8.729
	c0.21,0.774,0.771,1.333,1.454,1.672c0.688,0.343,1.498,0.516,2.226,0.516c4.194,0,5.001-2.738,5.001-6.291v-1.024
	c-2.008,2.007-4.063,2.99-6.97,2.99c-6.419,0-10.827-4.878-10.827-11.206c0-6.418,4.535-11.899,11.258-11.899
	c2.566,0,4.915,0.858,6.463,3.039h0.076v-2.312h7.792V360.69z M643.955,351.707c0,2.778,1.838,4.924,5.001,4.924
	c3.17,0,5.008-2.146,5.008-4.924c0-2.696-1.838-4.961-5.008-4.961C645.793,346.746,643.955,349.011,643.955,351.707"/>
<polygon points="663.167,340.879 672.145,340.879 678.008,352.135 683.743,340.879 692.603,340.879 675.011,373.784 666.29,373.784 
	673.773,359.836 "/>
<path d="M253.321,255.262h-18.841v-72.747c0,0.083,0-13.727,13.786-18.326c12.433-3.99,20.748,4.045,20.76,4.022l62.112,67.167
	c3.118,1.926,4.387-0.08,4.357-1.924v-69.265h19.015v72.233c-0.083,6.149-5.171,13.78-12.382,16.754
	c-7.395,2.869-15.509,2.847-25.123-5.24l-58.101-63.15c-1.526-1.648-5.52-1.827-5.583,1.395V255.262z"/>
<path d="M366.727,164.189h19.015v65.26c-0.059,6.944,5.75,6.944,11.516,6.973h84.438c3.521-0.028,7.527-4.179,7.502-8.369
	c0.025-4.351-4.051-8.744-7.85-8.725h-54.959c-9.453,0.345-29.076-8.381-29.132-26.876c0.056-22.57,18.598-27.664,27.046-28.263
	H579.75v19.193h-38.916v71.88h-18.833v-71.88h-95.266c-9.071-0.784-15.605,14.844-0.696,17.104h58.445
	c8.784-0.081,23.316,7.562,23.375,26.518c-0.059,19.198-11.317,28.288-23.375,28.258h-86.356
	c-14.266,0.03-19.379-3.216-24.427-8.022c-4.68-4.623-5.464-7.217-6.974-16.75V164.189z"/>
<g>
	<path d="M174.467,413.487l-5.191,4.948c-3.531-3.732-7.503-5.599-11.917-5.599c-3.726,0-6.863,1.273-9.415,3.821
		c-2.551,2.547-3.827,5.687-3.827,9.419c0,2.6,0.564,4.908,1.694,6.925s2.728,3.6,4.793,4.749s4.361,1.725,6.886,1.725
		c2.154,0,4.122-0.402,5.906-1.207c1.783-0.805,3.743-2.269,5.879-4.391l5.032,5.25c-2.88,2.812-5.602,4.76-8.164,5.848
		c-2.562,1.086-5.487,1.63-8.773,1.63c-6.062,0-11.022-1.922-14.883-5.765c-3.861-3.844-5.792-8.769-5.792-14.777
		c0-3.887,0.879-7.342,2.637-10.363c1.758-3.022,4.276-5.451,7.554-7.289s6.808-2.757,10.589-2.757c3.216,0,6.312,0.679,9.29,2.037
		S172.311,410.982,174.467,413.487z"/>
	<path d="M207.754,433.3h-23.246c0.335,2.05,1.232,3.68,2.69,4.891c1.458,1.21,3.317,1.815,5.579,1.815
		c2.704,0,5.027-0.945,6.971-2.836l6.096,2.862c-1.52,2.156-3.339,3.751-5.46,4.784c-2.121,1.034-4.639,1.551-7.554,1.551
		c-4.524,0-8.208-1.427-11.053-4.28s-4.267-6.428-4.267-10.722c0-4.4,1.418-8.054,4.254-10.961
		c2.836-2.906,6.392-4.359,10.669-4.359c4.541,0,8.234,1.453,11.079,4.359c2.845,2.907,4.268,6.746,4.268,11.518L207.754,433.3z
		 M200.518,427.601c-0.478-1.607-1.42-2.915-2.828-3.923c-1.407-1.007-3.04-1.511-4.899-1.511c-2.018,0-3.788,0.566-5.31,1.696
		c-0.956,0.707-1.841,1.953-2.655,3.737H200.518z"/>
	<path d="M212.254,416.786h7.236v2.956c1.641-1.384,3.127-2.346,4.459-2.887c1.332-0.541,2.695-0.811,4.089-0.811
		c2.858,0,5.285,0.998,7.279,2.995c1.676,1.696,2.514,4.205,2.514,7.527v19.058h-7.156v-12.629c0-3.441-0.155-5.727-0.463-6.856
		s-0.846-1.99-1.613-2.582c-0.767-0.591-1.714-0.887-2.842-0.887c-1.463,0-2.72,0.49-3.768,1.47
		c-1.049,0.979-1.776,2.334-2.182,4.063c-0.211,0.9-0.317,2.851-0.317,5.852v11.569h-7.236V416.786z"/>
	<path d="M244.348,406.158h7.236v10.628h4.294v6.229h-4.294v22.609h-7.236v-22.609h-3.711v-6.229h3.711V406.158z"/>
	<path d="M287.336,433.3h-23.246c0.335,2.05,1.232,3.68,2.69,4.891c1.458,1.21,3.317,1.815,5.579,1.815
		c2.704,0,5.027-0.945,6.971-2.836l6.096,2.862c-1.52,2.156-3.339,3.751-5.46,4.784c-2.121,1.034-4.639,1.551-7.554,1.551
		c-4.524,0-8.208-1.427-11.053-4.28s-4.267-6.428-4.267-10.722c0-4.4,1.418-8.054,4.254-10.961
		c2.836-2.906,6.392-4.359,10.669-4.359c4.541,0,8.234,1.453,11.079,4.359c2.845,2.907,4.268,6.746,4.268,11.518L287.336,433.3z
		 M280.1,427.601c-0.478-1.607-1.42-2.915-2.828-3.923c-1.407-1.007-3.04-1.511-4.899-1.511c-2.018,0-3.788,0.566-5.31,1.696
		c-0.956,0.707-1.841,1.953-2.655,3.737H280.1z"/>
	<path d="M290.141,416.786h6.202v3.632c0.671-1.432,1.564-2.519,2.677-3.261c1.113-0.741,2.333-1.112,3.658-1.112
		c0.937,0,1.917,0.247,2.942,0.741l-2.253,6.229c-0.848-0.424-1.546-0.637-2.094-0.637c-1.113,0-2.054,0.689-2.823,2.068
		c-0.769,1.378-1.153,4.081-1.153,8.11l0.026,1.405v11.662h-7.183V416.786z"/>
	<path d="M335.325,416.045c2.721,0,5.279,0.68,7.674,2.04c2.394,1.361,4.263,3.208,5.606,5.54c1.342,2.333,2.014,4.851,2.014,7.555
		c0,2.721-0.676,5.266-2.028,7.634c-1.352,2.367-3.194,4.219-5.526,5.553s-4.903,2.001-7.713,2.001
		c-4.135,0-7.665-1.471-10.589-4.413c-2.925-2.942-4.387-6.516-4.387-10.722c0-4.506,1.652-8.261,4.957-11.265
		C328.23,417.353,331.562,416.045,335.325,416.045z M335.445,422.856c-2.248,0-4.12,0.782-5.616,2.346
		c-1.496,1.563-2.244,3.565-2.244,6.004c0,2.509,0.739,4.541,2.217,6.096c1.478,1.556,3.35,2.333,5.615,2.333
		s4.151-0.786,5.655-2.359c1.504-1.572,2.257-3.596,2.257-6.069s-0.739-4.483-2.217-6.03
		C339.635,423.63,337.746,422.856,335.445,422.856z"/>
	<path d="M351.727,416.786h2.571c0.017-3.78,0.08-6.017,0.186-6.705c0.194-1.591,0.861-2.85,2.001-3.777s2.752-1.392,4.837-1.392
		c1.502,0,3.198,0.345,5.089,1.033v5.514c-1.043-0.301-1.9-0.45-2.571-0.45c-0.848,0-1.467,0.177-1.855,0.529
		c-0.283,0.266-0.424,0.813-0.424,1.644l-0.027,3.604h4.585v6.123h-4.585v22.716h-7.236v-22.716h-2.571V416.786z"/>
	<path d="M383.765,406.635h21.284v7.263h-13.916v7.051h13.916v7.13h-13.916v10.258h13.916v7.289h-21.284V406.635z"/>
	<path d="M407.217,416.786h8.402l5.7,7.86l5.671-7.86h8.261l-9.791,13.571l11.072,15.268h-8.402l-6.86-9.459l-6.824,9.459h-8.263
		l10.946-15.171L407.217,416.786z"/>
	<path d="M467.089,422.618l-6.024,3.312c-1.132-1.184-2.251-2.005-3.356-2.465c-1.106-0.459-2.402-0.688-3.888-0.688
		c-2.707,0-4.896,0.807-6.568,2.421s-2.508,3.684-2.508,6.206c0,2.452,0.805,4.455,2.415,6.008c1.609,1.553,3.724,2.328,6.343,2.328
		c3.237,0,5.759-1.104,7.562-3.312l5.706,3.906c-3.093,4.022-7.457,6.033-13.094,6.033c-5.071,0-9.043-1.502-11.914-4.506
		c-2.872-3.004-4.308-6.521-4.308-10.55c0-2.792,0.698-5.362,2.094-7.713c1.396-2.35,3.344-4.196,5.845-5.54
		c2.5-1.343,5.297-2.014,8.39-2.014c2.862,0,5.434,0.569,7.713,1.709S465.64,420.516,467.089,422.618z"/>
	<path d="M501.143,433.3h-23.245c0.335,2.05,1.232,3.68,2.69,4.891c1.458,1.21,3.317,1.815,5.579,1.815
		c2.704,0,5.027-0.945,6.972-2.836l6.096,2.862c-1.52,2.156-3.34,3.751-5.46,4.784c-2.12,1.034-4.639,1.551-7.555,1.551
		c-4.523,0-8.208-1.427-11.053-4.28s-4.268-6.428-4.268-10.722c0-4.4,1.418-8.054,4.255-10.961
		c2.836-2.906,6.392-4.359,10.668-4.359c4.541,0,8.234,1.453,11.08,4.359c2.845,2.907,4.268,6.746,4.268,11.518L501.143,433.3z
		 M493.907,427.601c-0.479-1.607-1.421-2.915-2.828-3.923c-1.407-1.007-3.04-1.511-4.898-1.511c-2.018,0-3.788,0.566-5.311,1.696
		c-0.955,0.707-1.841,1.953-2.654,3.737H493.907z"/>
	<path d="M504.849,405.654h7.236v39.971h-7.236V405.654z"/>
	<path d="M516.56,405.654h7.236v39.971h-7.236V405.654z"/>
	<path d="M557.958,433.3h-23.245c0.335,2.05,1.232,3.68,2.69,4.891c1.458,1.21,3.317,1.815,5.579,1.815
		c2.704,0,5.027-0.945,6.972-2.836l6.096,2.862c-1.52,2.156-3.34,3.751-5.46,4.784c-2.12,1.034-4.639,1.551-7.555,1.551
		c-4.523,0-8.208-1.427-11.053-4.28s-4.268-6.428-4.268-10.722c0-4.4,1.418-8.054,4.255-10.961
		c2.836-2.906,6.392-4.359,10.668-4.359c4.541,0,8.234,1.453,11.08,4.359c2.845,2.907,4.268,6.746,4.268,11.518L557.958,433.3z
		 M550.723,427.601c-0.479-1.607-1.421-2.915-2.828-3.923c-1.407-1.007-3.04-1.511-4.898-1.511c-2.018,0-3.788,0.566-5.311,1.696
		c-0.955,0.707-1.841,1.953-2.654,3.737H550.723z"/>
	<path d="M562.46,416.786h7.235v2.956c1.642-1.384,3.128-2.346,4.46-2.887s2.695-0.811,4.09-0.811c2.858,0,5.284,0.998,7.278,2.995
		c1.676,1.696,2.515,4.205,2.515,7.527v19.058h-7.157v-12.629c0-3.441-0.154-5.727-0.463-6.856s-0.846-1.99-1.613-2.582
		c-0.767-0.591-1.714-0.887-2.842-0.887c-1.464,0-2.72,0.49-3.769,1.47s-1.776,2.334-2.182,4.063
		c-0.211,0.9-0.317,2.851-0.317,5.852v11.569h-7.235V416.786z"/>
	<path d="M621.906,422.618l-6.024,3.312c-1.132-1.184-2.251-2.005-3.356-2.465c-1.106-0.459-2.402-0.688-3.888-0.688
		c-2.707,0-4.896,0.807-6.568,2.421s-2.508,3.684-2.508,6.206c0,2.452,0.805,4.455,2.415,6.008c1.609,1.553,3.724,2.328,6.343,2.328
		c3.237,0,5.759-1.104,7.562-3.312l5.706,3.906c-3.093,4.022-7.457,6.033-13.094,6.033c-5.071,0-9.043-1.502-11.914-4.506
		c-2.872-3.004-4.308-6.521-4.308-10.55c0-2.792,0.698-5.362,2.094-7.713c1.396-2.35,3.344-4.196,5.845-5.54
		c2.5-1.343,5.297-2.014,8.39-2.014c2.862,0,5.434,0.569,7.713,1.709S620.457,420.516,621.906,422.618z"/>
	<path d="M655.961,433.3h-23.245c0.335,2.05,1.232,3.68,2.69,4.891c1.458,1.21,3.317,1.815,5.579,1.815
		c2.704,0,5.027-0.945,6.972-2.836l6.096,2.862c-1.52,2.156-3.34,3.751-5.46,4.784c-2.12,1.034-4.639,1.551-7.555,1.551
		c-4.523,0-8.208-1.427-11.053-4.28s-4.268-6.428-4.268-10.722c0-4.4,1.418-8.054,4.255-10.961
		c2.836-2.906,6.392-4.359,10.668-4.359c4.541,0,8.234,1.453,11.08,4.359c2.845,2.907,4.268,6.746,4.268,11.518L655.961,433.3z
		 M648.726,427.601c-0.479-1.607-1.421-2.915-2.828-3.923c-1.407-1.007-3.04-1.511-4.898-1.511c-2.018,0-3.788,0.566-5.311,1.696
		c-0.955,0.707-1.841,1.953-2.654,3.737H648.726z"/>
</g>
</svg>
